<svg width="24" height="24" viewBox="0 0 24 24" fill="none"
    xmlns="http://www.w3.org/2000/svg">
    <g clip-path="url(#clip0)">
        <path d="M5.84956 16L15.9445 5.90503" stroke="#0F0F0F" stroke-width="1.5" stroke-linecap="square" stroke-linejoin="round"/>
        <path d="M17.2659 15.9996L17.2659 16.7496L15.7659 16.7496L15.7659 15.9996L17.2659 15.9996ZM16.5159 5.33319L16.5159 4.58319L17.2659 4.58319L17.2659 5.33319L16.5159 5.33319ZM5.84954 6.08319L5.09954 6.08319L5.09954 4.58319L5.84954 4.58319L5.84954 6.08319ZM15.7659 15.9996L15.7659 5.33319L17.2659 5.33319L17.2659 15.9996L15.7659 15.9996ZM16.5159 6.08319L5.84954 6.08319L5.84954 4.58319L16.5159 4.58319L16.5159 6.08319Z" fill="#0F0F0F"/>
        <path d="M15.0626 21.5832L15.8126 21.5832L15.8126 23.0832L15.0626 23.0832L15.0626 21.5832ZM2.00008 23.0832L1.25008 23.0832L1.25008 21.5832L2.00008 21.5832L2.00008 23.0832ZM15.0626 23.0832L2.00008 23.0832L2.00008 21.5832L15.0626 21.5832L15.0626 23.0832Z" fill="#434343"/>
    </g>
    <defs>
        <clipPath id="clip0">
            <rect width="24" height="24" fill="white" transform="matrix(-1 8.74228e-08 8.74228e-08 1 24 0)"/>
        </clipPath>
    </defs>
</svg>
