<svg width="25" height="25" viewBox="0 0 25 25" fill="none"
    xmlns="http://www.w3.org/2000/svg">
    <g clip-path="url(#clip0)">
        <path class="line" d="M6.6228 16.1731L16.7178 6.07812" stroke="#0F0F0F" stroke-width="1.5" stroke-linecap="square" stroke-linejoin="round"/>
        <path class="arrow" d="M18.0392 16.1724L18.0392 16.9224L16.5392 16.9224L16.5392 16.1724L18.0392 16.1724ZM17.2892 5.50604L17.2892 4.75604L18.0392 4.75604L18.0392 5.50604L17.2892 5.50604ZM6.62286 6.25605L5.87286 6.25605L5.87286 4.75605L6.62286 4.75605L6.62286 6.25605ZM16.5392 16.1724L16.5392 5.50604L18.0392 5.50604L18.0392 16.1724L16.5392 16.1724ZM17.2892 6.25604L6.62286 6.25605L6.62286 4.75605L17.2892 4.75604L17.2892 6.25604Z" fill="#0F0F0F"/>
        <path class="arrow" d="M15.8359 21.7558L16.5859 21.7558L16.5859 23.2558L15.8359 23.2558L15.8359 21.7558ZM2.77343 23.2559L2.02343 23.2559L2.02343 21.7559L2.77343 21.7559L2.77343 23.2559ZM15.8359 23.2558L2.77343 23.2559L2.77343 21.7559L15.8359 21.7558L15.8359 23.2558Z" fill="#0F0F0F"/>
    </g>
    <defs>
        <clipPath id="clip0">
            <rect width="24" height="24" fill="white" transform="matrix(-1 8.74228e-08 8.74228e-08 1 24.7734 0.172852)"/>
        </clipPath>
    </defs>
</svg>

