<svg width="83" height="83" viewBox="0 0 83 83" fill="none" xmlns="http://www.w3.org/2000/svg">
<path  class="outline" d="M41.4141 1.74207L69.6983 13.4578L81.4141 41.7421L69.6983 70.0263L41.4141 81.7421L13.1298 70.0263L1.41406 41.7421L13.1298 13.4578L41.4141 1.74207Z" stroke="#0B6AB7" stroke-width="1.5"/>
<path class="color" d="M41.414 7.17297L65.8574 17.2978L75.9822 41.7412M41.414 76.3095L16.9705 66.1847L6.8457 41.7412" stroke="#00E0E0" stroke-width="2.00747"/>
<path class="glass" d="M46.7243 46.5752L46.194 46.0448L45.1333 47.1054L45.6636 47.6358L46.7243 46.5752ZM52.7432 54.7163L53.2735 55.2467L54.3342 54.1861L53.8039 53.6558L52.7432 54.7163ZM43.1915 50.0209C48.8753 47.6054 51.5247 41.0396 49.1092 35.3558L47.7287 35.9425C49.8202 40.8638 47.5262 46.5489 42.6048 48.6404L43.1915 50.0209ZM49.1092 35.3558C46.6936 29.672 40.1278 27.0225 34.444 29.4381L35.0307 30.8186C39.9521 28.7271 45.6371 31.0211 47.7287 35.9425L49.1092 35.3558ZM34.444 29.4381C28.7602 31.8536 26.1108 38.4195 28.5263 44.1033L29.9068 43.5166C27.8153 38.5952 30.1094 32.9101 35.0307 30.8186L34.444 29.4381ZM28.5263 44.1033C30.9419 49.787 37.5077 52.4365 43.1915 50.0209L42.6048 48.6404C37.6834 50.732 31.9984 48.4379 29.9068 43.5166L28.5263 44.1033ZM45.6636 47.6358L52.7432 54.7163L53.8039 53.6558L46.7243 46.5752L45.6636 47.6358Z" fill="#0AA5FF"/>
</svg>
