<svg width="83" height="83" viewBox="0 0 83 83" fill="none" xmlns="http://www.w3.org/2000/svg">
<path d="M41.4141 1.74207L69.6983 13.4578L81.4141 41.7421L69.6983 70.0263L41.4141 81.7421L13.1298 70.0263L1.41406 41.7421L13.1298 13.4578L41.4141 1.74207Z" stroke="#0B6AB7" stroke-width="1.5"/>
<path d="M41.414 7.17297L65.8574 17.2978L75.9822 41.7412M41.414 76.3095L16.9705 66.1847L6.8457 41.7412" stroke="#00E0E0" stroke-width="2.00747"/>
<path d="M56.8725 52.4066C46.2047 52.4066 35.5369 52.4066 24.8691 52.4066V31.071H56.8725V52.4066Z" stroke="#0AA5FF" stroke-width="1.5" stroke-linecap="round" stroke-linejoin="round"/>
<path d="M30.2892 31.0719C30.2892 31.0719 30.1965 33.4444 28.6761 34.9648C27.1557 36.4852 24.7832 36.5779 24.7832 36.5779" stroke="#0AA5FF" stroke-width="1.5"/>
<path d="M30.2892 52.4066C30.2892 52.4066 30.1965 50.0342 28.6761 48.5137C27.1557 46.9933 24.7832 46.9007 24.7832 46.9007" stroke="#0AA5FF" stroke-width="1.5"/>
<path d="M51.3671 31.071C51.3671 31.071 51.4597 33.4435 52.9802 34.9639C54.5006 36.4844 56.873 36.577 56.873 36.577" stroke="#0AA5FF" stroke-width="1.5"/>
<path d="M51.3671 52.4066C51.3671 52.4066 51.4597 50.0342 52.9802 48.5137C54.5006 46.9933 56.873 46.9007 56.873 46.9007" stroke="#0AA5FF" stroke-width="1.5"/>
<circle cx="40.8289" cy="41.7383" r="7.16481" stroke="#0AA5FF" stroke-width="1.5"/>
<path d="M40.4137 38.8289C40.6432 38.8289 40.8293 39.015 40.8293 39.2445V39.6602H41.245V39.2445C41.245 39.015 41.4311 38.8289 41.6606 38.8289C41.8902 38.8289 42.0763 39.015 42.0763 39.2445V39.6602H42.5164C42.746 39.6602 42.9321 39.8463 42.9321 40.0758C42.9321 40.3054 42.746 40.4915 42.5164 40.4915H39.5579V41.3228H42.5164C42.746 41.3228 42.9321 41.5089 42.9321 41.7385V43.4011C42.9321 43.6307 42.746 43.8168 42.5164 43.8168H42.0763V44.2324C42.0763 44.462 41.8902 44.6481 41.6606 44.6481C41.4311 44.6481 41.245 44.462 41.245 44.2324V43.8168H40.8293V44.2324C40.8293 44.462 40.6432 44.6481 40.4137 44.6481C40.1841 44.6481 39.998 44.462 39.998 44.2324V43.8168H39.1422C38.9127 43.8168 38.7266 43.6307 38.7266 43.4011C38.7266 43.1716 38.9127 42.9855 39.1422 42.9855H42.1007V42.1541H39.1422C38.9127 42.1541 38.7266 41.968 38.7266 41.7385V40.0758C38.7266 39.8463 38.9127 39.6602 39.1422 39.6602H39.998V39.2445C39.998 39.015 40.1841 38.8289 40.4137 38.8289Z" fill="#0AA5FF"/>
</svg>
