<svg width="83" height="83" viewBox="0 0 83 83" fill="none" xmlns="http://www.w3.org/2000/svg">
<path class="color" d="M41.4141 1.74207L69.6983 13.4578L81.4141 41.7421L69.6983 70.0263L41.4141 81.7421L13.1298 70.0263L1.41406 41.7421L13.1298 13.4578L41.4141 1.74207Z" stroke="#0B6AB7" stroke-width="1.5"/>
<path class="color" d="M41.414 7.17297L65.8574 17.2978L75.9822 41.7412M41.414 76.3095L16.9705 66.1847L6.8457 41.7412" stroke="#00E0E0" stroke-width="2.00747"/>
<path class="color" d="M28.5293 33.4269V50.0573C28.5293 50.539 28.9198 50.9296 29.4016 50.9296H53.4283C53.9101 50.9296 54.3006 50.539 54.3006 50.0573V33.4269C54.3006 32.9451 53.9101 32.5546 53.4283 32.5546H29.4016C28.9198 32.5546 28.5293 32.9451 28.5293 33.4269Z" stroke="#0AA5FF" stroke-width="1.5" stroke-linecap="round" stroke-linejoin="round"/>
<path class="color" d="M53.7731 33.2138L41.577 43.7336L42.5567 44.8694L54.7529 34.3497L53.7731 33.2138ZM41.2504 43.7335L29.0583 33.2139L28.0784 34.3496L40.2705 44.8692L41.2504 43.7335ZM41.577 43.7336C41.4831 43.8145 41.3442 43.8145 41.2504 43.7335L40.2705 44.8692C40.9272 45.4359 41.8999 45.4359 42.5567 44.8694L41.577 43.7336Z" fill="#0AA5FF"/>
</svg>
