<svg width="83" height="83" viewBox="0 0 83 83" fill="none" xmlns="http://www.w3.org/2000/svg">
<path class="outline" d="M41.4141 1.74207L69.6983 13.4578L81.4141 41.7421L69.6983 70.0263L41.4141 81.7421L13.1298 70.0263L1.41406 41.7421L13.1298 13.4578L41.4141 1.74207Z" stroke="#0B6AB7" stroke-width="1.5"/>
<path class="color" d="M41.414 7.17297L65.8574 17.2978L75.9822 41.7412M41.414 76.3095L16.9705 66.1847L6.8457 41.7412" stroke="#00E0E0" stroke-width="2.00747"/>
<path  d="M56.8295 50.6305V51.4669C57.2915 51.4669 57.666 51.0924 57.666 50.6305H56.8295ZM24.8262 57.7424H23.9897C23.9897 58.1532 24.2882 58.5033 24.6939 58.5683C25.0996 58.6333 25.4924 58.3939 25.6208 58.0036L24.8262 57.7424ZM24.8262 29.2949V28.4585C24.3642 28.4585 23.9897 28.833 23.9897 29.2949H24.8262ZM56.8295 29.2949H57.666C57.666 28.833 57.2915 28.4585 56.8295 28.4585V29.2949ZM56.8295 50.6305C56.8295 49.794 56.8295 49.794 56.8293 49.794C56.8292 49.794 56.829 49.794 56.8288 49.794C56.8285 49.794 56.8282 49.794 56.8278 49.794C56.8274 49.794 56.8269 49.794 56.8264 49.794C56.8259 49.794 56.8253 49.794 56.8247 49.794C56.824 49.794 56.8233 49.794 56.8226 49.794C56.8218 49.794 56.8209 49.794 56.82 49.794C56.8191 49.794 56.8182 49.794 56.8172 49.794C56.8161 49.794 56.815 49.794 56.8139 49.794C56.8127 49.794 56.8115 49.794 56.8102 49.794C56.809 49.794 56.8076 49.794 56.8062 49.794C56.8048 49.794 56.8033 49.794 56.8018 49.794C56.8003 49.794 56.7987 49.794 56.797 49.794C56.7954 49.794 56.7936 49.794 56.7919 49.794C56.7901 49.794 56.7882 49.794 56.7863 49.794C56.7844 49.794 56.7825 49.794 56.7804 49.794C56.7784 49.794 56.7763 49.794 56.7742 49.794C56.772 49.794 56.7698 49.794 56.7675 49.794C56.7653 49.794 56.7629 49.794 56.7605 49.794C56.7581 49.794 56.7557 49.794 56.7532 49.794C56.7506 49.794 56.7481 49.794 56.7454 49.794C56.7428 49.794 56.7401 49.794 56.7373 49.794C56.7345 49.794 56.7317 49.794 56.7288 49.794C56.726 49.794 56.723 49.794 56.72 49.794C56.717 49.794 56.7139 49.794 56.7108 49.794C56.7077 49.794 56.7045 49.794 56.7013 49.794C56.698 49.794 56.6947 49.794 56.6914 49.794C56.688 49.794 56.6846 49.794 56.6811 49.794C56.6776 49.794 56.6741 49.794 56.6705 49.794C56.6669 49.794 56.6632 49.794 56.6595 49.794C56.6558 49.794 56.652 49.794 56.6481 49.794C56.6443 49.794 56.6404 49.794 56.6365 49.794C56.6325 49.794 56.6285 49.794 56.6244 49.794C56.6204 49.794 56.6162 49.794 56.612 49.794C56.6079 49.794 56.6036 49.794 56.5993 49.794C56.595 49.794 56.5906 49.794 56.5862 49.794C56.5818 49.794 56.5773 49.794 56.5728 49.794C56.5683 49.794 56.5637 49.794 56.559 49.794C56.5544 49.794 56.5497 49.794 56.5449 49.794C56.5401 49.794 56.5353 49.794 56.5304 49.794C56.5255 49.794 56.5206 49.794 56.5156 49.794C56.5106 49.794 56.5056 49.794 56.5005 49.794C56.4954 49.794 56.4902 49.794 56.485 49.794C56.4798 49.794 56.4745 49.794 56.4692 49.794C56.4638 49.794 56.4584 49.794 56.453 49.794C56.4476 49.794 56.4421 49.794 56.4365 49.794C56.4309 49.794 56.4253 49.794 56.4197 49.794C56.414 49.794 56.4083 49.794 56.4025 49.794C56.3967 49.794 56.3909 49.794 56.385 49.794C56.3791 49.794 56.3732 49.794 56.3672 49.794C56.3612 49.794 56.3551 49.794 56.349 49.794C56.3429 49.794 56.3368 49.794 56.3305 49.794C56.3243 49.794 56.318 49.794 56.3117 49.794C56.3054 49.794 56.299 49.794 56.2926 49.794C56.2861 49.794 56.2797 49.794 56.2731 49.794C56.2666 49.794 56.26 49.794 56.2533 49.794C56.2467 49.794 56.24 49.794 56.2332 49.794C56.2264 49.794 56.2196 49.794 56.2128 49.794C56.2059 49.794 56.199 49.794 56.192 49.794C56.185 49.794 56.178 49.794 56.1709 49.794C56.1639 49.794 56.1567 49.794 56.1496 49.794C56.1424 49.794 56.1351 49.794 56.1278 49.794C56.1206 49.794 56.1132 49.794 56.1058 49.794C56.0984 49.794 56.091 49.794 56.0835 49.794C56.076 49.794 56.0684 49.794 56.0608 49.794C56.0532 49.794 56.0456 49.794 56.0379 49.794C56.0302 49.794 56.0224 49.794 56.0146 49.794C56.0068 49.794 55.9989 49.794 55.991 49.794C55.9831 49.794 55.9751 49.794 55.9671 49.794C55.9591 49.794 55.951 49.794 55.9429 49.794C55.9348 49.794 55.9266 49.794 55.9184 49.794C55.9102 49.794 55.9019 49.794 55.8936 49.794C55.8853 49.794 55.8769 49.794 55.8685 49.794C55.8601 49.794 55.8516 49.794 55.8431 49.794C55.8346 49.794 55.826 49.794 55.8174 49.794C55.8087 49.794 55.8001 49.794 55.7913 49.794C55.7826 49.794 55.7739 49.794 55.765 49.794C55.7562 49.794 55.7473 49.794 55.7384 49.794C55.7295 49.794 55.7205 49.794 55.7115 49.794C55.7025 49.794 55.6934 49.794 55.6843 49.794C55.6752 49.794 55.666 49.794 55.6568 49.794C55.6476 49.794 55.6383 49.794 55.629 49.794C55.6197 49.794 55.6103 49.794 55.6009 49.794C55.5915 49.794 55.5821 49.794 55.5726 49.794C55.5631 49.794 55.5535 49.794 55.5439 49.794C55.5343 49.794 55.5247 49.794 55.515 49.794C55.5053 49.794 55.4955 49.794 55.4857 49.794C55.4759 49.794 55.4661 49.794 55.4562 49.794C55.4463 49.794 55.4364 49.794 55.4264 49.794C55.4164 49.794 55.4064 49.794 55.3963 49.794C55.3862 49.794 55.3761 49.794 55.3659 49.794C55.3558 49.794 55.3456 49.794 55.3353 49.794C55.325 49.794 55.3147 49.794 55.3044 49.794C55.294 49.794 55.2836 49.794 55.2731 49.794C55.2627 49.794 55.2522 49.794 55.2417 49.794C55.2311 49.794 55.2205 49.794 55.2099 49.794C55.1993 49.794 55.1886 49.794 55.1779 49.794C55.1671 49.794 55.1564 49.794 55.1456 49.794C55.1347 49.794 55.1239 49.794 55.113 49.794C55.1021 49.794 55.0911 49.794 55.0801 49.794C55.0691 49.794 55.0581 49.794 55.047 49.794C55.0359 49.794 55.0248 49.794 55.0136 49.794C55.0024 49.794 54.9912 49.794 54.9799 49.794C54.9687 49.794 54.9574 49.794 54.946 49.794C54.9347 49.794 54.9233 49.794 54.9118 49.794C54.9004 49.794 54.8889 49.794 54.8774 49.794C54.8658 49.794 54.8543 49.794 54.8427 49.794C54.831 49.794 54.8194 49.794 54.8077 49.794C54.796 49.794 54.7842 49.794 54.7724 49.794C54.7607 49.794 54.7488 49.794 54.7369 49.794C54.7251 49.794 54.7132 49.794 54.7012 49.794C54.6892 49.794 54.6772 49.794 54.6652 49.794C54.6531 49.794 54.641 49.794 54.6289 49.794C54.6168 49.794 54.6046 49.794 54.5924 49.794C54.5802 49.794 54.5679 49.794 54.5556 49.794C54.5433 49.794 54.531 49.794 54.5186 49.794C54.5062 49.794 54.4938 49.794 54.4813 49.794C54.4688 49.794 54.4563 49.794 54.4438 49.794C54.4312 49.794 54.4186 49.794 54.406 49.794C54.3934 49.794 54.3807 49.794 54.368 49.794C54.3553 49.794 54.3425 49.794 54.3297 49.794C54.3169 49.794 54.3041 49.794 54.2912 49.794C54.2783 49.794 54.2654 49.794 54.2524 49.794C54.2395 49.794 54.2265 49.794 54.2134 49.794C54.2004 49.794 54.1873 49.794 54.1742 49.794C54.1611 49.794 54.1479 49.794 54.1347 49.794C54.1215 49.794 54.1083 49.794 54.095 49.794C54.0817 49.794 54.0684 49.794 54.055 49.794C54.0417 49.794 54.0283 49.794 54.0149 49.794C54.0014 49.794 53.9879 49.794 53.9744 49.794C53.9609 49.794 53.9474 49.794 53.9338 49.794C53.9202 49.794 53.9065 49.794 53.8929 49.794C53.8792 49.794 53.8655 49.794 53.8517 49.794C53.838 49.794 53.8242 49.794 53.8104 49.794C53.7966 49.794 53.7827 49.794 53.7688 49.794C53.7549 49.794 53.741 49.794 53.727 49.794C53.713 49.794 53.699 49.794 53.6849 49.794C53.6709 49.794 53.6568 49.794 53.6427 49.794C53.6286 49.794 53.6144 49.794 53.6002 49.794C53.586 49.794 53.5718 49.794 53.5575 49.794C53.5432 49.794 53.5289 49.794 53.5145 49.794C53.5002 49.794 53.4858 49.794 53.4714 49.794C53.457 49.794 53.4425 49.794 53.428 49.794C53.4135 49.794 53.399 49.794 53.3844 49.794C53.3699 49.794 53.3553 49.794 53.3406 49.794C53.326 49.794 53.3113 49.794 53.2966 49.794C53.2819 49.794 53.2671 49.794 53.2523 49.794C53.2376 49.794 53.2227 49.794 53.2079 49.794C53.193 49.794 53.1781 49.794 53.1632 49.794C53.1483 49.794 53.1333 49.794 53.1183 49.794C53.1034 49.794 53.0883 49.794 53.0733 49.794C53.0582 49.794 53.0431 49.794 53.028 49.794C53.0128 49.794 52.9977 49.794 52.9825 49.794C52.9673 49.794 52.952 49.794 52.9367 49.794C52.9215 49.794 52.9062 49.794 52.8908 49.794C52.8755 49.794 52.8601 49.794 52.8447 49.794C52.8293 49.794 52.8139 49.794 52.7984 49.794C52.7829 49.794 52.7674 49.794 52.7519 49.794C52.7363 49.794 52.7208 49.794 52.7051 49.794C52.6895 49.794 52.6739 49.794 52.6582 49.794C52.6425 49.794 52.6268 49.794 52.6111 49.794C52.5954 49.794 52.5796 49.794 52.5638 49.794C52.548 49.794 52.5321 49.794 52.5163 49.794C52.5004 49.794 52.4845 49.794 52.4686 49.794C52.4526 49.794 52.4367 49.794 52.4207 49.794C52.4047 49.794 52.3886 49.794 52.3726 49.794C52.3565 49.794 52.3404 49.794 52.3243 49.794C52.3082 49.794 52.292 49.794 52.2758 49.794C52.2596 49.794 52.2434 49.794 52.2272 49.794C52.2109 49.794 52.1946 49.794 52.1783 49.794C52.162 49.794 52.1457 49.794 52.1293 49.794C52.1129 49.794 52.0965 49.794 52.0801 49.794C52.0636 49.794 52.0472 49.794 52.0307 49.794C52.0142 49.794 51.9976 49.794 51.9811 49.794C51.9645 49.794 51.9479 49.794 51.9313 49.794C51.9147 49.794 51.898 49.794 51.8814 49.794C51.8647 49.794 51.848 49.794 51.8312 49.794C51.8145 49.794 51.7977 49.794 51.7809 49.794C51.7641 49.794 51.7473 49.794 51.7305 49.794C51.7136 49.794 51.6967 49.794 51.6798 49.794C51.6629 49.794 51.646 49.794 51.629 49.794C51.612 49.794 51.595 49.794 51.578 49.794C51.561 49.794 51.5439 49.794 51.5268 49.794C51.5097 49.794 51.4926 49.794 51.4755 49.794C51.4583 49.794 51.4412 49.794 51.424 49.794C51.4068 49.794 51.3895 49.794 51.3723 49.794C51.355 49.794 51.3378 49.794 51.3204 49.794C51.3031 49.794 51.2858 49.794 51.2684 49.794C51.2511 49.794 51.2337 49.794 51.2163 49.794C51.1988 49.794 51.1814 49.794 51.1639 49.794C51.1464 49.794 51.1289 49.794 51.1114 49.794C51.0939 49.794 51.0763 49.794 51.0588 49.794C51.0412 49.794 51.0236 49.794 51.0059 49.794C50.9883 49.794 50.9706 49.794 50.953 49.794C50.9353 49.794 50.9176 49.794 50.8998 49.794C50.8821 49.794 50.8643 49.794 50.8465 49.794C50.8287 49.794 50.8109 49.794 50.7931 49.794C50.7753 49.794 50.7574 49.794 50.7395 49.794C50.7216 49.794 50.7037 49.794 50.6857 49.794C50.6678 49.794 50.6498 49.794 50.6318 49.794C50.6138 49.794 50.5958 49.794 50.5778 49.794C50.5597 49.794 50.5417 49.794 50.5236 49.794C50.5055 49.794 50.4874 49.794 50.4692 49.794C50.4511 49.794 50.4329 49.794 50.4147 49.794C50.3966 49.794 50.3783 49.794 50.3601 49.794C50.3419 49.794 50.3236 49.794 50.3053 49.794C50.287 49.794 50.2687 49.794 50.2504 49.794C50.2321 49.794 50.2137 49.794 50.1953 49.794C50.1769 49.794 50.1585 49.794 50.1401 49.794C50.1217 49.794 50.1032 49.794 50.0848 49.794C50.0663 49.794 50.0478 49.794 50.0293 49.794C50.0108 49.794 49.9922 49.794 49.9737 49.794C49.9551 49.794 49.9365 49.794 49.9179 49.794C49.8993 49.794 49.8807 49.794 49.862 49.794C49.8434 49.794 49.8247 49.794 49.806 49.794C49.7873 49.794 49.7686 49.794 49.7498 49.794C49.7311 49.794 49.7123 49.794 49.6935 49.794C49.6748 49.794 49.656 49.794 49.6371 49.794C49.6183 49.794 49.5995 49.794 49.5806 49.794C49.5617 49.794 49.5428 49.794 49.5239 49.794C49.505 49.794 49.4861 49.794 49.4671 49.794C49.4482 49.794 49.4292 49.794 49.4102 49.794C49.3912 49.794 49.3722 49.794 49.3531 49.794C49.3341 49.794 49.3151 49.794 49.296 49.794C49.2769 49.794 49.2578 49.794 49.2387 49.794C49.2196 49.794 49.2004 49.794 49.1813 49.794C49.1621 49.794 49.1429 49.794 49.1237 49.794C49.1046 49.794 49.0853 49.794 49.0661 49.794C49.0469 49.794 49.0276 49.794 49.0083 49.794C48.9891 49.794 48.9698 49.794 48.9505 49.794C48.9312 49.794 48.9118 49.794 48.8925 49.794C48.8731 49.794 48.8538 49.794 48.8344 49.794C48.815 49.794 48.7956 49.794 48.7762 49.794C48.7567 49.794 48.7373 49.794 48.7178 49.794C48.6984 49.794 48.6789 49.794 48.6594 49.794C48.6399 49.794 48.6204 49.794 48.6008 49.794C48.5813 49.794 48.5618 49.794 48.5422 49.794C48.5226 49.794 48.503 49.794 48.4834 49.794C48.4638 49.794 48.4442 49.794 48.4246 49.794C48.4049 49.794 48.3853 49.794 48.3656 49.794C48.346 49.794 48.3263 49.794 48.3066 49.794C48.2869 49.794 48.2671 49.794 48.2474 49.794C48.2277 49.794 48.2079 49.794 48.1881 49.794C48.1684 49.794 48.1486 49.794 48.1288 49.794C48.109 49.794 48.0891 49.794 48.0693 49.794C48.0495 49.794 48.0296 49.794 48.0098 49.794C47.9899 49.794 47.97 49.794 47.9501 49.794C47.9302 49.794 47.9103 49.794 47.8904 49.794C47.8704 49.794 47.8505 49.794 47.8305 49.794C47.8106 49.794 47.7906 49.794 47.7706 49.794C47.7506 49.794 47.7306 49.794 47.7106 49.794C47.6906 49.794 47.6705 49.794 47.6505 49.794C47.6304 49.794 47.6104 49.794 47.5903 49.794C47.5702 49.794 47.5501 49.794 47.53 49.794C47.5099 49.794 47.4898 49.794 47.4696 49.794C47.4495 49.794 47.4293 49.794 47.4092 49.794C47.389 49.794 47.3688 49.794 47.3487 49.794C47.3285 49.794 47.3083 49.794 47.288 49.794C47.2678 49.794 47.2476 49.794 47.2273 49.794C47.2071 49.794 47.1868 49.794 47.1666 49.794C47.1463 49.794 47.126 49.794 47.1057 49.794C47.0854 49.794 47.0651 49.794 47.0448 49.794C47.0245 49.794 47.0041 49.794 46.9838 49.794C46.9634 49.794 46.9431 49.794 46.9227 49.794C46.9023 49.794 46.882 49.794 46.8616 49.794C46.8412 49.794 46.8208 49.794 46.8003 49.794C46.7799 49.794 46.7595 49.794 46.7391 49.794C46.7186 49.794 46.6982 49.794 46.6777 49.794C46.6572 49.794 46.6368 49.794 46.6163 49.794C46.5958 49.794 46.5753 49.794 46.5548 49.794C46.5343 49.794 46.5137 49.794 46.4932 49.794C46.4727 49.794 46.4521 49.794 46.4316 49.794C46.411 49.794 46.3905 49.794 46.3699 49.794C46.3493 49.794 46.3287 49.794 46.3081 49.794C46.2875 49.794 46.2669 49.794 46.2463 49.794C46.2257 49.794 46.2051 49.794 46.1844 49.794C46.1638 49.794 46.1432 49.794 46.1225 49.794C46.1019 49.794 46.0812 49.794 46.0605 49.794C46.0398 49.794 46.0192 49.794 45.9985 49.794C45.9778 49.794 45.9571 49.794 45.9364 49.794C45.9157 49.794 45.8949 49.794 45.8742 49.794C45.8535 49.794 45.8327 49.794 45.812 49.794C45.7913 49.794 45.7705 49.794 45.7497 49.794C45.729 49.794 45.7082 49.794 45.6874 49.794C45.6667 49.794 45.6459 49.794 45.6251 49.794C45.6043 49.794 45.5835 49.794 45.5627 49.794C45.5419 49.794 45.521 49.794 45.5002 49.794C45.4794 49.794 45.4585 49.794 45.4377 49.794C45.4169 49.794 45.396 49.794 45.3752 49.794C45.3543 49.794 45.3334 49.794 45.3126 49.794C45.2917 49.794 45.2708 49.794 45.2499 49.794C45.2291 49.794 45.2082 49.794 45.1873 49.794C45.1664 49.794 45.1455 49.794 45.1246 49.794C45.1037 49.794 45.0827 49.794 45.0618 49.794C45.0409 49.794 45.02 49.794 44.999 49.794C44.9781 49.794 44.9572 49.794 44.9362 49.794C44.9153 49.794 44.8943 49.794 44.8734 49.794C44.8524 49.794 44.8314 49.794 44.8105 49.794C44.7895 49.794 44.7685 49.794 44.7475 49.794C44.7266 49.794 44.7056 49.794 44.6846 49.794C44.6636 49.794 44.6426 49.794 44.6216 49.794C44.6006 49.794 44.5796 49.794 44.5586 49.794C44.5376 49.794 44.5166 49.794 44.4956 49.794C44.4745 49.794 44.4535 49.794 44.4325 49.794C44.4115 49.794 44.3904 49.794 44.3694 49.794C44.3484 49.794 44.3273 49.794 44.3063 49.794C44.2853 49.794 44.2642 49.794 44.2432 49.794C44.2221 49.794 44.2011 49.794 44.18 49.794C44.1589 49.794 44.1379 49.794 44.1168 49.794C44.0958 49.794 44.0747 49.794 44.0536 49.794C44.0326 49.794 44.0115 49.794 43.9904 49.794C43.9693 49.794 43.9483 49.794 43.9272 49.794C43.9061 49.794 43.885 49.794 43.8639 49.794C43.8428 49.794 43.8218 49.794 43.8007 49.794C43.7796 49.794 43.7585 49.794 43.7374 49.794C43.7163 49.794 43.6952 49.794 43.6741 49.794C43.653 49.794 43.6319 49.794 43.6108 49.794C43.5897 49.794 43.5686 49.794 43.5475 49.794C43.5264 49.794 43.5053 49.794 43.4842 49.794C43.4631 49.794 43.442 49.794 43.4209 49.794C43.3998 49.794 43.3786 49.794 43.3575 49.794C43.3364 49.794 43.3153 49.794 43.2942 49.794C43.2731 49.794 43.252 49.794 43.2309 49.794C43.2098 49.794 43.1886 49.794 43.1675 49.794C43.1464 49.794 43.1253 49.794 43.1042 49.794C43.0831 49.794 43.062 49.794 43.0408 49.794C43.0197 49.794 42.9986 49.794 42.9775 49.794C42.9564 49.794 42.9353 49.794 42.9142 49.794C42.8931 49.794 42.872 49.794 42.8508 49.794C42.8297 49.794 42.8086 49.794 42.7875 49.794C42.7664 49.794 42.7453 49.794 42.7242 49.794C42.7031 49.794 42.682 49.794 42.6609 49.794C42.6398 49.794 42.6187 49.794 42.5976 49.794C42.5765 49.794 42.5554 49.794 42.5343 49.794C42.5132 49.794 42.4921 49.794 42.471 49.794C42.4499 49.794 42.4288 49.794 42.4077 49.794C42.3866 49.794 42.3655 49.794 42.3445 49.794C42.3234 49.794 42.3023 49.794 42.2812 49.794C42.2601 49.794 42.2391 49.794 42.218 49.794C42.1969 49.794 42.1758 49.794 42.1548 49.794C42.1337 49.794 42.1126 49.794 42.0916 49.794C42.0705 49.794 42.0495 49.794 42.0284 49.794C42.0073 49.794 41.9863 49.794 41.9652 49.794C41.9442 49.794 41.9232 49.794 41.9021 49.794C41.8811 49.794 41.86 49.794 41.839 49.794C41.818 49.794 41.7969 49.794 41.7759 49.794C41.7549 49.794 41.7339 49.794 41.7129 49.794C41.6918 49.794 41.6708 49.794 41.6498 49.794C41.6288 49.794 41.6078 49.794 41.5868 49.794C41.5658 49.794 41.5448 49.794 41.5238 49.794C41.5028 49.794 41.4819 49.794 41.4609 49.794C41.4399 49.794 41.4189 49.794 41.398 49.794C41.377 49.794 41.356 49.794 41.3351 49.794C41.3141 49.794 41.2932 49.794 41.2722 49.794C41.2513 49.794 41.2304 49.794 41.2094 49.794C41.1885 49.794 41.1676 49.794 41.1466 49.794C41.1257 49.794 41.1048 49.794 41.0839 49.794C41.063 49.794 41.0421 49.794 41.0212 49.794C41.0003 49.794 40.9794 49.794 40.9585 49.794C40.9377 49.794 40.9168 49.794 40.8959 49.794C40.875 49.794 40.8542 49.794 40.8333 49.794C40.8125 49.794 40.7916 49.794 40.7708 49.794C40.75 49.794 40.7291 49.794 40.7083 49.794C40.6875 49.794 40.6667 49.794 40.6459 49.794C40.625 49.794 40.6042 49.794 40.5835 49.794C40.5627 49.794 40.5419 49.794 40.5211 49.794C40.5003 49.794 40.4796 49.794 40.4588 49.794C40.438 49.794 40.4173 49.794 40.3965 49.794C40.3758 49.794 40.3551 49.794 40.3343 49.794C40.3136 49.794 40.2929 49.794 40.2722 49.794C40.2515 49.794 40.2308 49.794 40.2101 49.794C40.1894 49.794 40.1687 49.794 40.1481 49.794C40.1274 49.794 40.1067 49.794 40.0861 49.794C40.0654 49.794 40.0448 49.794 40.0242 49.794C40.0035 49.794 39.9829 49.794 39.9623 49.794C39.9417 49.794 39.9211 49.794 39.9005 49.794C39.8799 49.794 39.8593 49.794 39.8387 49.794C39.8182 49.794 39.7976 49.794 39.7771 49.794C39.7565 49.794 39.736 49.794 39.7154 49.794C39.6949 49.794 39.6744 49.794 39.6539 49.794C39.6334 49.794 39.6129 49.794 39.5924 49.794C39.5719 49.794 39.5514 49.794 39.531 49.794C39.5105 49.794 39.4901 49.794 39.4696 49.794C39.4492 49.794 39.4288 49.794 39.4083 49.794C39.3879 49.794 39.3675 49.794 39.3471 49.794C39.3267 49.794 39.3064 49.794 39.286 49.794C39.2656 49.794 39.2453 49.794 39.2249 49.794C39.2046 49.794 39.1843 49.794 39.1639 49.794C39.1436 49.794 39.1233 49.794 39.103 49.794C39.0827 49.794 39.0625 49.794 39.0422 49.794C39.0219 49.794 39.0017 49.794 38.9814 49.794C38.9612 49.794 38.941 49.794 38.9207 49.794C38.9005 49.794 38.8803 49.794 38.8601 49.794C38.84 49.794 38.8198 49.794 38.7996 49.794C38.7795 49.794 38.7593 49.794 38.7392 49.794C38.7191 49.794 38.6989 49.794 38.6788 49.794C38.6587 49.794 38.6386 49.794 38.6186 49.794C38.5985 49.794 38.5784 49.794 38.5584 49.794C38.5383 49.794 38.5183 49.794 38.4983 49.794C38.4783 49.794 38.4583 49.794 38.4383 49.794C38.4183 49.794 38.3983 49.794 38.3784 49.794C38.3584 49.794 38.3385 49.794 38.3186 49.794C38.2986 49.794 38.2787 49.794 38.2588 49.794C38.2389 49.794 38.2191 49.794 38.1992 49.794C38.1793 49.794 38.1595 49.794 38.1397 49.794C38.1198 49.794 38.1 49.794 38.0802 49.794C38.0604 49.794 38.0406 49.794 38.0209 49.794C38.0011 49.794 37.9813 49.794 37.9616 49.794C37.9419 49.794 37.9222 49.794 37.9025 49.794C37.8828 49.794 37.8631 49.794 37.8434 49.794C37.8238 49.794 37.8041 49.794 37.7845 49.794C37.7648 49.794 37.7452 49.794 37.7256 49.794C37.706 49.794 37.6865 49.794 37.6669 49.794C37.6473 49.794 37.6278 49.794 37.6083 49.794C37.5887 49.794 37.5692 49.794 37.5497 49.794C37.5302 49.794 37.5108 49.794 37.4913 49.794C37.4719 49.794 37.4524 49.794 37.433 49.794C37.4136 49.794 37.3942 49.794 37.3748 49.794C37.3554 49.794 37.3361 49.794 37.3167 49.794C37.2974 49.794 37.278 49.794 37.2587 49.794C37.2394 49.794 37.2202 49.794 37.2009 49.794C37.1816 49.794 37.1624 49.794 37.1431 49.794C37.1239 49.794 37.1047 49.794 37.0855 49.794C37.0663 49.794 37.0472 49.794 37.028 49.794C37.0089 49.794 36.9897 49.794 36.9706 49.794C36.9515 49.794 36.9324 49.794 36.9133 49.794C36.8943 49.794 36.8752 49.794 36.8562 49.794C36.8372 49.794 36.8181 49.794 36.7992 49.794C36.7802 49.794 36.7612 49.794 36.7423 49.794C36.7233 49.794 36.7044 49.794 36.6855 49.794C36.6666 49.794 36.6477 49.794 36.6288 49.794C36.61 49.794 36.5911 49.794 36.5723 49.794C36.5535 49.794 36.5347 49.794 36.5159 49.794C36.4971 49.794 36.4784 49.794 36.4596 49.794C36.4409 49.794 36.4222 49.794 36.4035 49.794C36.3848 49.794 36.3661 49.794 36.3475 49.794C36.3288 49.794 36.3102 49.794 36.2916 49.794C36.273 49.794 36.2544 49.794 36.2359 49.794C36.2173 49.794 36.1988 49.794 36.1803 49.794C36.1618 49.794 36.1433 49.794 36.1248 49.794C36.1064 49.794 36.0879 49.794 36.0695 49.794C36.0511 49.794 36.0327 49.794 36.0143 49.794C35.9959 49.794 35.9776 49.794 35.9593 49.794C35.9409 49.794 35.9226 49.794 35.9044 49.794C35.8861 49.794 35.8678 49.794 35.8496 49.794C35.8314 49.794 35.8132 49.794 35.795 49.794C35.7768 49.794 35.7586 49.794 35.7405 49.794C35.7224 49.794 35.7043 49.794 35.6862 49.794C35.6681 49.794 35.65 49.794 35.632 49.794C35.614 49.794 35.596 49.794 35.578 49.794C35.56 49.794 35.542 49.794 35.5241 49.794C35.5062 49.794 35.4883 49.794 35.4704 49.794C35.4525 49.794 35.4346 49.794 35.4168 49.794C35.399 49.794 35.3812 49.794 35.3634 49.794C35.3456 49.794 35.3278 49.794 35.3101 49.794C35.2924 49.794 35.2747 49.794 35.257 49.794C35.2393 49.794 35.2217 49.794 35.204 49.794C35.1864 49.794 35.1688 49.794 35.1512 49.794C35.1337 49.794 35.1161 49.794 35.0986 49.794C35.0811 49.794 35.0636 49.794 35.0461 49.794C35.0287 49.794 35.0112 49.794 34.9938 49.794C34.9764 49.794 34.959 49.794 34.9417 49.794C34.9243 49.794 34.907 49.794 34.8897 49.794C34.8724 49.794 34.8551 49.794 34.8379 49.794C34.8206 49.794 34.8034 49.794 34.7862 49.794C34.769 49.794 34.7519 49.794 34.7347 49.794C34.7176 49.794 34.7005 49.794 34.6834 49.794C34.6663 49.794 34.6493 49.794 34.6323 49.794C34.6153 49.794 34.5983 49.794 34.5813 49.794C34.5643 49.794 34.5474 49.794 34.5305 49.794C34.5136 49.794 34.4967 49.794 34.4799 49.794C34.463 49.794 34.4462 49.794 34.4294 49.794C34.4126 49.794 34.3959 49.794 34.3792 49.794C34.3624 49.794 34.3457 49.794 34.3291 49.794C34.3124 49.794 34.2957 49.794 34.2791 49.794C34.2625 49.794 34.246 49.794 34.2294 49.794C34.2129 49.794 34.1963 49.794 34.1798 49.794C34.1634 49.794 34.1469 49.794 34.1305 49.794C34.114 49.794 34.0976 49.794 34.0813 49.794C34.0649 49.794 34.0486 49.794 34.0323 49.794C34.016 49.794 33.9997 49.794 33.9835 49.794C33.9672 49.794 33.951 49.794 33.9348 49.794C33.9186 49.794 33.9025 49.794 33.8864 49.794C33.8703 49.794 33.8542 49.794 33.8381 49.794C33.8221 49.794 33.8061 49.794 33.7901 49.794C33.7741 49.794 33.7581 49.794 33.7422 49.794C33.7263 49.794 33.7104 49.794 33.6945 49.794C33.6787 49.794 33.6628 49.794 33.647 49.794C33.6312 49.794 33.6155 49.794 33.5998 49.794C33.584 49.794 33.5683 49.794 33.5527 49.794C33.537 49.794 33.5214 49.794 33.5058 49.794C33.4902 49.794 33.4746 49.794 33.4591 49.794C33.4435 49.794 33.428 49.794 33.4126 49.794C33.3971 49.794 33.3817 49.794 33.3663 49.794C33.3509 49.794 33.3355 49.794 33.3202 49.794C33.3049 49.794 33.2896 49.794 33.2743 49.794C33.2591 49.794 33.2438 49.794 33.2286 49.794C33.2135 49.794 33.1983 49.794 33.1832 49.794C33.1681 49.794 33.153 49.794 33.1379 49.794C33.1229 49.794 33.1078 49.794 33.0929 49.794C33.0779 49.794 33.0629 49.794 33.048 49.794C33.0331 49.794 33.0182 49.794 33.0034 49.794C32.9885 49.794 32.9737 49.794 32.959 49.794C32.9442 49.794 32.9294 49.794 32.9147 49.794C32.9 49.794 32.8854 49.794 32.8708 49.794C32.8561 49.794 32.8415 49.794 32.827 49.794C32.8124 49.794 32.7979 49.794 32.7834 49.794C32.7689 49.794 32.7545 49.794 32.7401 49.794C32.7257 49.794 32.7113 49.794 32.697 49.794C32.6826 49.794 32.6683 49.794 32.6541 49.794C32.6398 49.794 32.6256 49.794 32.6114 49.794C32.5972 49.794 32.583 49.794 32.5689 49.794V51.4669C32.583 51.4669 32.5972 51.4669 32.6114 51.4669C32.6256 51.4669 32.6398 51.4669 32.6541 51.4669C32.6683 51.4669 32.6826 51.4669 32.697 51.4669C32.7113 51.4669 32.7257 51.4669 32.7401 51.4669C32.7545 51.4669 32.7689 51.4669 32.7834 51.4669C32.7979 51.4669 32.8124 51.4669 32.827 51.4669C32.8415 51.4669 32.8561 51.4669 32.8708 51.4669C32.8854 51.4669 32.9 51.4669 32.9147 51.4669C32.9294 51.4669 32.9442 51.4669 32.959 51.4669C32.9737 51.4669 32.9885 51.4669 33.0034 51.4669C33.0182 51.4669 33.0331 51.4669 33.048 51.4669C33.0629 51.4669 33.0779 51.4669 33.0929 51.4669C33.1078 51.4669 33.1229 51.4669 33.1379 51.4669C33.153 51.4669 33.1681 51.4669 33.1832 51.4669C33.1983 51.4669 33.2135 51.4669 33.2286 51.4669C33.2438 51.4669 33.2591 51.4669 33.2743 51.4669C33.2896 51.4669 33.3049 51.4669 33.3202 51.4669C33.3355 51.4669 33.3509 51.4669 33.3663 51.4669C33.3817 51.4669 33.3971 51.4669 33.4126 51.4669C33.428 51.4669 33.4435 51.4669 33.4591 51.4669C33.4746 51.4669 33.4902 51.4669 33.5058 51.4669C33.5214 51.4669 33.537 51.4669 33.5527 51.4669C33.5683 51.4669 33.584 51.4669 33.5998 51.4669C33.6155 51.4669 33.6312 51.4669 33.647 51.4669C33.6628 51.4669 33.6787 51.4669 33.6945 51.4669C33.7104 51.4669 33.7263 51.4669 33.7422 51.4669C33.7581 51.4669 33.7741 51.4669 33.7901 51.4669C33.8061 51.4669 33.8221 51.4669 33.8381 51.4669C33.8542 51.4669 33.8703 51.4669 33.8864 51.4669C33.9025 51.4669 33.9186 51.4669 33.9348 51.4669C33.951 51.4669 33.9672 51.4669 33.9835 51.4669C33.9997 51.4669 34.016 51.4669 34.0323 51.4669C34.0486 51.4669 34.0649 51.4669 34.0813 51.4669C34.0976 51.4669 34.114 51.4669 34.1305 51.4669C34.1469 51.4669 34.1634 51.4669 34.1798 51.4669C34.1963 51.4669 34.2129 51.4669 34.2294 51.4669C34.246 51.4669 34.2625 51.4669 34.2791 51.4669C34.2957 51.4669 34.3124 51.4669 34.3291 51.4669C34.3457 51.4669 34.3624 51.4669 34.3792 51.4669C34.3959 51.4669 34.4126 51.4669 34.4294 51.4669C34.4462 51.4669 34.463 51.4669 34.4799 51.4669C34.4967 51.4669 34.5136 51.4669 34.5305 51.4669C34.5474 51.4669 34.5643 51.4669 34.5813 51.4669C34.5983 51.4669 34.6153 51.4669 34.6323 51.4669C34.6493 51.4669 34.6663 51.4669 34.6834 51.4669C34.7005 51.4669 34.7176 51.4669 34.7347 51.4669C34.7519 51.4669 34.769 51.4669 34.7862 51.4669C34.8034 51.4669 34.8206 51.4669 34.8379 51.4669C34.8551 51.4669 34.8724 51.4669 34.8897 51.4669C34.907 51.4669 34.9243 51.4669 34.9417 51.4669C34.959 51.4669 34.9764 51.4669 34.9938 51.4669C35.0112 51.4669 35.0287 51.4669 35.0461 51.4669C35.0636 51.4669 35.0811 51.4669 35.0986 51.4669C35.1161 51.4669 35.1337 51.4669 35.1512 51.4669C35.1688 51.4669 35.1864 51.4669 35.204 51.4669C35.2217 51.4669 35.2393 51.4669 35.257 51.4669C35.2747 51.4669 35.2924 51.4669 35.3101 51.4669C35.3278 51.4669 35.3456 51.4669 35.3634 51.4669C35.3812 51.4669 35.399 51.4669 35.4168 51.4669C35.4346 51.4669 35.4525 51.4669 35.4704 51.4669C35.4883 51.4669 35.5062 51.4669 35.5241 51.4669C35.542 51.4669 35.56 51.4669 35.578 51.4669C35.596 51.4669 35.614 51.4669 35.632 51.4669C35.65 51.4669 35.6681 51.4669 35.6862 51.4669C35.7043 51.4669 35.7224 51.4669 35.7405 51.4669C35.7586 51.4669 35.7768 51.4669 35.795 51.4669C35.8132 51.4669 35.8314 51.4669 35.8496 51.4669C35.8678 51.4669 35.8861 51.4669 35.9044 51.4669C35.9226 51.4669 35.9409 51.4669 35.9593 51.4669C35.9776 51.4669 35.9959 51.4669 36.0143 51.4669C36.0327 51.4669 36.0511 51.4669 36.0695 51.4669C36.0879 51.4669 36.1064 51.4669 36.1248 51.4669C36.1433 51.4669 36.1618 51.4669 36.1803 51.4669C36.1988 51.4669 36.2173 51.4669 36.2359 51.4669C36.2544 51.4669 36.273 51.4669 36.2916 51.4669C36.3102 51.4669 36.3288 51.4669 36.3475 51.4669C36.3661 51.4669 36.3848 51.4669 36.4035 51.4669C36.4222 51.4669 36.4409 51.4669 36.4596 51.4669C36.4784 51.4669 36.4971 51.4669 36.5159 51.4669C36.5347 51.4669 36.5535 51.4669 36.5723 51.4669C36.5911 51.4669 36.61 51.4669 36.6288 51.4669C36.6477 51.4669 36.6666 51.4669 36.6855 51.4669C36.7044 51.4669 36.7233 51.4669 36.7423 51.4669C36.7612 51.4669 36.7802 51.4669 36.7992 51.4669C36.8181 51.4669 36.8372 51.4669 36.8562 51.4669C36.8752 51.4669 36.8943 51.4669 36.9133 51.4669C36.9324 51.4669 36.9515 51.4669 36.9706 51.4669C36.9897 51.4669 37.0089 51.4669 37.028 51.4669C37.0472 51.4669 37.0663 51.4669 37.0855 51.4669C37.1047 51.4669 37.1239 51.4669 37.1431 51.4669C37.1624 51.4669 37.1816 51.4669 37.2009 51.4669C37.2202 51.4669 37.2394 51.4669 37.2587 51.4669C37.278 51.4669 37.2974 51.4669 37.3167 51.4669C37.3361 51.4669 37.3554 51.4669 37.3748 51.4669C37.3942 51.4669 37.4136 51.4669 37.433 51.4669C37.4524 51.4669 37.4719 51.4669 37.4913 51.4669C37.5108 51.4669 37.5302 51.4669 37.5497 51.4669C37.5692 51.4669 37.5887 51.4669 37.6083 51.4669C37.6278 51.4669 37.6473 51.4669 37.6669 51.4669C37.6865 51.4669 37.706 51.4669 37.7256 51.4669C37.7452 51.4669 37.7648 51.4669 37.7845 51.4669C37.8041 51.4669 37.8238 51.4669 37.8434 51.4669C37.8631 51.4669 37.8828 51.4669 37.9025 51.4669C37.9222 51.4669 37.9419 51.4669 37.9616 51.4669C37.9813 51.4669 38.0011 51.4669 38.0209 51.4669C38.0406 51.4669 38.0604 51.4669 38.0802 51.4669C38.1 51.4669 38.1198 51.4669 38.1397 51.4669C38.1595 51.4669 38.1793 51.4669 38.1992 51.4669C38.2191 51.4669 38.2389 51.4669 38.2588 51.4669C38.2787 51.4669 38.2986 51.4669 38.3186 51.4669C38.3385 51.4669 38.3584 51.4669 38.3784 51.4669C38.3983 51.4669 38.4183 51.4669 38.4383 51.4669C38.4583 51.4669 38.4783 51.4669 38.4983 51.4669C38.5183 51.4669 38.5383 51.4669 38.5584 51.4669C38.5784 51.4669 38.5985 51.4669 38.6186 51.4669C38.6386 51.4669 38.6587 51.4669 38.6788 51.4669C38.6989 51.4669 38.7191 51.4669 38.7392 51.4669C38.7593 51.4669 38.7795 51.4669 38.7996 51.4669C38.8198 51.4669 38.84 51.4669 38.8601 51.4669C38.8803 51.4669 38.9005 51.4669 38.9207 51.4669C38.941 51.4669 38.9612 51.4669 38.9814 51.4669C39.0017 51.4669 39.0219 51.4669 39.0422 51.4669C39.0625 51.4669 39.0827 51.4669 39.103 51.4669C39.1233 51.4669 39.1436 51.4669 39.1639 51.4669C39.1843 51.4669 39.2046 51.4669 39.2249 51.4669C39.2453 51.4669 39.2656 51.4669 39.286 51.4669C39.3064 51.4669 39.3267 51.4669 39.3471 51.4669C39.3675 51.4669 39.3879 51.4669 39.4083 51.4669C39.4288 51.4669 39.4492 51.4669 39.4696 51.4669C39.4901 51.4669 39.5105 51.4669 39.531 51.4669C39.5514 51.4669 39.5719 51.4669 39.5924 51.4669C39.6129 51.4669 39.6334 51.4669 39.6539 51.4669C39.6744 51.4669 39.6949 51.4669 39.7154 51.4669C39.736 51.4669 39.7565 51.4669 39.7771 51.4669C39.7976 51.4669 39.8182 51.4669 39.8387 51.4669C39.8593 51.4669 39.8799 51.4669 39.9005 51.4669C39.9211 51.4669 39.9417 51.4669 39.9623 51.4669C39.9829 51.4669 40.0035 51.4669 40.0242 51.4669C40.0448 51.4669 40.0654 51.4669 40.0861 51.4669C40.1067 51.4669 40.1274 51.4669 40.1481 51.4669C40.1687 51.4669 40.1894 51.4669 40.2101 51.4669C40.2308 51.4669 40.2515 51.4669 40.2722 51.4669C40.2929 51.4669 40.3136 51.4669 40.3343 51.4669C40.3551 51.4669 40.3758 51.4669 40.3965 51.4669C40.4173 51.4669 40.438 51.4669 40.4588 51.4669C40.4796 51.4669 40.5003 51.4669 40.5211 51.4669C40.5419 51.4669 40.5627 51.4669 40.5835 51.4669C40.6042 51.4669 40.625 51.4669 40.6459 51.4669C40.6667 51.4669 40.6875 51.4669 40.7083 51.4669C40.7291 51.4669 40.75 51.4669 40.7708 51.4669C40.7916 51.4669 40.8125 51.4669 40.8333 51.4669C40.8542 51.4669 40.875 51.4669 40.8959 51.4669C40.9168 51.4669 40.9377 51.4669 40.9585 51.4669C40.9794 51.4669 41.0003 51.4669 41.0212 51.4669C41.0421 51.4669 41.063 51.4669 41.0839 51.4669C41.1048 51.4669 41.1257 51.4669 41.1466 51.4669C41.1676 51.4669 41.1885 51.4669 41.2094 51.4669C41.2304 51.4669 41.2513 51.4669 41.2722 51.4669C41.2932 51.4669 41.3141 51.4669 41.3351 51.4669C41.356 51.4669 41.377 51.4669 41.398 51.4669C41.4189 51.4669 41.4399 51.4669 41.4609 51.4669C41.4819 51.4669 41.5028 51.4669 41.5238 51.4669C41.5448 51.4669 41.5658 51.4669 41.5868 51.4669C41.6078 51.4669 41.6288 51.4669 41.6498 51.4669C41.6708 51.4669 41.6918 51.4669 41.7129 51.4669C41.7339 51.4669 41.7549 51.4669 41.7759 51.4669C41.7969 51.4669 41.818 51.4669 41.839 51.4669C41.86 51.4669 41.8811 51.4669 41.9021 51.4669C41.9232 51.4669 41.9442 51.4669 41.9652 51.4669C41.9863 51.4669 42.0073 51.4669 42.0284 51.4669C42.0495 51.4669 42.0705 51.4669 42.0916 51.4669C42.1126 51.4669 42.1337 51.4669 42.1548 51.4669C42.1758 51.4669 42.1969 51.4669 42.218 51.4669C42.2391 51.4669 42.2601 51.4669 42.2812 51.4669C42.3023 51.4669 42.3234 51.4669 42.3445 51.4669C42.3655 51.4669 42.3866 51.4669 42.4077 51.4669C42.4288 51.4669 42.4499 51.4669 42.471 51.4669C42.4921 51.4669 42.5132 51.4669 42.5343 51.4669C42.5554 51.4669 42.5765 51.4669 42.5976 51.4669C42.6187 51.4669 42.6398 51.4669 42.6609 51.4669C42.682 51.4669 42.7031 51.4669 42.7242 51.4669C42.7453 51.4669 42.7664 51.4669 42.7875 51.4669C42.8086 51.4669 42.8297 51.4669 42.8508 51.4669C42.872 51.4669 42.8931 51.4669 42.9142 51.4669C42.9353 51.4669 42.9564 51.4669 42.9775 51.4669C42.9986 51.4669 43.0197 51.4669 43.0408 51.4669C43.062 51.4669 43.0831 51.4669 43.1042 51.4669C43.1253 51.4669 43.1464 51.4669 43.1675 51.4669C43.1886 51.4669 43.2098 51.4669 43.2309 51.4669C43.252 51.4669 43.2731 51.4669 43.2942 51.4669C43.3153 51.4669 43.3364 51.4669 43.3575 51.4669C43.3786 51.4669 43.3998 51.4669 43.4209 51.4669C43.442 51.4669 43.4631 51.4669 43.4842 51.4669C43.5053 51.4669 43.5264 51.4669 43.5475 51.4669C43.5686 51.4669 43.5897 51.4669 43.6108 51.4669C43.6319 51.4669 43.653 51.4669 43.6741 51.4669C43.6952 51.4669 43.7163 51.4669 43.7374 51.4669C43.7585 51.4669 43.7796 51.4669 43.8007 51.4669C43.8218 51.4669 43.8428 51.4669 43.8639 51.4669C43.885 51.4669 43.9061 51.4669 43.9272 51.4669C43.9483 51.4669 43.9693 51.4669 43.9904 51.4669C44.0115 51.4669 44.0326 51.4669 44.0536 51.4669C44.0747 51.4669 44.0958 51.4669 44.1168 51.4669C44.1379 51.4669 44.1589 51.4669 44.18 51.4669C44.2011 51.4669 44.2221 51.4669 44.2432 51.4669C44.2642 51.4669 44.2853 51.4669 44.3063 51.4669C44.3273 51.4669 44.3484 51.4669 44.3694 51.4669C44.3904 51.4669 44.4115 51.4669 44.4325 51.4669C44.4535 51.4669 44.4745 51.4669 44.4956 51.4669C44.5166 51.4669 44.5376 51.4669 44.5586 51.4669C44.5796 51.4669 44.6006 51.4669 44.6216 51.4669C44.6426 51.4669 44.6636 51.4669 44.6846 51.4669C44.7056 51.4669 44.7266 51.4669 44.7475 51.4669C44.7685 51.4669 44.7895 51.4669 44.8105 51.4669C44.8314 51.4669 44.8524 51.4669 44.8734 51.4669C44.8943 51.4669 44.9153 51.4669 44.9362 51.4669C44.9572 51.4669 44.9781 51.4669 44.999 51.4669C45.02 51.4669 45.0409 51.4669 45.0618 51.4669C45.0827 51.4669 45.1037 51.4669 45.1246 51.4669C45.1455 51.4669 45.1664 51.4669 45.1873 51.4669C45.2082 51.4669 45.2291 51.4669 45.2499 51.4669C45.2708 51.4669 45.2917 51.4669 45.3126 51.4669C45.3334 51.4669 45.3543 51.4669 45.3752 51.4669C45.396 51.4669 45.4169 51.4669 45.4377 51.4669C45.4585 51.4669 45.4794 51.4669 45.5002 51.4669C45.521 51.4669 45.5419 51.4669 45.5627 51.4669C45.5835 51.4669 45.6043 51.4669 45.6251 51.4669C45.6459 51.4669 45.6667 51.4669 45.6874 51.4669C45.7082 51.4669 45.729 51.4669 45.7497 51.4669C45.7705 51.4669 45.7913 51.4669 45.812 51.4669C45.8327 51.4669 45.8535 51.4669 45.8742 51.4669C45.8949 51.4669 45.9157 51.4669 45.9364 51.4669C45.9571 51.4669 45.9778 51.4669 45.9985 51.4669C46.0192 51.4669 46.0398 51.4669 46.0605 51.4669C46.0812 51.4669 46.1019 51.4669 46.1225 51.4669C46.1432 51.4669 46.1638 51.4669 46.1844 51.4669C46.2051 51.4669 46.2257 51.4669 46.2463 51.4669C46.2669 51.4669 46.2875 51.4669 46.3081 51.4669C46.3287 51.4669 46.3493 51.4669 46.3699 51.4669C46.3905 51.4669 46.411 51.4669 46.4316 51.4669C46.4521 51.4669 46.4727 51.4669 46.4932 51.4669C46.5137 51.4669 46.5343 51.4669 46.5548 51.4669C46.5753 51.4669 46.5958 51.4669 46.6163 51.4669C46.6368 51.4669 46.6572 51.4669 46.6777 51.4669C46.6982 51.4669 46.7186 51.4669 46.7391 51.4669C46.7595 51.4669 46.7799 51.4669 46.8003 51.4669C46.8208 51.4669 46.8412 51.4669 46.8616 51.4669C46.882 51.4669 46.9023 51.4669 46.9227 51.4669C46.9431 51.4669 46.9634 51.4669 46.9838 51.4669C47.0041 51.4669 47.0245 51.4669 47.0448 51.4669C47.0651 51.4669 47.0854 51.4669 47.1057 51.4669C47.126 51.4669 47.1463 51.4669 47.1666 51.4669C47.1868 51.4669 47.2071 51.4669 47.2273 51.4669C47.2476 51.4669 47.2678 51.4669 47.288 51.4669C47.3083 51.4669 47.3285 51.4669 47.3487 51.4669C47.3688 51.4669 47.389 51.4669 47.4092 51.4669C47.4293 51.4669 47.4495 51.4669 47.4696 51.4669C47.4898 51.4669 47.5099 51.4669 47.53 51.4669C47.5501 51.4669 47.5702 51.4669 47.5903 51.4669C47.6104 51.4669 47.6304 51.4669 47.6505 51.4669C47.6705 51.4669 47.6906 51.4669 47.7106 51.4669C47.7306 51.4669 47.7506 51.4669 47.7706 51.4669C47.7906 51.4669 47.8106 51.4669 47.8305 51.4669C47.8505 51.4669 47.8704 51.4669 47.8904 51.4669C47.9103 51.4669 47.9302 51.4669 47.9501 51.4669C47.97 51.4669 47.9899 51.4669 48.0098 51.4669C48.0296 51.4669 48.0495 51.4669 48.0693 51.4669C48.0891 51.4669 48.109 51.4669 48.1288 51.4669C48.1486 51.4669 48.1684 51.4669 48.1881 51.4669C48.2079 51.4669 48.2277 51.4669 48.2474 51.4669C48.2671 51.4669 48.2869 51.4669 48.3066 51.4669C48.3263 51.4669 48.346 51.4669 48.3656 51.4669C48.3853 51.4669 48.4049 51.4669 48.4246 51.4669C48.4442 51.4669 48.4638 51.4669 48.4834 51.4669C48.503 51.4669 48.5226 51.4669 48.5422 51.4669C48.5618 51.4669 48.5813 51.4669 48.6008 51.4669C48.6204 51.4669 48.6399 51.4669 48.6594 51.4669C48.6789 51.4669 48.6984 51.4669 48.7178 51.4669C48.7373 51.4669 48.7567 51.4669 48.7762 51.4669C48.7956 51.4669 48.815 51.4669 48.8344 51.4669C48.8538 51.4669 48.8731 51.4669 48.8925 51.4669C48.9118 51.4669 48.9312 51.4669 48.9505 51.4669C48.9698 51.4669 48.9891 51.4669 49.0083 51.4669C49.0276 51.4669 49.0469 51.4669 49.0661 51.4669C49.0853 51.4669 49.1046 51.4669 49.1237 51.4669C49.1429 51.4669 49.1621 51.4669 49.1813 51.4669C49.2004 51.4669 49.2196 51.4669 49.2387 51.4669C49.2578 51.4669 49.2769 51.4669 49.296 51.4669C49.3151 51.4669 49.3341 51.4669 49.3531 51.4669C49.3722 51.4669 49.3912 51.4669 49.4102 51.4669C49.4292 51.4669 49.4482 51.4669 49.4671 51.4669C49.4861 51.4669 49.505 51.4669 49.5239 51.4669C49.5428 51.4669 49.5617 51.4669 49.5806 51.4669C49.5995 51.4669 49.6183 51.4669 49.6371 51.4669C49.656 51.4669 49.6748 51.4669 49.6935 51.4669C49.7123 51.4669 49.7311 51.4669 49.7498 51.4669C49.7686 51.4669 49.7873 51.4669 49.806 51.4669C49.8247 51.4669 49.8434 51.4669 49.862 51.4669C49.8807 51.4669 49.8993 51.4669 49.9179 51.4669C49.9365 51.4669 49.9551 51.4669 49.9737 51.4669C49.9922 51.4669 50.0108 51.4669 50.0293 51.4669C50.0478 51.4669 50.0663 51.4669 50.0848 51.4669C50.1032 51.4669 50.1217 51.4669 50.1401 51.4669C50.1585 51.4669 50.1769 51.4669 50.1953 51.4669C50.2137 51.4669 50.2321 51.4669 50.2504 51.4669C50.2687 51.4669 50.287 51.4669 50.3053 51.4669C50.3236 51.4669 50.3419 51.4669 50.3601 51.4669C50.3783 51.4669 50.3966 51.4669 50.4147 51.4669C50.4329 51.4669 50.4511 51.4669 50.4692 51.4669C50.4874 51.4669 50.5055 51.4669 50.5236 51.4669C50.5417 51.4669 50.5597 51.4669 50.5778 51.4669C50.5958 51.4669 50.6138 51.4669 50.6318 51.4669C50.6498 51.4669 50.6678 51.4669 50.6857 51.4669C50.7037 51.4669 50.7216 51.4669 50.7395 51.4669C50.7574 51.4669 50.7753 51.4669 50.7931 51.4669C50.8109 51.4669 50.8287 51.4669 50.8465 51.4669C50.8643 51.4669 50.8821 51.4669 50.8998 51.4669C50.9176 51.4669 50.9353 51.4669 50.953 51.4669C50.9706 51.4669 50.9883 51.4669 51.0059 51.4669C51.0236 51.4669 51.0412 51.4669 51.0588 51.4669C51.0763 51.4669 51.0939 51.4669 51.1114 51.4669C51.1289 51.4669 51.1464 51.4669 51.1639 51.4669C51.1814 51.4669 51.1988 51.4669 51.2163 51.4669C51.2337 51.4669 51.2511 51.4669 51.2684 51.4669C51.2858 51.4669 51.3031 51.4669 51.3204 51.4669C51.3378 51.4669 51.355 51.4669 51.3723 51.4669C51.3895 51.4669 51.4068 51.4669 51.424 51.4669C51.4412 51.4669 51.4583 51.4669 51.4755 51.4669C51.4926 51.4669 51.5097 51.4669 51.5268 51.4669C51.5439 51.4669 51.561 51.4669 51.578 51.4669C51.595 51.4669 51.612 51.4669 51.629 51.4669C51.646 51.4669 51.6629 51.4669 51.6798 51.4669C51.6967 51.4669 51.7136 51.4669 51.7305 51.4669C51.7473 51.4669 51.7641 51.4669 51.7809 51.4669C51.7977 51.4669 51.8145 51.4669 51.8312 51.4669C51.848 51.4669 51.8647 51.4669 51.8814 51.4669C51.898 51.4669 51.9147 51.4669 51.9313 51.4669C51.9479 51.4669 51.9645 51.4669 51.9811 51.4669C51.9976 51.4669 52.0142 51.4669 52.0307 51.4669C52.0472 51.4669 52.0636 51.4669 52.0801 51.4669C52.0965 51.4669 52.1129 51.4669 52.1293 51.4669C52.1457 51.4669 52.162 51.4669 52.1783 51.4669C52.1946 51.4669 52.2109 51.4669 52.2272 51.4669C52.2434 51.4669 52.2596 51.4669 52.2758 51.4669C52.292 51.4669 52.3082 51.4669 52.3243 51.4669C52.3404 51.4669 52.3565 51.4669 52.3726 51.4669C52.3886 51.4669 52.4047 51.4669 52.4207 51.4669C52.4367 51.4669 52.4526 51.4669 52.4686 51.4669C52.4845 51.4669 52.5004 51.4669 52.5163 51.4669C52.5321 51.4669 52.548 51.4669 52.5638 51.4669C52.5796 51.4669 52.5954 51.4669 52.6111 51.4669C52.6268 51.4669 52.6425 51.4669 52.6582 51.4669C52.6739 51.4669 52.6895 51.4669 52.7051 51.4669C52.7208 51.4669 52.7363 51.4669 52.7519 51.4669C52.7674 51.4669 52.7829 51.4669 52.7984 51.4669C52.8139 51.4669 52.8293 51.4669 52.8447 51.4669C52.8601 51.4669 52.8755 51.4669 52.8908 51.4669C52.9062 51.4669 52.9215 51.4669 52.9367 51.4669C52.952 51.4669 52.9673 51.4669 52.9825 51.4669C52.9977 51.4669 53.0128 51.4669 53.028 51.4669C53.0431 51.4669 53.0582 51.4669 53.0733 51.4669C53.0883 51.4669 53.1034 51.4669 53.1183 51.4669C53.1333 51.4669 53.1483 51.4669 53.1632 51.4669C53.1781 51.4669 53.193 51.4669 53.2079 51.4669C53.2227 51.4669 53.2376 51.4669 53.2523 51.4669C53.2671 51.4669 53.2819 51.4669 53.2966 51.4669C53.3113 51.4669 53.326 51.4669 53.3406 51.4669C53.3553 51.4669 53.3699 51.4669 53.3844 51.4669C53.399 51.4669 53.4135 51.4669 53.428 51.4669C53.4425 51.4669 53.457 51.4669 53.4714 51.4669C53.4858 51.4669 53.5002 51.4669 53.5145 51.4669C53.5289 51.4669 53.5432 51.4669 53.5575 51.4669C53.5718 51.4669 53.586 51.4669 53.6002 51.4669C53.6144 51.4669 53.6286 51.4669 53.6427 51.4669C53.6568 51.4669 53.6709 51.4669 53.6849 51.4669C53.699 51.4669 53.713 51.4669 53.727 51.4669C53.741 51.4669 53.7549 51.4669 53.7688 51.4669C53.7827 51.4669 53.7966 51.4669 53.8104 51.4669C53.8242 51.4669 53.838 51.4669 53.8517 51.4669C53.8655 51.4669 53.8792 51.4669 53.8929 51.4669C53.9065 51.4669 53.9202 51.4669 53.9338 51.4669C53.9474 51.4669 53.9609 51.4669 53.9744 51.4669C53.9879 51.4669 54.0014 51.4669 54.0149 51.4669C54.0283 51.4669 54.0417 51.4669 54.055 51.4669C54.0684 51.4669 54.0817 51.4669 54.095 51.4669C54.1083 51.4669 54.1215 51.4669 54.1347 51.4669C54.1479 51.4669 54.1611 51.4669 54.1742 51.4669C54.1873 51.4669 54.2004 51.4669 54.2134 51.4669C54.2265 51.4669 54.2395 51.4669 54.2524 51.4669C54.2654 51.4669 54.2783 51.4669 54.2912 51.4669C54.3041 51.4669 54.3169 51.4669 54.3297 51.4669C54.3425 51.4669 54.3553 51.4669 54.368 51.4669C54.3807 51.4669 54.3934 51.4669 54.406 51.4669C54.4186 51.4669 54.4312 51.4669 54.4438 51.4669C54.4563 51.4669 54.4688 51.4669 54.4813 51.4669C54.4938 51.4669 54.5062 51.4669 54.5186 51.4669C54.531 51.4669 54.5433 51.4669 54.5556 51.4669C54.5679 51.4669 54.5802 51.4669 54.5924 51.4669C54.6046 51.4669 54.6168 51.4669 54.6289 51.4669C54.641 51.4669 54.6531 51.4669 54.6652 51.4669C54.6772 51.4669 54.6892 51.4669 54.7012 51.4669C54.7132 51.4669 54.7251 51.4669 54.7369 51.4669C54.7488 51.4669 54.7607 51.4669 54.7724 51.4669C54.7842 51.4669 54.796 51.4669 54.8077 51.4669C54.8194 51.4669 54.831 51.4669 54.8427 51.4669C54.8543 51.4669 54.8658 51.4669 54.8774 51.4669C54.8889 51.4669 54.9004 51.4669 54.9118 51.4669C54.9233 51.4669 54.9347 51.4669 54.946 51.4669C54.9574 51.4669 54.9687 51.4669 54.9799 51.4669C54.9912 51.4669 55.0024 51.4669 55.0136 51.4669C55.0248 51.4669 55.0359 51.4669 55.047 51.4669C55.0581 51.4669 55.0691 51.4669 55.0801 51.4669C55.0911 51.4669 55.1021 51.4669 55.113 51.4669C55.1239 51.4669 55.1347 51.4669 55.1456 51.4669C55.1564 51.4669 55.1671 51.4669 55.1779 51.4669C55.1886 51.4669 55.1993 51.4669 55.2099 51.4669C55.2205 51.4669 55.2311 51.4669 55.2417 51.4669C55.2522 51.4669 55.2627 51.4669 55.2731 51.4669C55.2836 51.4669 55.294 51.4669 55.3044 51.4669C55.3147 51.4669 55.325 51.4669 55.3353 51.4669C55.3456 51.4669 55.3558 51.4669 55.3659 51.4669C55.3761 51.4669 55.3862 51.4669 55.3963 51.4669C55.4064 51.4669 55.4164 51.4669 55.4264 51.4669C55.4364 51.4669 55.4463 51.4669 55.4562 51.4669C55.4661 51.4669 55.4759 51.4669 55.4857 51.4669C55.4955 51.4669 55.5053 51.4669 55.515 51.4669C55.5247 51.4669 55.5343 51.4669 55.5439 51.4669C55.5535 51.4669 55.5631 51.4669 55.5726 51.4669C55.5821 51.4669 55.5915 51.4669 55.6009 51.4669C55.6103 51.4669 55.6197 51.4669 55.629 51.4669C55.6383 51.4669 55.6476 51.4669 55.6568 51.4669C55.666 51.4669 55.6752 51.4669 55.6843 51.4669C55.6934 51.4669 55.7025 51.4669 55.7115 51.4669C55.7205 51.4669 55.7295 51.4669 55.7384 51.4669C55.7473 51.4669 55.7562 51.4669 55.765 51.4669C55.7739 51.4669 55.7826 51.4669 55.7913 51.4669C55.8001 51.4669 55.8087 51.4669 55.8174 51.4669C55.826 51.4669 55.8346 51.4669 55.8431 51.4669C55.8516 51.4669 55.8601 51.4669 55.8685 51.4669C55.8769 51.4669 55.8853 51.4669 55.8936 51.4669C55.9019 51.4669 55.9102 51.4669 55.9184 51.4669C55.9266 51.4669 55.9348 51.4669 55.9429 51.4669C55.951 51.4669 55.9591 51.4669 55.9671 51.4669C55.9751 51.4669 55.9831 51.4669 55.991 51.4669C55.9989 51.4669 56.0068 51.4669 56.0146 51.4669C56.0224 51.4669 56.0302 51.4669 56.0379 51.4669C56.0456 51.4669 56.0532 51.4669 56.0608 51.4669C56.0684 51.4669 56.076 51.4669 56.0835 51.4669C56.091 51.4669 56.0984 51.4669 56.1058 51.4669C56.1132 51.4669 56.1206 51.4669 56.1278 51.4669C56.1351 51.4669 56.1424 51.4669 56.1496 51.4669C56.1567 51.4669 56.1639 51.4669 56.1709 51.4669C56.178 51.4669 56.185 51.4669 56.192 51.4669C56.199 51.4669 56.2059 51.4669 56.2128 51.4669C56.2196 51.4669 56.2264 51.4669 56.2332 51.4669C56.24 51.4669 56.2467 51.4669 56.2533 51.4669C56.26 51.4669 56.2666 51.4669 56.2731 51.4669C56.2797 51.4669 56.2861 51.4669 56.2926 51.4669C56.299 51.4669 56.3054 51.4669 56.3117 51.4669C56.318 51.4669 56.3243 51.4669 56.3305 51.4669C56.3368 51.4669 56.3429 51.4669 56.349 51.4669C56.3551 51.4669 56.3612 51.4669 56.3672 51.4669C56.3732 51.4669 56.3791 51.4669 56.385 51.4669C56.3909 51.4669 56.3967 51.4669 56.4025 51.4669C56.4083 51.4669 56.414 51.4669 56.4197 51.4669C56.4253 51.4669 56.4309 51.4669 56.4365 51.4669C56.4421 51.4669 56.4476 51.4669 56.453 51.4669C56.4584 51.4669 56.4638 51.4669 56.4692 51.4669C56.4745 51.4669 56.4798 51.4669 56.485 51.4669C56.4902 51.4669 56.4954 51.4669 56.5005 51.4669C56.5056 51.4669 56.5106 51.4669 56.5156 51.4669C56.5206 51.4669 56.5255 51.4669 56.5304 51.4669C56.5353 51.4669 56.5401 51.4669 56.5449 51.4669C56.5497 51.4669 56.5544 51.4669 56.559 51.4669C56.5637 51.4669 56.5683 51.4669 56.5728 51.4669C56.5773 51.4669 56.5818 51.4669 56.5862 51.4669C56.5906 51.4669 56.595 51.4669 56.5993 51.4669C56.6036 51.4669 56.6079 51.4669 56.612 51.4669C56.6162 51.4669 56.6204 51.4669 56.6244 51.4669C56.6285 51.4669 56.6325 51.4669 56.6365 51.4669C56.6404 51.4669 56.6443 51.4669 56.6481 51.4669C56.652 51.4669 56.6558 51.4669 56.6595 51.4669C56.6632 51.4669 56.6669 51.4669 56.6705 51.4669C56.6741 51.4669 56.6776 51.4669 56.6811 51.4669C56.6846 51.4669 56.688 51.4669 56.6914 51.4669C56.6947 51.4669 56.698 51.4669 56.7013 51.4669C56.7045 51.4669 56.7077 51.4669 56.7108 51.4669C56.7139 51.4669 56.717 51.4669 56.72 51.4669C56.723 51.4669 56.726 51.4669 56.7288 51.4669C56.7317 51.4669 56.7345 51.4669 56.7373 51.4669C56.7401 51.4669 56.7428 51.4669 56.7454 51.4669C56.7481 51.4669 56.7506 51.4669 56.7532 51.4669C56.7557 51.4669 56.7581 51.4669 56.7605 51.4669C56.7629 51.4669 56.7653 51.4669 56.7675 51.4669C56.7698 51.4669 56.772 51.4669 56.7742 51.4669C56.7763 51.4669 56.7784 51.4669 56.7804 51.4669C56.7825 51.4669 56.7844 51.4669 56.7863 51.4669C56.7882 51.4669 56.7901 51.4669 56.7919 51.4669C56.7936 51.4669 56.7954 51.4669 56.797 51.4669C56.7987 51.4669 56.8003 51.4669 56.8018 51.4669C56.8033 51.4669 56.8048 51.4669 56.8062 51.4669C56.8076 51.4669 56.809 51.4669 56.8102 51.4669C56.8115 51.4669 56.8127 51.4669 56.8139 51.4669C56.815 51.4669 56.8161 51.4669 56.8172 51.4669C56.8182 51.4669 56.8191 51.4669 56.82 51.4669C56.8209 51.4669 56.8218 51.4669 56.8226 51.4669C56.8233 51.4669 56.824 51.4669 56.8247 51.4669C56.8253 51.4669 56.8259 51.4669 56.8264 51.4669C56.8269 51.4669 56.8274 51.4669 56.8278 51.4669C56.8282 51.4669 56.8285 51.4669 56.8288 51.4669C56.829 51.4669 56.8292 51.4669 56.8293 51.4669C56.8295 51.4669 56.8295 51.4669 56.8295 50.6305ZM32.5689 49.794C29.4619 49.794 27.3077 51.8412 25.9884 53.7028C25.3194 54.6466 24.8333 55.5849 24.5147 56.2844C24.3549 56.6354 24.2359 56.9292 24.1561 57.1376C24.1162 57.2418 24.086 57.3249 24.0653 57.3833C24.0549 57.4125 24.047 57.4355 24.0414 57.452C24.0386 57.4602 24.0363 57.4668 24.0347 57.4716C24.0339 57.4741 24.0332 57.4761 24.0327 57.4777C24.0324 57.4785 24.0322 57.4791 24.032 57.4797C24.0319 57.48 24.0318 57.4804 24.0318 57.4805C24.0317 57.4808 24.0316 57.4811 24.8262 57.7424C25.6208 58.0036 25.6207 58.0038 25.6206 58.004C25.6206 58.0041 25.6206 58.0043 25.6205 58.0043C25.6205 58.0045 25.6205 58.0045 25.6205 58.0044C25.6205 58.0043 25.6207 58.0037 25.6211 58.0027C25.6217 58.0008 25.6229 57.9972 25.6247 57.9919C25.6283 57.9815 25.6341 57.9646 25.6422 57.9417C25.6584 57.8959 25.6837 57.8262 25.7183 57.736C25.7875 57.5554 25.8933 57.2936 26.0372 56.9778C26.3259 56.3438 26.7621 55.5042 27.3532 54.6701C28.5541 52.9757 30.2713 51.4669 32.5689 51.4669V49.794ZM25.6626 57.7424V29.2949H23.9897V57.7424H25.6626ZM24.8262 30.1314H56.8295V28.4585H24.8262V30.1314ZM55.9931 29.2949V50.6305H57.666V29.2949H55.9931Z" fill="#0AA5FF"/>
<path d="M47.6988 37.6266L49.6527 38.45L50.4621 40.4378L49.6527 42.4256L47.6988 43.2489L45.7449 42.4256L44.9355 40.4378L45.7449 38.45L47.6988 37.6266Z" fill="#0AA5FF"/>
<path d="M40.7906 37.6266L42.7445 38.45L43.5539 40.4378L42.7445 42.4256L40.7906 43.2489L38.8367 42.4256L38.0273 40.4378L38.8367 38.45L40.7906 37.6266Z" fill="#0AA5FF"/>
<path d="M33.9187 37.6266L35.8472 38.45L36.646 40.4378L35.8472 42.4256L33.9187 43.2489L31.9902 42.4256L31.1914 40.4378L31.9902 38.45L33.9187 37.6266Z" fill="#0AA5FF"/>
</svg>
