<svg width="25" height="25" viewBox="0 0 25 25" fill="none" xmlns="http://www.w3.org/2000/svg">
<g clip-path="url(#clip0)">
<path d="M6.34957 16.0479L16.4445 5.95294" stroke="#EAF2FB" stroke-width="1.5" stroke-linecap="square" stroke-linejoin="round"/>
<path d="M17.7659 16.0475L17.7659 16.7975L16.2659 16.7975L16.2659 16.0475L17.7659 16.0475ZM17.0159 5.3811L17.0159 4.6311L17.7659 4.6311L17.7659 5.3811L17.0159 5.3811ZM6.34955 6.13111L5.59955 6.13111L5.59955 4.63111L6.34955 4.63111L6.34955 6.13111ZM16.2659 16.0475L16.2659 5.3811L17.7659 5.3811L17.7659 16.0475L16.2659 16.0475ZM17.0159 6.1311L6.34955 6.13111L6.34955 4.63111L17.0159 4.6311L17.0159 6.1311Z" fill="#EAF2FB"/>
<path d="M15.5626 21.6311L16.3126 21.6311L16.3126 23.1311L15.5626 23.1311L15.5626 21.6311ZM2.50009 23.1311L1.75009 23.1311L1.75009 21.6311L2.50008 21.6311L2.50009 23.1311ZM15.5626 23.1311L2.50009 23.1311L2.50008 21.6311L15.5626 21.6311L15.5626 23.1311Z" fill="white"/>
</g>
<defs>
<clipPath id="clip0">
<rect width="24" height="24" fill="white" transform="matrix(-1 8.74228e-08 8.74228e-08 1 24.5 0.0479126)"/>
</clipPath>
</defs>
</svg>
