<svg width="635" height="157" viewBox="0 0 635 157" fill="none" xmlns="http://www.w3.org/2000/svg">
<mask id="mask0" mask-type="alpha" maskUnits="userSpaceOnUse" x="0" y="0" width="635" height="157">
<path d="M1.29688 155.808H578.594L632.944 0.857422H1.29688V155.808Z" fill="#FD9BE0" stroke="#FF94DB" stroke-width="1.5"/>
</mask>
<g mask="url(#mask0)">
<path d="M489.715 318.168L621.459 0.108398" stroke="#FF94DB" stroke-width="1.5"/>
<path d="M473.715 318.168L605.459 0.108398" stroke="#FF94DB" stroke-width="1.5"/>
<path d="M457.715 318.168L589.459 0.108398" stroke="#FF94DB" stroke-width="1.5"/>
<path d="M441.715 318.168L573.459 0.108398" stroke="#FF94DB" stroke-width="1.5"/>
<path d="M425.715 318.168L557.459 0.108398" stroke="#FF94DB" stroke-width="2"/>
<path d="M409.715 318.168L541.459 0.108398" stroke="#FF94DB" stroke-width="2"/>
<path d="M393.715 318.168L525.459 0.108398" stroke="#FF94DB" stroke-width="2"/>
<path d="M377.715 318.168L509.459 0.108398" stroke="#FF94DB" stroke-width="2"/>
<path d="M361.715 318.168L493.459 0.108398" stroke="#FF94DB" stroke-width="2.5"/>
<path d="M345.715 318.168L477.459 0.108398" stroke="#FF94DB" stroke-width="2.5"/>
<path d="M329.715 318.168L461.459 0.108398" stroke="#FF94DB" stroke-width="2.5"/>
<path d="M313.715 318.168L445.459 0.108398" stroke="#FF94DB" stroke-width="2.5"/>
<path d="M297.715 318.168L429.459 0.108398" stroke="#FF94DB" stroke-width="3"/>
<path d="M281.715 318.168L413.459 0.108398" stroke="#FF94DB" stroke-width="3"/>
<path d="M265.715 318.168L397.459 0.108398" stroke="#FF94DB" stroke-width="3"/>
<path d="M249.715 318.168L381.459 0.108398" stroke="#FF94DB" stroke-width="3"/>
<path d="M233.715 318.168L365.459 0.108398" stroke="#FF94DB" stroke-width="3.5"/>
<path d="M217.715 318.168L349.459 0.108398" stroke="#FF94DB" stroke-width="3.5"/>
<path d="M201.715 318.168L333.459 0.108398" stroke="#FF94DB" stroke-width="3.5"/>
<path d="M185.715 318.168L317.459 0.108398" stroke="#FF94DB" stroke-width="3.5"/>
<path d="M169.715 318.168L301.459 0.108398" stroke="#FF94DB" stroke-width="4"/>
<path d="M153.715 318.168L285.459 0.108398" stroke="#FF94DB" stroke-width="4"/>
<path d="M137.715 318.168L269.459 0.108398" stroke="#FF94DB" stroke-width="4"/>
<path d="M121.715 318.168L253.459 0.108398" stroke="#FF94DB" stroke-width="4"/>
<path d="M105.715 318.168L237.459 0.108398" stroke="#FF94DB" stroke-width="4.5"/>
<path d="M89.7148 318.168L221.459 0.108398" stroke="#FF94DB" stroke-width="4.5"/>
<path d="M73.7148 318.168L205.459 0.108398" stroke="#FF94DB" stroke-width="4.5"/>
<path d="M57.7148 318.168L189.459 0.108398" stroke="#FF94DB" stroke-width="4.5"/>
<path d="M41.7148 318.168L173.459 0.108398" stroke="#FF94DB" stroke-width="5"/>
<path d="M25.7148 318.168L157.459 0.108398" stroke="#FF94DB" stroke-width="5"/>
<path d="M9.71484 318.168L141.459 0.108398" stroke="#FF94DB" stroke-width="5"/>
<path d="M-6.28516 318.168L125.459 0.108398" stroke="#FF94DB" stroke-width="5"/>
<path d="M-22.2852 318.168L109.459 0.108398" stroke="#FF94DB" stroke-width="5.5"/>
<path d="M-38.2852 318.168L93.4593 0.108398" stroke="#FF94DB" stroke-width="5.5"/>
<path d="M-54.2852 318.168L77.4593 0.108398" stroke="#FF94DB" stroke-width="5.5"/>
<path d="M-70.2852 318.168L61.4593 0.108398" stroke="#FF94DB" stroke-width="5.5"/>
<path d="M-86.2852 318.168L45.4593 0.108398" stroke="#FF94DB" stroke-width="6"/>
<path d="M-102.285 318.168L29.4593 0.108398" stroke="#FF94DB" stroke-width="6"/>
<path d="M-118.285 318.168L13.4593 0.108398" stroke="#FF94DB" stroke-width="6"/>
</g>
</svg>
