<svg width="184" height="38" viewBox="0 0 184 38" fill="none" xmlns="http://www.w3.org/2000/svg">
<mask id="mask0" mask-type="alpha" maskUnits="userSpaceOnUse" x="0" y="0" width="184" height="38">
<path d="M183.328 36.9622H16.2612L0.571167 1.09611H183.328V36.9622Z" fill="#FD9BE0" stroke="#C099FF" stroke-width="0.434063"/>
</mask>
<g mask="url(#mask0)">
<path d="M41.9926 92.9173L3.86901 0.878906" stroke="#C099FF" stroke-width="0.434063"/>
<path d="M46.6226 92.9173L8.49901 0.878906" stroke="#C099FF" stroke-width="0.434063"/>
<path d="M51.2526 92.9173L13.129 0.878906" stroke="#C099FF" stroke-width="0.434063"/>
<path d="M55.8826 92.9173L17.759 0.878906" stroke="#C099FF" stroke-width="0.434063"/>
<path d="M60.5126 92.9173L22.389 0.878906" stroke="#C099FF" stroke-width="0.57875"/>
<path d="M65.1426 92.9173L27.019 0.878906" stroke="#C099FF" stroke-width="0.57875"/>
<path d="M69.7726 92.9173L31.649 0.878906" stroke="#C099FF" stroke-width="0.57875"/>
<path d="M74.4026 92.9173L36.279 0.878906" stroke="#C099FF" stroke-width="0.57875"/>
<path d="M79.0326 92.9173L40.909 0.878906" stroke="#C099FF" stroke-width="0.723438"/>
<path d="M83.6626 92.9173L45.5391 0.878906" stroke="#C099FF" stroke-width="0.723438"/>
<path d="M88.2926 92.9173L50.1691 0.878906" stroke="#C099FF" stroke-width="0.723438"/>
<path d="M92.9225 92.9173L54.7989 0.878906" stroke="#C099FF" stroke-width="0.723438"/>
<path d="M97.5526 92.9173L59.4291 0.878906" stroke="#C099FF" stroke-width="0.868125"/>
<path d="M102.183 92.9173L64.0591 0.878906" stroke="#C099FF" stroke-width="0.868125"/>
<path d="M106.813 92.9173L68.6891 0.878906" stroke="#C099FF" stroke-width="0.868125"/>
<path d="M111.443 92.9173L73.3191 0.878906" stroke="#C099FF" stroke-width="0.868125"/>
<path d="M116.073 92.9173L77.9491 0.878906" stroke="#C099FF" stroke-width="1.01281"/>
<path d="M120.703 92.9173L82.579 0.878906" stroke="#C099FF" stroke-width="1.01281"/>
<path d="M125.333 92.9173L87.2091 0.878906" stroke="#C099FF" stroke-width="1.01281"/>
<path d="M129.963 92.9173L91.8391 0.878906" stroke="#C099FF" stroke-width="1.01281"/>
<path d="M134.593 92.9173L96.4691 0.878906" stroke="#C099FF" stroke-width="1.1575"/>
<path d="M139.223 92.9173L101.099 0.878906" stroke="#C099FF" stroke-width="1.1575"/>
<path d="M143.853 92.9173L105.729 0.878906" stroke="#C099FF" stroke-width="1.1575"/>
<path d="M148.483 92.9173L110.359 0.878906" stroke="#C099FF" stroke-width="1.1575"/>
<path d="M153.113 92.9173L114.989 0.878906" stroke="#C099FF" stroke-width="1.30219"/>
<path d="M157.743 92.9173L119.619 0.878906" stroke="#C099FF" stroke-width="1.30219"/>
<path d="M162.373 92.9173L124.249 0.878906" stroke="#C099FF" stroke-width="1.30219"/>
<path d="M167.003 92.9173L128.879 0.878906" stroke="#C099FF" stroke-width="1.30219"/>
<path d="M171.633 92.9173L133.509 0.878906" stroke="#C099FF" stroke-width="1.44688"/>
<path d="M176.263 92.9173L138.139 0.878906" stroke="#C099FF" stroke-width="1.44688"/>
<path d="M180.893 92.9173L142.769 0.878906" stroke="#C099FF" stroke-width="1.44688"/>
<path d="M185.523 92.9173L147.399 0.878906" stroke="#C099FF" stroke-width="1.44688"/>
<path d="M190.153 92.9173L152.029 0.878906" stroke="#C099FF" stroke-width="1.59156"/>
<path d="M194.783 92.9173L156.659 0.878906" stroke="#C099FF" stroke-width="1.59156"/>
<path d="M199.413 92.9173L161.289 0.878906" stroke="#C099FF" stroke-width="1.59156"/>
<path d="M204.043 92.9173L165.919 0.878906" stroke="#C099FF" stroke-width="1.59156"/>
<path d="M208.673 92.9173L170.549 0.878906" stroke="#C099FF" stroke-width="1.73625"/>
<path d="M213.303 92.9173L175.179 0.878906" stroke="#C099FF" stroke-width="1.73625"/>
<path d="M217.933 92.9173L179.809 0.878906" stroke="#C099FF" stroke-width="1.73625"/>
</g>
</svg>
