<svg width="33" height="33" viewBox="0 0 33 33" fill="none" xmlns="http://www.w3.org/2000/svg">
<path d="M3.57812 23.1765H2.95312C2.95312 23.4835 3.17612 23.7451 3.47928 23.7936C3.78244 23.8422 4.07597 23.6634 4.17186 23.3717L3.57812 23.1765ZM3.57812 5.276V4.651C3.23295 4.651 2.95312 4.93082 2.95312 5.276H3.57812ZM23.7162 5.276H24.3412C24.3412 4.93082 24.0614 4.651 23.7162 4.651V5.276ZM23.0912 6.95417C23.0912 7.29935 23.371 7.57917 23.7162 7.57917C24.0614 7.57917 24.3412 7.29935 24.3412 6.95417H23.0912ZM6.35337 20.1036C6.62351 19.8887 6.66831 19.4955 6.45343 19.2254C6.23855 18.9552 5.84537 18.9104 5.57523 19.1253L6.35337 20.1036ZM4.20312 23.1765V5.276H2.95312V23.1765H4.20312ZM3.57812 5.901H23.7162V4.651H3.57812V5.901ZM23.0912 5.276V6.95417H24.3412V5.276H23.0912ZM5.57523 19.1253C4.65923 19.8539 4.01436 20.8266 3.60373 21.5903C3.39618 21.9762 3.24315 22.3189 3.14145 22.5665C3.09051 22.6905 3.05222 22.7913 3.0262 22.8624C3.01318 22.898 3.00322 22.9262 2.99627 22.9463C2.9928 22.9563 2.99008 22.9643 2.9881 22.9702C2.98711 22.9731 2.9863 22.9755 2.98569 22.9774C2.98538 22.9783 2.98512 22.9791 2.9849 22.9797C2.98479 22.9801 2.98469 22.9804 2.98461 22.9806C2.98457 22.9808 2.98451 22.9809 2.98449 22.981C2.98444 22.9811 2.98439 22.9813 3.57812 23.1765C4.17186 23.3717 4.17182 23.3718 4.17178 23.372C4.17177 23.372 4.17173 23.3721 4.17171 23.3722C4.17167 23.3723 4.17164 23.3724 4.17162 23.3724C4.17159 23.3725 4.1716 23.3725 4.17165 23.3723C4.17176 23.372 4.17204 23.3712 4.1725 23.3698C4.17343 23.367 4.17507 23.3622 4.17742 23.3554C4.18212 23.3419 4.18969 23.3204 4.20014 23.2918C4.22107 23.2346 4.2535 23.1491 4.29772 23.0414C4.38634 22.8256 4.52134 22.5232 4.70467 22.1822C5.07579 21.4921 5.624 20.6837 6.35337 20.1036L5.57523 19.1253Z" fill="#0AA5FF"/>
<path d="M9.11194 22.8009C9.11194 22.8009 19.8306 22.8009 24.3779 22.8009C27.7787 22.8009 29.25 27.276 29.25 27.276V9.37549H9.11194V22.8009Z" fill="white"/>
<path d="M9.11194 22.8009V23.5509C8.69773 23.5509 8.36194 23.2151 8.36194 22.8009H9.11194ZM29.25 27.276H30C30 27.6444 29.7324 27.9583 29.3686 28.0165C29.0048 28.0748 28.6526 27.8602 28.5375 27.5102L29.25 27.276ZM29.25 9.37549V8.62549C29.6642 8.62549 30 8.96127 30 9.37549H29.25ZM9.11194 9.37549H8.36194C8.36194 8.96127 8.69773 8.62549 9.11194 8.62549V9.37549ZM9.11194 22.8009C9.11194 22.0509 9.11198 22.0509 9.11207 22.0509C9.11215 22.0509 9.11227 22.0509 9.11243 22.0509C9.1126 22.0509 9.1128 22.0509 9.11304 22.0509C9.11329 22.0509 9.11357 22.0509 9.1139 22.0509C9.11422 22.0509 9.11459 22.0509 9.11499 22.0509C9.1154 22.0509 9.11585 22.0509 9.11633 22.0509C9.11682 22.0509 9.11735 22.0509 9.11791 22.0509C9.11848 22.0509 9.11908 22.0509 9.11973 22.0509C9.12038 22.0509 9.12106 22.0509 9.12179 22.0509C9.12251 22.0509 9.12328 22.0509 9.12408 22.0509C9.12489 22.0509 9.12573 22.0509 9.12662 22.0509C9.1275 22.0509 9.12843 22.0509 9.12939 22.0509C9.13035 22.0509 9.13136 22.0509 9.1324 22.0509C9.13344 22.0509 9.13452 22.0509 9.13564 22.0509C9.13676 22.0509 9.13792 22.0509 9.13912 22.0509C9.14032 22.0509 9.14155 22.0509 9.14283 22.0509C9.14411 22.0509 9.14542 22.0509 9.14678 22.0509C9.14813 22.0509 9.14952 22.0509 9.15095 22.0509C9.15238 22.0509 9.15385 22.0509 9.15536 22.0509C9.15687 22.0509 9.15842 22.0509 9.16 22.0509C9.16159 22.0509 9.16321 22.0509 9.16487 22.0509C9.16654 22.0509 9.16824 22.0509 9.16997 22.0509C9.17171 22.0509 9.17349 22.0509 9.1753 22.0509C9.17712 22.0509 9.17897 22.0509 9.18086 22.0509C9.18275 22.0509 9.18468 22.0509 9.18664 22.0509C9.18861 22.0509 9.19061 22.0509 9.19265 22.0509C9.19469 22.0509 9.19677 22.0509 9.19889 22.0509C9.20101 22.0509 9.20316 22.0509 9.20535 22.0509C9.20754 22.0509 9.20977 22.0509 9.21204 22.0509C9.2143 22.0509 9.2166 22.0509 9.21894 22.0509C9.22128 22.0509 9.22366 22.0509 9.22608 22.0509C9.22849 22.0509 9.23094 22.0509 9.23343 22.0509C9.23592 22.0509 9.23844 22.0509 9.241 22.0509C9.24356 22.0509 9.24616 22.0509 9.2488 22.0509C9.25143 22.0509 9.2541 22.0509 9.25681 22.0509C9.25952 22.0509 9.26227 22.0509 9.26505 22.0509C9.26783 22.0509 9.27065 22.0509 9.2735 22.0509C9.27635 22.0509 9.27924 22.0509 9.28217 22.0509C9.28509 22.0509 9.28806 22.0509 9.29105 22.0509C9.29405 22.0509 9.29708 22.0509 9.30015 22.0509C9.30322 22.0509 9.30633 22.0509 9.30947 22.0509C9.31261 22.0509 9.31579 22.0509 9.319 22.0509C9.32221 22.0509 9.32546 22.0509 9.32875 22.0509C9.33203 22.0509 9.33535 22.0509 9.3387 22.0509C9.34206 22.0509 9.34545 22.0509 9.34887 22.0509C9.3523 22.0509 9.35576 22.0509 9.35925 22.0509C9.36275 22.0509 9.36628 22.0509 9.36985 22.0509C9.37341 22.0509 9.37701 22.0509 9.38065 22.0509C9.38428 22.0509 9.38795 22.0509 9.39166 22.0509C9.39536 22.0509 9.3991 22.0509 9.40288 22.0509C9.40665 22.0509 9.41046 22.0509 9.4143 22.0509C9.41815 22.0509 9.42202 22.0509 9.42594 22.0509C9.42985 22.0509 9.43379 22.0509 9.43777 22.0509C9.44176 22.0509 9.44577 22.0509 9.44982 22.0509C9.45387 22.0509 9.45795 22.0509 9.46207 22.0509C9.46619 22.0509 9.47034 22.0509 9.47452 22.0509C9.47871 22.0509 9.48293 22.0509 9.48718 22.0509C9.49143 22.0509 9.49572 22.0509 9.50004 22.0509C9.50436 22.0509 9.50871 22.0509 9.5131 22.0509C9.51748 22.0509 9.5219 22.0509 9.52636 22.0509C9.53081 22.0509 9.5353 22.0509 9.53982 22.0509C9.54434 22.0509 9.54889 22.0509 9.55348 22.0509C9.55806 22.0509 9.56268 22.0509 9.56734 22.0509C9.57199 22.0509 9.57667 22.0509 9.58139 22.0509C9.58611 22.0509 9.59086 22.0509 9.59565 22.0509C9.60043 22.0509 9.60525 22.0509 9.61009 22.0509C9.61494 22.0509 9.61983 22.0509 9.62474 22.0509C9.62965 22.0509 9.6346 22.0509 9.63958 22.0509C9.64456 22.0509 9.64957 22.0509 9.65461 22.0509C9.65966 22.0509 9.66473 22.0509 9.66984 22.0509C9.67495 22.0509 9.68009 22.0509 9.68526 22.0509C9.69043 22.0509 9.69563 22.0509 9.70087 22.0509C9.70611 22.0509 9.71137 22.0509 9.71667 22.0509C9.72197 22.0509 9.7273 22.0509 9.73266 22.0509C9.73803 22.0509 9.74342 22.0509 9.74885 22.0509C9.75427 22.0509 9.75973 22.0509 9.76522 22.0509C9.7707 22.0509 9.77622 22.0509 9.78177 22.0509C9.78732 22.0509 9.79291 22.0509 9.79852 22.0509C9.80413 22.0509 9.80978 22.0509 9.81545 22.0509C9.82113 22.0509 9.82683 22.0509 9.83257 22.0509C9.83831 22.0509 9.84407 22.0509 9.84987 22.0509C9.85567 22.0509 9.8615 22.0509 9.86736 22.0509C9.87322 22.0509 9.87911 22.0509 9.88503 22.0509C9.89095 22.0509 9.8969 22.0509 9.90288 22.0509C9.90886 22.0509 9.91488 22.0509 9.92092 22.0509C9.92696 22.0509 9.93303 22.0509 9.93913 22.0509C9.94524 22.0509 9.95137 22.0509 9.95753 22.0509C9.96369 22.0509 9.96988 22.0509 9.97611 22.0509C9.98233 22.0509 9.98858 22.0509 9.99486 22.0509C10.0011 22.0509 10.0075 22.0509 10.0138 22.0509C10.0201 22.0509 10.0265 22.0509 10.0329 22.0509C10.0393 22.0509 10.0457 22.0509 10.0522 22.0509C10.0586 22.0509 10.0651 22.0509 10.0717 22.0509C10.0782 22.0509 10.0847 22.0509 10.0913 22.0509C10.0979 22.0509 10.1045 22.0509 10.1111 22.0509C10.1177 22.0509 10.1244 22.0509 10.1311 22.0509C10.1378 22.0509 10.1445 22.0509 10.1512 22.0509C10.158 22.0509 10.1648 22.0509 10.1716 22.0509C10.1784 22.0509 10.1852 22.0509 10.1921 22.0509C10.1989 22.0509 10.2058 22.0509 10.2128 22.0509C10.2197 22.0509 10.2266 22.0509 10.2336 22.0509C10.2406 22.0509 10.2476 22.0509 10.2546 22.0509C10.2616 22.0509 10.2687 22.0509 10.2758 22.0509C10.2829 22.0509 10.29 22.0509 10.2971 22.0509C10.3043 22.0509 10.3115 22.0509 10.3187 22.0509C10.3258 22.0509 10.3331 22.0509 10.3403 22.0509C10.3476 22.0509 10.3549 22.0509 10.3622 22.0509C10.3695 22.0509 10.3768 22.0509 10.3842 22.0509C10.3916 22.0509 10.3989 22.0509 10.4064 22.0509C10.4138 22.0509 10.4212 22.0509 10.4287 22.0509C10.4362 22.0509 10.4437 22.0509 10.4512 22.0509C10.4587 22.0509 10.4663 22.0509 10.4739 22.0509C10.4814 22.0509 10.489 22.0509 10.4967 22.0509C10.5043 22.0509 10.512 22.0509 10.5197 22.0509C10.5273 22.0509 10.5351 22.0509 10.5428 22.0509C10.5505 22.0509 10.5583 22.0509 10.5661 22.0509C10.5739 22.0509 10.5817 22.0509 10.5896 22.0509C10.5974 22.0509 10.6053 22.0509 10.6132 22.0509C10.6211 22.0509 10.629 22.0509 10.6369 22.0509C10.6449 22.0509 10.6529 22.0509 10.6609 22.0509C10.6689 22.0509 10.6769 22.0509 10.6849 22.0509C10.693 22.0509 10.7011 22.0509 10.7092 22.0509C10.7173 22.0509 10.7254 22.0509 10.7336 22.0509C10.7417 22.0509 10.7499 22.0509 10.7581 22.0509C10.7663 22.0509 10.7745 22.0509 10.7828 22.0509C10.7911 22.0509 10.7993 22.0509 10.8076 22.0509C10.816 22.0509 10.8243 22.0509 10.8326 22.0509C10.841 22.0509 10.8494 22.0509 10.8578 22.0509C10.8662 22.0509 10.8746 22.0509 10.8831 22.0509C10.8915 22.0509 10.9 22.0509 10.9085 22.0509C10.917 22.0509 10.9255 22.0509 10.9341 22.0509C10.9427 22.0509 10.9512 22.0509 10.9598 22.0509C10.9684 22.0509 10.9771 22.0509 10.9857 22.0509C10.9944 22.0509 11.003 22.0509 11.0117 22.0509C11.0204 22.0509 11.0292 22.0509 11.0379 22.0509C11.0466 22.0509 11.0554 22.0509 11.0642 22.0509C11.073 22.0509 11.0818 22.0509 11.0907 22.0509C11.0995 22.0509 11.1084 22.0509 11.1173 22.0509C11.1262 22.0509 11.1351 22.0509 11.144 22.0509C11.1529 22.0509 11.1619 22.0509 11.1709 22.0509C11.1799 22.0509 11.1889 22.0509 11.1979 22.0509C11.2069 22.0509 11.216 22.0509 11.225 22.0509C11.2341 22.0509 11.2432 22.0509 11.2523 22.0509C11.2615 22.0509 11.2706 22.0509 11.2798 22.0509C11.2889 22.0509 11.2981 22.0509 11.3073 22.0509C11.3166 22.0509 11.3258 22.0509 11.335 22.0509C11.3443 22.0509 11.3536 22.0509 11.3629 22.0509C11.3722 22.0509 11.3815 22.0509 11.3909 22.0509C11.4002 22.0509 11.4096 22.0509 11.419 22.0509C11.4284 22.0509 11.4378 22.0509 11.4472 22.0509C11.4566 22.0509 11.4661 22.0509 11.4756 22.0509C11.485 22.0509 11.4946 22.0509 11.5041 22.0509C11.5136 22.0509 11.5231 22.0509 11.5327 22.0509C11.5423 22.0509 11.5519 22.0509 11.5615 22.0509C11.5711 22.0509 11.5807 22.0509 11.5904 22.0509C11.6 22.0509 11.6097 22.0509 11.6194 22.0509C11.6291 22.0509 11.6388 22.0509 11.6485 22.0509C11.6583 22.0509 11.668 22.0509 11.6778 22.0509C11.6876 22.0509 11.6974 22.0509 11.7072 22.0509C11.717 22.0509 11.7269 22.0509 11.7367 22.0509C11.7466 22.0509 11.7565 22.0509 11.7664 22.0509C11.7763 22.0509 11.7862 22.0509 11.7962 22.0509C11.8061 22.0509 11.8161 22.0509 11.8261 22.0509C11.836 22.0509 11.846 22.0509 11.8561 22.0509C11.8661 22.0509 11.8761 22.0509 11.8862 22.0509C11.8963 22.0509 11.9064 22.0509 11.9165 22.0509C11.9266 22.0509 11.9367 22.0509 11.9469 22.0509C11.957 22.0509 11.9672 22.0509 11.9774 22.0509C11.9875 22.0509 11.9977 22.0509 12.008 22.0509C12.0182 22.0509 12.0284 22.0509 12.0387 22.0509C12.049 22.0509 12.0593 22.0509 12.0696 22.0509C12.0799 22.0509 12.0902 22.0509 12.1005 22.0509C12.1109 22.0509 12.1212 22.0509 12.1316 22.0509C12.142 22.0509 12.1524 22.0509 12.1628 22.0509C12.1732 22.0509 12.1837 22.0509 12.1941 22.0509C12.2046 22.0509 12.2151 22.0509 12.2256 22.0509C12.2361 22.0509 12.2466 22.0509 12.2571 22.0509C12.2676 22.0509 12.2782 22.0509 12.2888 22.0509C12.2993 22.0509 12.3099 22.0509 12.3205 22.0509C12.3311 22.0509 12.3418 22.0509 12.3524 22.0509C12.363 22.0509 12.3737 22.0509 12.3844 22.0509C12.3951 22.0509 12.4058 22.0509 12.4165 22.0509C12.4272 22.0509 12.4379 22.0509 12.4487 22.0509C12.4594 22.0509 12.4702 22.0509 12.481 22.0509C12.4918 22.0509 12.5026 22.0509 12.5134 22.0509C12.5242 22.0509 12.535 22.0509 12.5459 22.0509C12.5568 22.0509 12.5676 22.0509 12.5785 22.0509C12.5894 22.0509 12.6003 22.0509 12.6113 22.0509C12.6222 22.0509 12.6331 22.0509 12.6441 22.0509C12.655 22.0509 12.666 22.0509 12.677 22.0509C12.688 22.0509 12.699 22.0509 12.7101 22.0509C12.7211 22.0509 12.7321 22.0509 12.7432 22.0509C12.7543 22.0509 12.7653 22.0509 12.7764 22.0509C12.7875 22.0509 12.7986 22.0509 12.8098 22.0509C12.8209 22.0509 12.832 22.0509 12.8432 22.0509C12.8544 22.0509 12.8655 22.0509 12.8767 22.0509C12.8879 22.0509 12.8991 22.0509 12.9104 22.0509C12.9216 22.0509 12.9328 22.0509 12.9441 22.0509C12.9553 22.0509 12.9666 22.0509 12.9779 22.0509C12.9892 22.0509 13.0005 22.0509 13.0118 22.0509C13.0231 22.0509 13.0345 22.0509 13.0458 22.0509C13.0572 22.0509 13.0686 22.0509 13.0799 22.0509C13.0913 22.0509 13.1027 22.0509 13.1141 22.0509C13.1256 22.0509 13.137 22.0509 13.1484 22.0509C13.1599 22.0509 13.1713 22.0509 13.1828 22.0509C13.1943 22.0509 13.2058 22.0509 13.2173 22.0509C13.2288 22.0509 13.2403 22.0509 13.2519 22.0509C13.2634 22.0509 13.2749 22.0509 13.2865 22.0509C13.2981 22.0509 13.3096 22.0509 13.3212 22.0509C13.3328 22.0509 13.3444 22.0509 13.3561 22.0509C13.3677 22.0509 13.3793 22.0509 13.391 22.0509C13.4026 22.0509 13.4143 22.0509 13.426 22.0509C13.4377 22.0509 13.4494 22.0509 13.4611 22.0509C13.4728 22.0509 13.4845 22.0509 13.4962 22.0509C13.508 22.0509 13.5197 22.0509 13.5315 22.0509C13.5433 22.0509 13.555 22.0509 13.5668 22.0509C13.5786 22.0509 13.5904 22.0509 13.6022 22.0509C13.6141 22.0509 13.6259 22.0509 13.6377 22.0509C13.6496 22.0509 13.6615 22.0509 13.6733 22.0509C13.6852 22.0509 13.6971 22.0509 13.709 22.0509C13.7209 22.0509 13.7328 22.0509 13.7447 22.0509C13.7567 22.0509 13.7686 22.0509 13.7805 22.0509C13.7925 22.0509 13.8045 22.0509 13.8164 22.0509C13.8284 22.0509 13.8404 22.0509 13.8524 22.0509C13.8644 22.0509 13.8764 22.0509 13.8885 22.0509C13.9005 22.0509 13.9125 22.0509 13.9246 22.0509C13.9366 22.0509 13.9487 22.0509 13.9608 22.0509C13.9729 22.0509 13.985 22.0509 13.9971 22.0509C14.0092 22.0509 14.0213 22.0509 14.0334 22.0509C14.0455 22.0509 14.0577 22.0509 14.0698 22.0509C14.082 22.0509 14.0941 22.0509 14.1063 22.0509C14.1185 22.0509 14.1307 22.0509 14.1429 22.0509C14.1551 22.0509 14.1673 22.0509 14.1795 22.0509C14.1917 22.0509 14.204 22.0509 14.2162 22.0509C14.2285 22.0509 14.2407 22.0509 14.253 22.0509C14.2653 22.0509 14.2775 22.0509 14.2898 22.0509C14.3021 22.0509 14.3144 22.0509 14.3267 22.0509C14.339 22.0509 14.3514 22.0509 14.3637 22.0509C14.376 22.0509 14.3884 22.0509 14.4007 22.0509C14.4131 22.0509 14.4255 22.0509 14.4378 22.0509C14.4502 22.0509 14.4626 22.0509 14.475 22.0509C14.4874 22.0509 14.4998 22.0509 14.5122 22.0509C14.5247 22.0509 14.5371 22.0509 14.5495 22.0509C14.562 22.0509 14.5744 22.0509 14.5869 22.0509C14.5993 22.0509 14.6118 22.0509 14.6243 22.0509C14.6368 22.0509 14.6493 22.0509 14.6618 22.0509C14.6743 22.0509 14.6868 22.0509 14.6993 22.0509C14.7118 22.0509 14.7244 22.0509 14.7369 22.0509C14.7494 22.0509 14.762 22.0509 14.7746 22.0509C14.7871 22.0509 14.7997 22.0509 14.8123 22.0509C14.8248 22.0509 14.8374 22.0509 14.85 22.0509C14.8626 22.0509 14.8752 22.0509 14.8878 22.0509C14.9005 22.0509 14.9131 22.0509 14.9257 22.0509C14.9384 22.0509 14.951 22.0509 14.9637 22.0509C14.9763 22.0509 14.989 22.0509 15.0016 22.0509C15.0143 22.0509 15.027 22.0509 15.0397 22.0509C15.0524 22.0509 15.0651 22.0509 15.0778 22.0509C15.0905 22.0509 15.1032 22.0509 15.1159 22.0509C15.1286 22.0509 15.1414 22.0509 15.1541 22.0509C15.1668 22.0509 15.1796 22.0509 15.1923 22.0509C15.2051 22.0509 15.2179 22.0509 15.2306 22.0509C15.2434 22.0509 15.2562 22.0509 15.269 22.0509C15.2818 22.0509 15.2945 22.0509 15.3074 22.0509C15.3202 22.0509 15.333 22.0509 15.3458 22.0509C15.3586 22.0509 15.3714 22.0509 15.3843 22.0509C15.3971 22.0509 15.4099 22.0509 15.4228 22.0509C15.4356 22.0509 15.4485 22.0509 15.4614 22.0509C15.4742 22.0509 15.4871 22.0509 15.5 22.0509C15.5128 22.0509 15.5257 22.0509 15.5386 22.0509C15.5515 22.0509 15.5644 22.0509 15.5773 22.0509C15.5902 22.0509 15.6031 22.0509 15.6161 22.0509C15.629 22.0509 15.6419 22.0509 15.6548 22.0509C15.6678 22.0509 15.6807 22.0509 15.6937 22.0509C15.7066 22.0509 15.7196 22.0509 15.7325 22.0509C15.7455 22.0509 15.7584 22.0509 15.7714 22.0509C15.7844 22.0509 15.7974 22.0509 15.8103 22.0509C15.8233 22.0509 15.8363 22.0509 15.8493 22.0509C15.8623 22.0509 15.8753 22.0509 15.8883 22.0509C15.9013 22.0509 15.9143 22.0509 15.9274 22.0509C15.9404 22.0509 15.9534 22.0509 15.9664 22.0509C15.9795 22.0509 15.9925 22.0509 16.0056 22.0509C16.0186 22.0509 16.0316 22.0509 16.0447 22.0509C16.0578 22.0509 16.0708 22.0509 16.0839 22.0509C16.0969 22.0509 16.11 22.0509 16.1231 22.0509C16.1362 22.0509 16.1492 22.0509 16.1623 22.0509C16.1754 22.0509 16.1885 22.0509 16.2016 22.0509C16.2147 22.0509 16.2278 22.0509 16.2409 22.0509C16.254 22.0509 16.2671 22.0509 16.2802 22.0509C16.2933 22.0509 16.3065 22.0509 16.3196 22.0509C16.3327 22.0509 16.3458 22.0509 16.359 22.0509C16.3721 22.0509 16.3852 22.0509 16.3984 22.0509C16.4115 22.0509 16.4247 22.0509 16.4378 22.0509C16.451 22.0509 16.4641 22.0509 16.4773 22.0509C16.4904 22.0509 16.5036 22.0509 16.5168 22.0509C16.5299 22.0509 16.5431 22.0509 16.5563 22.0509C16.5694 22.0509 16.5826 22.0509 16.5958 22.0509C16.609 22.0509 16.6222 22.0509 16.6353 22.0509C16.6485 22.0509 16.6617 22.0509 16.6749 22.0509C16.6881 22.0509 16.7013 22.0509 16.7145 22.0509C16.7277 22.0509 16.7409 22.0509 16.7541 22.0509C16.7673 22.0509 16.7805 22.0509 16.7938 22.0509C16.807 22.0509 16.8202 22.0509 16.8334 22.0509C16.8466 22.0509 16.8598 22.0509 16.8731 22.0509C16.8863 22.0509 16.8995 22.0509 16.9128 22.0509C16.926 22.0509 16.9392 22.0509 16.9525 22.0509C16.9657 22.0509 16.9789 22.0509 16.9922 22.0509C17.0054 22.0509 17.0186 22.0509 17.0319 22.0509C17.0451 22.0509 17.0584 22.0509 17.0716 22.0509C17.0849 22.0509 17.0981 22.0509 17.1114 22.0509C17.1246 22.0509 17.1379 22.0509 17.1512 22.0509C17.1644 22.0509 17.1777 22.0509 17.1909 22.0509C17.2042 22.0509 17.2175 22.0509 17.2307 22.0509C17.244 22.0509 17.2573 22.0509 17.2705 22.0509C17.2838 22.0509 17.2971 22.0509 17.3103 22.0509C17.3236 22.0509 17.3369 22.0509 17.3501 22.0509C17.3634 22.0509 17.3767 22.0509 17.39 22.0509C17.4032 22.0509 17.4165 22.0509 17.4298 22.0509C17.4431 22.0509 17.4564 22.0509 17.4696 22.0509C17.4829 22.0509 17.4962 22.0509 17.5095 22.0509C17.5228 22.0509 17.536 22.0509 17.5493 22.0509C17.5626 22.0509 17.5759 22.0509 17.5892 22.0509C17.6025 22.0509 17.6157 22.0509 17.629 22.0509C17.6423 22.0509 17.6556 22.0509 17.6689 22.0509C17.6822 22.0509 17.6954 22.0509 17.7087 22.0509C17.722 22.0509 17.7353 22.0509 17.7486 22.0509C17.7619 22.0509 17.7752 22.0509 17.7884 22.0509C17.8017 22.0509 17.815 22.0509 17.8283 22.0509C17.8416 22.0509 17.8549 22.0509 17.8682 22.0509C17.8814 22.0509 17.8947 22.0509 17.908 22.0509C17.9213 22.0509 17.9346 22.0509 17.9479 22.0509C17.9611 22.0509 17.9744 22.0509 17.9877 22.0509C18.001 22.0509 18.0143 22.0509 18.0275 22.0509C18.0408 22.0509 18.0541 22.0509 18.0674 22.0509C18.0807 22.0509 18.0939 22.0509 18.1072 22.0509C18.1205 22.0509 18.1338 22.0509 18.147 22.0509C18.1603 22.0509 18.1736 22.0509 18.1868 22.0509C18.2001 22.0509 18.2134 22.0509 18.2267 22.0509C18.2399 22.0509 18.2532 22.0509 18.2664 22.0509C18.2797 22.0509 18.293 22.0509 18.3062 22.0509C18.3195 22.0509 18.3328 22.0509 18.346 22.0509C18.3593 22.0509 18.3725 22.0509 18.3858 22.0509C18.399 22.0509 18.4123 22.0509 18.4255 22.0509C18.4388 22.0509 18.452 22.0509 18.4653 22.0509C18.4785 22.0509 18.4918 22.0509 18.505 22.0509C18.5182 22.0509 18.5315 22.0509 18.5447 22.0509C18.5579 22.0509 18.5712 22.0509 18.5844 22.0509C18.5976 22.0509 18.6109 22.0509 18.6241 22.0509C18.6373 22.0509 18.6505 22.0509 18.6637 22.0509C18.677 22.0509 18.6902 22.0509 18.7034 22.0509C18.7166 22.0509 18.7298 22.0509 18.743 22.0509C18.7562 22.0509 18.7694 22.0509 18.7826 22.0509C18.7958 22.0509 18.809 22.0509 18.8222 22.0509C18.8354 22.0509 18.8486 22.0509 18.8618 22.0509C18.875 22.0509 18.8882 22.0509 18.9013 22.0509C18.9145 22.0509 18.9277 22.0509 18.9409 22.0509C18.954 22.0509 18.9672 22.0509 18.9804 22.0509C18.9935 22.0509 19.0067 22.0509 19.0199 22.0509C19.033 22.0509 19.0462 22.0509 19.0593 22.0509C19.0725 22.0509 19.0856 22.0509 19.0987 22.0509C19.1119 22.0509 19.125 22.0509 19.1381 22.0509C19.1513 22.0509 19.1644 22.0509 19.1775 22.0509C19.1906 22.0509 19.2038 22.0509 19.2169 22.0509C19.23 22.0509 19.2431 22.0509 19.2562 22.0509C19.2693 22.0509 19.2824 22.0509 19.2955 22.0509C19.3086 22.0509 19.3217 22.0509 19.3348 22.0509C19.3478 22.0509 19.3609 22.0509 19.374 22.0509C19.3871 22.0509 19.4001 22.0509 19.4132 22.0509C19.4263 22.0509 19.4393 22.0509 19.4524 22.0509C19.4654 22.0509 19.4785 22.0509 19.4915 22.0509C19.5046 22.0509 19.5176 22.0509 19.5306 22.0509C19.5436 22.0509 19.5567 22.0509 19.5697 22.0509C19.5827 22.0509 19.5957 22.0509 19.6087 22.0509C19.6217 22.0509 19.6347 22.0509 19.6477 22.0509C19.6607 22.0509 19.6737 22.0509 19.6867 22.0509C19.6997 22.0509 19.7127 22.0509 19.7256 22.0509C19.7386 22.0509 19.7516 22.0509 19.7645 22.0509C19.7775 22.0509 19.7904 22.0509 19.8034 22.0509C19.8163 22.0509 19.8293 22.0509 19.8422 22.0509C19.8551 22.0509 19.868 22.0509 19.881 22.0509C19.8939 22.0509 19.9068 22.0509 19.9197 22.0509C19.9326 22.0509 19.9455 22.0509 19.9584 22.0509C19.9713 22.0509 19.9841 22.0509 19.997 22.0509C20.0099 22.0509 20.0228 22.0509 20.0356 22.0509C20.0485 22.0509 20.0613 22.0509 20.0742 22.0509C20.087 22.0509 20.0999 22.0509 20.1127 22.0509C20.1255 22.0509 20.1384 22.0509 20.1512 22.0509C20.164 22.0509 20.1768 22.0509 20.1896 22.0509C20.2024 22.0509 20.2152 22.0509 20.228 22.0509C20.2408 22.0509 20.2535 22.0509 20.2663 22.0509C20.2791 22.0509 20.2918 22.0509 20.3046 22.0509C20.3173 22.0509 20.3301 22.0509 20.3428 22.0509C20.3556 22.0509 20.3683 22.0509 20.381 22.0509C20.3937 22.0509 20.4064 22.0509 20.4191 22.0509C20.4318 22.0509 20.4445 22.0509 20.4572 22.0509C20.4699 22.0509 20.4826 22.0509 20.4953 22.0509C20.5079 22.0509 20.5206 22.0509 20.5332 22.0509C20.5459 22.0509 20.5585 22.0509 20.5712 22.0509C20.5838 22.0509 20.5964 22.0509 20.609 22.0509C20.6216 22.0509 20.6342 22.0509 20.6468 22.0509C20.6594 22.0509 20.672 22.0509 20.6846 22.0509C20.6972 22.0509 20.7097 22.0509 20.7223 22.0509C20.7349 22.0509 20.7474 22.0509 20.7599 22.0509C20.7725 22.0509 20.785 22.0509 20.7975 22.0509C20.81 22.0509 20.8225 22.0509 20.835 22.0509C20.8475 22.0509 20.86 22.0509 20.8725 22.0509C20.885 22.0509 20.8975 22.0509 20.9099 22.0509C20.9224 22.0509 20.9348 22.0509 20.9473 22.0509C20.9597 22.0509 20.9721 22.0509 20.9845 22.0509C20.997 22.0509 21.0094 22.0509 21.0218 22.0509C21.0342 22.0509 21.0465 22.0509 21.0589 22.0509C21.0713 22.0509 21.0837 22.0509 21.096 22.0509C21.1084 22.0509 21.1207 22.0509 21.133 22.0509C21.1454 22.0509 21.1577 22.0509 21.17 22.0509C21.1823 22.0509 21.1946 22.0509 21.2069 22.0509C21.2192 22.0509 21.2315 22.0509 21.2437 22.0509C21.256 22.0509 21.2682 22.0509 21.2805 22.0509C21.2927 22.0509 21.305 22.0509 21.3172 22.0509C21.3294 22.0509 21.3416 22.0509 21.3538 22.0509C21.366 22.0509 21.3782 22.0509 21.3903 22.0509C21.4025 22.0509 21.4147 22.0509 21.4268 22.0509C21.439 22.0509 21.4511 22.0509 21.4632 22.0509C21.4754 22.0509 21.4875 22.0509 21.4996 22.0509C21.5117 22.0509 21.5238 22.0509 21.5358 22.0509C21.5479 22.0509 21.56 22.0509 21.572 22.0509C21.5841 22.0509 21.5961 22.0509 21.6081 22.0509C21.6202 22.0509 21.6322 22.0509 21.6442 22.0509C21.6562 22.0509 21.6682 22.0509 21.6801 22.0509C21.6921 22.0509 21.7041 22.0509 21.716 22.0509C21.728 22.0509 21.7399 22.0509 21.7518 22.0509C21.7637 22.0509 21.7757 22.0509 21.7876 22.0509C21.7994 22.0509 21.8113 22.0509 21.8232 22.0509C21.8351 22.0509 21.8469 22.0509 21.8588 22.0509C21.8706 22.0509 21.8824 22.0509 21.8943 22.0509C21.9061 22.0509 21.9179 22.0509 21.9297 22.0509C21.9415 22.0509 21.9532 22.0509 21.965 22.0509C21.9767 22.0509 21.9885 22.0509 22.0002 22.0509C22.012 22.0509 22.0237 22.0509 22.0354 22.0509C22.0471 22.0509 22.0588 22.0509 22.0705 22.0509C22.0821 22.0509 22.0938 22.0509 22.1054 22.0509C22.1171 22.0509 22.1287 22.0509 22.1403 22.0509C22.152 22.0509 22.1636 22.0509 22.1752 22.0509C22.1867 22.0509 22.1983 22.0509 22.2099 22.0509C22.2214 22.0509 22.233 22.0509 22.2445 22.0509C22.2561 22.0509 22.2676 22.0509 22.2791 22.0509C22.2906 22.0509 22.3021 22.0509 22.3135 22.0509C22.325 22.0509 22.3365 22.0509 22.3479 22.0509C22.3593 22.0509 22.3708 22.0509 22.3822 22.0509C22.3936 22.0509 22.405 22.0509 22.4164 22.0509C22.4277 22.0509 22.4391 22.0509 22.4504 22.0509C22.4618 22.0509 22.4731 22.0509 22.4844 22.0509C22.4958 22.0509 22.5071 22.0509 22.5184 22.0509C22.5296 22.0509 22.5409 22.0509 22.5522 22.0509C22.5634 22.0509 22.5746 22.0509 22.5859 22.0509C22.5971 22.0509 22.6083 22.0509 22.6195 22.0509C22.6307 22.0509 22.6418 22.0509 22.653 22.0509C22.6642 22.0509 22.6753 22.0509 22.6864 22.0509C22.6975 22.0509 22.7087 22.0509 22.7197 22.0509C22.7308 22.0509 22.7419 22.0509 22.753 22.0509C22.764 22.0509 22.7751 22.0509 22.7861 22.0509C22.7971 22.0509 22.8081 22.0509 22.8191 22.0509C22.8301 22.0509 22.8411 22.0509 22.852 22.0509C22.863 22.0509 22.8739 22.0509 22.8848 22.0509C22.8958 22.0509 22.9067 22.0509 22.9175 22.0509C22.9284 22.0509 22.9393 22.0509 22.9502 22.0509C22.961 22.0509 22.9718 22.0509 22.9827 22.0509C22.9935 22.0509 23.0043 22.0509 23.0151 22.0509C23.0258 22.0509 23.0366 22.0509 23.0473 22.0509C23.0581 22.0509 23.0688 22.0509 23.0795 22.0509C23.0902 22.0509 23.1009 22.0509 23.1116 22.0509C23.1223 22.0509 23.1329 22.0509 23.1436 22.0509C23.1542 22.0509 23.1648 22.0509 23.1754 22.0509C23.186 22.0509 23.1966 22.0509 23.2072 22.0509C23.2177 22.0509 23.2283 22.0509 23.2388 22.0509C23.2493 22.0509 23.2598 22.0509 23.2703 22.0509C23.2808 22.0509 23.2913 22.0509 23.3017 22.0509C23.3122 22.0509 23.3226 22.0509 23.333 22.0509C23.3434 22.0509 23.3538 22.0509 23.3642 22.0509C23.3746 22.0509 23.3849 22.0509 23.3953 22.0509C23.4056 22.0509 23.4159 22.0509 23.4262 22.0509C23.4365 22.0509 23.4468 22.0509 23.4571 22.0509C23.4673 22.0509 23.4776 22.0509 23.4878 22.0509C23.498 22.0509 23.5082 22.0509 23.5184 22.0509C23.5286 22.0509 23.5387 22.0509 23.5489 22.0509C23.559 22.0509 23.5691 22.0509 23.5792 22.0509C23.5893 22.0509 23.5994 22.0509 23.6095 22.0509C23.6195 22.0509 23.6296 22.0509 23.6396 22.0509C23.6496 22.0509 23.6596 22.0509 23.6696 22.0509C23.6796 22.0509 23.6895 22.0509 23.6995 22.0509C23.7094 22.0509 23.7193 22.0509 23.7292 22.0509C23.7391 22.0509 23.749 22.0509 23.7589 22.0509C23.7687 22.0509 23.7786 22.0509 23.7884 22.0509C23.7982 22.0509 23.808 22.0509 23.8178 22.0509C23.8275 22.0509 23.8373 22.0509 23.847 22.0509C23.8567 22.0509 23.8665 22.0509 23.8761 22.0509C23.8858 22.0509 23.8955 22.0509 23.9051 22.0509C23.9148 22.0509 23.9244 22.0509 23.934 22.0509C23.9436 22.0509 23.9532 22.0509 23.9628 22.0509C23.9723 22.0509 23.9819 22.0509 23.9914 22.0509C24.0009 22.0509 24.0104 22.0509 24.0199 22.0509C24.0293 22.0509 24.0388 22.0509 24.0482 22.0509C24.0576 22.0509 24.067 22.0509 24.0764 22.0509C24.0858 22.0509 24.0952 22.0509 24.1045 22.0509C24.1138 22.0509 24.1232 22.0509 24.1325 22.0509C24.1418 22.0509 24.151 22.0509 24.1603 22.0509C24.1695 22.0509 24.1788 22.0509 24.188 22.0509C24.1972 22.0509 24.2063 22.0509 24.2155 22.0509C24.2247 22.0509 24.2338 22.0509 24.2429 22.0509C24.252 22.0509 24.2611 22.0509 24.2702 22.0509C24.2793 22.0509 24.2883 22.0509 24.2973 22.0509C24.3063 22.0509 24.3153 22.0509 24.3243 22.0509C24.3333 22.0509 24.3422 22.0509 24.3512 22.0509C24.3601 22.0509 24.369 22.0509 24.3779 22.0509V23.5509C24.369 23.5509 24.3601 23.5509 24.3512 23.5509C24.3422 23.5509 24.3333 23.5509 24.3243 23.5509C24.3153 23.5509 24.3063 23.5509 24.2973 23.5509C24.2883 23.5509 24.2793 23.5509 24.2702 23.5509C24.2611 23.5509 24.252 23.5509 24.2429 23.5509C24.2338 23.5509 24.2247 23.5509 24.2155 23.5509C24.2063 23.5509 24.1972 23.5509 24.188 23.5509C24.1788 23.5509 24.1695 23.5509 24.1603 23.5509C24.151 23.5509 24.1418 23.5509 24.1325 23.5509C24.1232 23.5509 24.1138 23.5509 24.1045 23.5509C24.0952 23.5509 24.0858 23.5509 24.0764 23.5509C24.067 23.5509 24.0576 23.5509 24.0482 23.5509C24.0388 23.5509 24.0293 23.5509 24.0199 23.5509C24.0104 23.5509 24.0009 23.5509 23.9914 23.5509C23.9819 23.5509 23.9723 23.5509 23.9628 23.5509C23.9532 23.5509 23.9436 23.5509 23.934 23.5509C23.9244 23.5509 23.9148 23.5509 23.9051 23.5509C23.8955 23.5509 23.8858 23.5509 23.8761 23.5509C23.8665 23.5509 23.8567 23.5509 23.847 23.5509C23.8373 23.5509 23.8275 23.5509 23.8178 23.5509C23.808 23.5509 23.7982 23.5509 23.7884 23.5509C23.7786 23.5509 23.7687 23.5509 23.7589 23.5509C23.749 23.5509 23.7391 23.5509 23.7292 23.5509C23.7193 23.5509 23.7094 23.5509 23.6995 23.5509C23.6895 23.5509 23.6796 23.5509 23.6696 23.5509C23.6596 23.5509 23.6496 23.5509 23.6396 23.5509C23.6296 23.5509 23.6195 23.5509 23.6095 23.5509C23.5994 23.5509 23.5893 23.5509 23.5792 23.5509C23.5691 23.5509 23.559 23.5509 23.5489 23.5509C23.5387 23.5509 23.5286 23.5509 23.5184 23.5509C23.5082 23.5509 23.498 23.5509 23.4878 23.5509C23.4776 23.5509 23.4673 23.5509 23.4571 23.5509C23.4468 23.5509 23.4365 23.5509 23.4262 23.5509C23.4159 23.5509 23.4056 23.5509 23.3953 23.5509C23.3849 23.5509 23.3746 23.5509 23.3642 23.5509C23.3538 23.5509 23.3434 23.5509 23.333 23.5509C23.3226 23.5509 23.3122 23.5509 23.3017 23.5509C23.2913 23.5509 23.2808 23.5509 23.2703 23.5509C23.2598 23.5509 23.2493 23.5509 23.2388 23.5509C23.2283 23.5509 23.2177 23.5509 23.2072 23.5509C23.1966 23.5509 23.186 23.5509 23.1754 23.5509C23.1648 23.5509 23.1542 23.5509 23.1436 23.5509C23.1329 23.5509 23.1223 23.5509 23.1116 23.5509C23.1009 23.5509 23.0902 23.5509 23.0795 23.5509C23.0688 23.5509 23.0581 23.5509 23.0473 23.5509C23.0366 23.5509 23.0258 23.5509 23.0151 23.5509C23.0043 23.5509 22.9935 23.5509 22.9827 23.5509C22.9718 23.5509 22.961 23.5509 22.9502 23.5509C22.9393 23.5509 22.9284 23.5509 22.9175 23.5509C22.9067 23.5509 22.8958 23.5509 22.8848 23.5509C22.8739 23.5509 22.863 23.5509 22.852 23.5509C22.8411 23.5509 22.8301 23.5509 22.8191 23.5509C22.8081 23.5509 22.7971 23.5509 22.7861 23.5509C22.7751 23.5509 22.764 23.5509 22.753 23.5509C22.7419 23.5509 22.7308 23.5509 22.7197 23.5509C22.7087 23.5509 22.6975 23.5509 22.6864 23.5509C22.6753 23.5509 22.6642 23.5509 22.653 23.5509C22.6418 23.5509 22.6307 23.5509 22.6195 23.5509C22.6083 23.5509 22.5971 23.5509 22.5859 23.5509C22.5746 23.5509 22.5634 23.5509 22.5522 23.5509C22.5409 23.5509 22.5296 23.5509 22.5184 23.5509C22.5071 23.5509 22.4958 23.5509 22.4844 23.5509C22.4731 23.5509 22.4618 23.5509 22.4504 23.5509C22.4391 23.5509 22.4277 23.5509 22.4164 23.5509C22.405 23.5509 22.3936 23.5509 22.3822 23.5509C22.3708 23.5509 22.3593 23.5509 22.3479 23.5509C22.3365 23.5509 22.325 23.5509 22.3135 23.5509C22.3021 23.5509 22.2906 23.5509 22.2791 23.5509C22.2676 23.5509 22.2561 23.5509 22.2445 23.5509C22.233 23.5509 22.2214 23.5509 22.2099 23.5509C22.1983 23.5509 22.1867 23.5509 22.1752 23.5509C22.1636 23.5509 22.152 23.5509 22.1403 23.5509C22.1287 23.5509 22.1171 23.5509 22.1054 23.5509C22.0938 23.5509 22.0821 23.5509 22.0705 23.5509C22.0588 23.5509 22.0471 23.5509 22.0354 23.5509C22.0237 23.5509 22.012 23.5509 22.0002 23.5509C21.9885 23.5509 21.9767 23.5509 21.965 23.5509C21.9532 23.5509 21.9415 23.5509 21.9297 23.5509C21.9179 23.5509 21.9061 23.5509 21.8943 23.5509C21.8824 23.5509 21.8706 23.5509 21.8588 23.5509C21.8469 23.5509 21.8351 23.5509 21.8232 23.5509C21.8113 23.5509 21.7994 23.5509 21.7876 23.5509C21.7757 23.5509 21.7637 23.5509 21.7518 23.5509C21.7399 23.5509 21.728 23.5509 21.716 23.5509C21.7041 23.5509 21.6921 23.5509 21.6801 23.5509C21.6682 23.5509 21.6562 23.5509 21.6442 23.5509C21.6322 23.5509 21.6202 23.5509 21.6081 23.5509C21.5961 23.5509 21.5841 23.5509 21.572 23.5509C21.56 23.5509 21.5479 23.5509 21.5358 23.5509C21.5238 23.5509 21.5117 23.5509 21.4996 23.5509C21.4875 23.5509 21.4754 23.5509 21.4632 23.5509C21.4511 23.5509 21.439 23.5509 21.4268 23.5509C21.4147 23.5509 21.4025 23.5509 21.3903 23.5509C21.3782 23.5509 21.366 23.5509 21.3538 23.5509C21.3416 23.5509 21.3294 23.5509 21.3172 23.5509C21.305 23.5509 21.2927 23.5509 21.2805 23.5509C21.2682 23.5509 21.256 23.5509 21.2437 23.5509C21.2315 23.5509 21.2192 23.5509 21.2069 23.5509C21.1946 23.5509 21.1823 23.5509 21.17 23.5509C21.1577 23.5509 21.1454 23.5509 21.133 23.5509C21.1207 23.5509 21.1084 23.5509 21.096 23.5509C21.0837 23.5509 21.0713 23.5509 21.0589 23.5509C21.0465 23.5509 21.0342 23.5509 21.0218 23.5509C21.0094 23.5509 20.997 23.5509 20.9845 23.5509C20.9721 23.5509 20.9597 23.5509 20.9473 23.5509C20.9348 23.5509 20.9224 23.5509 20.9099 23.5509C20.8975 23.5509 20.885 23.5509 20.8725 23.5509C20.86 23.5509 20.8475 23.5509 20.835 23.5509C20.8225 23.5509 20.81 23.5509 20.7975 23.5509C20.785 23.5509 20.7725 23.5509 20.7599 23.5509C20.7474 23.5509 20.7349 23.5509 20.7223 23.5509C20.7097 23.5509 20.6972 23.5509 20.6846 23.5509C20.672 23.5509 20.6594 23.5509 20.6468 23.5509C20.6342 23.5509 20.6216 23.5509 20.609 23.5509C20.5964 23.5509 20.5838 23.5509 20.5712 23.5509C20.5585 23.5509 20.5459 23.5509 20.5332 23.5509C20.5206 23.5509 20.5079 23.5509 20.4953 23.5509C20.4826 23.5509 20.4699 23.5509 20.4572 23.5509C20.4445 23.5509 20.4318 23.5509 20.4191 23.5509C20.4064 23.5509 20.3937 23.5509 20.381 23.5509C20.3683 23.5509 20.3556 23.5509 20.3428 23.5509C20.3301 23.5509 20.3173 23.5509 20.3046 23.5509C20.2918 23.5509 20.2791 23.5509 20.2663 23.5509C20.2535 23.5509 20.2408 23.5509 20.228 23.5509C20.2152 23.5509 20.2024 23.5509 20.1896 23.5509C20.1768 23.5509 20.164 23.5509 20.1512 23.5509C20.1384 23.5509 20.1255 23.5509 20.1127 23.5509C20.0999 23.5509 20.087 23.5509 20.0742 23.5509C20.0613 23.5509 20.0485 23.5509 20.0356 23.5509C20.0228 23.5509 20.0099 23.5509 19.997 23.5509C19.9841 23.5509 19.9713 23.5509 19.9584 23.5509C19.9455 23.5509 19.9326 23.5509 19.9197 23.5509C19.9068 23.5509 19.8939 23.5509 19.881 23.5509C19.868 23.5509 19.8551 23.5509 19.8422 23.5509C19.8293 23.5509 19.8163 23.5509 19.8034 23.5509C19.7904 23.5509 19.7775 23.5509 19.7645 23.5509C19.7516 23.5509 19.7386 23.5509 19.7256 23.5509C19.7127 23.5509 19.6997 23.5509 19.6867 23.5509C19.6737 23.5509 19.6607 23.5509 19.6477 23.5509C19.6347 23.5509 19.6217 23.5509 19.6087 23.5509C19.5957 23.5509 19.5827 23.5509 19.5697 23.5509C19.5567 23.5509 19.5436 23.5509 19.5306 23.5509C19.5176 23.5509 19.5046 23.5509 19.4915 23.5509C19.4785 23.5509 19.4654 23.5509 19.4524 23.5509C19.4393 23.5509 19.4263 23.5509 19.4132 23.5509C19.4001 23.5509 19.3871 23.5509 19.374 23.5509C19.3609 23.5509 19.3478 23.5509 19.3348 23.5509C19.3217 23.5509 19.3086 23.5509 19.2955 23.5509C19.2824 23.5509 19.2693 23.5509 19.2562 23.5509C19.2431 23.5509 19.23 23.5509 19.2169 23.5509C19.2038 23.5509 19.1906 23.5509 19.1775 23.5509C19.1644 23.5509 19.1513 23.5509 19.1381 23.5509C19.125 23.5509 19.1119 23.5509 19.0987 23.5509C19.0856 23.5509 19.0725 23.5509 19.0593 23.5509C19.0462 23.5509 19.033 23.5509 19.0199 23.5509C19.0067 23.5509 18.9935 23.5509 18.9804 23.5509C18.9672 23.5509 18.954 23.5509 18.9409 23.5509C18.9277 23.5509 18.9145 23.5509 18.9013 23.5509C18.8882 23.5509 18.875 23.5509 18.8618 23.5509C18.8486 23.5509 18.8354 23.5509 18.8222 23.5509C18.809 23.5509 18.7958 23.5509 18.7826 23.5509C18.7694 23.5509 18.7562 23.5509 18.743 23.5509C18.7298 23.5509 18.7166 23.5509 18.7034 23.5509C18.6902 23.5509 18.677 23.5509 18.6637 23.5509C18.6505 23.5509 18.6373 23.5509 18.6241 23.5509C18.6109 23.5509 18.5976 23.5509 18.5844 23.5509C18.5712 23.5509 18.5579 23.5509 18.5447 23.5509C18.5315 23.5509 18.5182 23.5509 18.505 23.5509C18.4918 23.5509 18.4785 23.5509 18.4653 23.5509C18.452 23.5509 18.4388 23.5509 18.4255 23.5509C18.4123 23.5509 18.399 23.5509 18.3858 23.5509C18.3725 23.5509 18.3593 23.5509 18.346 23.5509C18.3328 23.5509 18.3195 23.5509 18.3062 23.5509C18.293 23.5509 18.2797 23.5509 18.2664 23.5509C18.2532 23.5509 18.2399 23.5509 18.2267 23.5509C18.2134 23.5509 18.2001 23.5509 18.1868 23.5509C18.1736 23.5509 18.1603 23.5509 18.147 23.5509C18.1338 23.5509 18.1205 23.5509 18.1072 23.5509C18.0939 23.5509 18.0807 23.5509 18.0674 23.5509C18.0541 23.5509 18.0408 23.5509 18.0275 23.5509C18.0143 23.5509 18.001 23.5509 17.9877 23.5509C17.9744 23.5509 17.9611 23.5509 17.9479 23.5509C17.9346 23.5509 17.9213 23.5509 17.908 23.5509C17.8947 23.5509 17.8814 23.5509 17.8682 23.5509C17.8549 23.5509 17.8416 23.5509 17.8283 23.5509C17.815 23.5509 17.8017 23.5509 17.7884 23.5509C17.7752 23.5509 17.7619 23.5509 17.7486 23.5509C17.7353 23.5509 17.722 23.5509 17.7087 23.5509C17.6954 23.5509 17.6822 23.5509 17.6689 23.5509C17.6556 23.5509 17.6423 23.5509 17.629 23.5509C17.6157 23.5509 17.6025 23.5509 17.5892 23.5509C17.5759 23.5509 17.5626 23.5509 17.5493 23.5509C17.536 23.5509 17.5228 23.5509 17.5095 23.5509C17.4962 23.5509 17.4829 23.5509 17.4696 23.5509C17.4564 23.5509 17.4431 23.5509 17.4298 23.5509C17.4165 23.5509 17.4032 23.5509 17.39 23.5509C17.3767 23.5509 17.3634 23.5509 17.3501 23.5509C17.3369 23.5509 17.3236 23.5509 17.3103 23.5509C17.2971 23.5509 17.2838 23.5509 17.2705 23.5509C17.2573 23.5509 17.244 23.5509 17.2307 23.5509C17.2175 23.5509 17.2042 23.5509 17.1909 23.5509C17.1777 23.5509 17.1644 23.5509 17.1512 23.5509C17.1379 23.5509 17.1246 23.5509 17.1114 23.5509C17.0981 23.5509 17.0849 23.5509 17.0716 23.5509C17.0584 23.5509 17.0451 23.5509 17.0319 23.5509C17.0186 23.5509 17.0054 23.5509 16.9922 23.5509C16.9789 23.5509 16.9657 23.5509 16.9525 23.5509C16.9392 23.5509 16.926 23.5509 16.9128 23.5509C16.8995 23.5509 16.8863 23.5509 16.8731 23.5509C16.8598 23.5509 16.8466 23.5509 16.8334 23.5509C16.8202 23.5509 16.807 23.5509 16.7938 23.5509C16.7805 23.5509 16.7673 23.5509 16.7541 23.5509C16.7409 23.5509 16.7277 23.5509 16.7145 23.5509C16.7013 23.5509 16.6881 23.5509 16.6749 23.5509C16.6617 23.5509 16.6485 23.5509 16.6353 23.5509C16.6222 23.5509 16.609 23.5509 16.5958 23.5509C16.5826 23.5509 16.5694 23.5509 16.5563 23.5509C16.5431 23.5509 16.5299 23.5509 16.5168 23.5509C16.5036 23.5509 16.4904 23.5509 16.4773 23.5509C16.4641 23.5509 16.451 23.5509 16.4378 23.5509C16.4247 23.5509 16.4115 23.5509 16.3984 23.5509C16.3852 23.5509 16.3721 23.5509 16.359 23.5509C16.3458 23.5509 16.3327 23.5509 16.3196 23.5509C16.3065 23.5509 16.2933 23.5509 16.2802 23.5509C16.2671 23.5509 16.254 23.5509 16.2409 23.5509C16.2278 23.5509 16.2147 23.5509 16.2016 23.5509C16.1885 23.5509 16.1754 23.5509 16.1623 23.5509C16.1492 23.5509 16.1362 23.5509 16.1231 23.5509C16.11 23.5509 16.0969 23.5509 16.0839 23.5509C16.0708 23.5509 16.0578 23.5509 16.0447 23.5509C16.0316 23.5509 16.0186 23.5509 16.0056 23.5509C15.9925 23.5509 15.9795 23.5509 15.9664 23.5509C15.9534 23.5509 15.9404 23.5509 15.9274 23.5509C15.9143 23.5509 15.9013 23.5509 15.8883 23.5509C15.8753 23.5509 15.8623 23.5509 15.8493 23.5509C15.8363 23.5509 15.8233 23.5509 15.8103 23.5509C15.7974 23.5509 15.7844 23.5509 15.7714 23.5509C15.7584 23.5509 15.7455 23.5509 15.7325 23.5509C15.7196 23.5509 15.7066 23.5509 15.6937 23.5509C15.6807 23.5509 15.6678 23.5509 15.6548 23.5509C15.6419 23.5509 15.629 23.5509 15.6161 23.5509C15.6031 23.5509 15.5902 23.5509 15.5773 23.5509C15.5644 23.5509 15.5515 23.5509 15.5386 23.5509C15.5257 23.5509 15.5128 23.5509 15.5 23.5509C15.4871 23.5509 15.4742 23.5509 15.4614 23.5509C15.4485 23.5509 15.4356 23.5509 15.4228 23.5509C15.4099 23.5509 15.3971 23.5509 15.3843 23.5509C15.3714 23.5509 15.3586 23.5509 15.3458 23.5509C15.333 23.5509 15.3202 23.5509 15.3074 23.5509C15.2945 23.5509 15.2818 23.5509 15.269 23.5509C15.2562 23.5509 15.2434 23.5509 15.2306 23.5509C15.2179 23.5509 15.2051 23.5509 15.1923 23.5509C15.1796 23.5509 15.1668 23.5509 15.1541 23.5509C15.1414 23.5509 15.1286 23.5509 15.1159 23.5509C15.1032 23.5509 15.0905 23.5509 15.0778 23.5509C15.0651 23.5509 15.0524 23.5509 15.0397 23.5509C15.027 23.5509 15.0143 23.5509 15.0016 23.5509C14.989 23.5509 14.9763 23.5509 14.9637 23.5509C14.951 23.5509 14.9384 23.5509 14.9257 23.5509C14.9131 23.5509 14.9005 23.5509 14.8878 23.5509C14.8752 23.5509 14.8626 23.5509 14.85 23.5509C14.8374 23.5509 14.8248 23.5509 14.8123 23.5509C14.7997 23.5509 14.7871 23.5509 14.7746 23.5509C14.762 23.5509 14.7494 23.5509 14.7369 23.5509C14.7244 23.5509 14.7118 23.5509 14.6993 23.5509C14.6868 23.5509 14.6743 23.5509 14.6618 23.5509C14.6493 23.5509 14.6368 23.5509 14.6243 23.5509C14.6118 23.5509 14.5993 23.5509 14.5869 23.5509C14.5744 23.5509 14.562 23.5509 14.5495 23.5509C14.5371 23.5509 14.5247 23.5509 14.5122 23.5509C14.4998 23.5509 14.4874 23.5509 14.475 23.5509C14.4626 23.5509 14.4502 23.5509 14.4378 23.5509C14.4255 23.5509 14.4131 23.5509 14.4007 23.5509C14.3884 23.5509 14.376 23.5509 14.3637 23.5509C14.3514 23.5509 14.339 23.5509 14.3267 23.5509C14.3144 23.5509 14.3021 23.5509 14.2898 23.5509C14.2775 23.5509 14.2653 23.5509 14.253 23.5509C14.2407 23.5509 14.2285 23.5509 14.2162 23.5509C14.204 23.5509 14.1917 23.5509 14.1795 23.5509C14.1673 23.5509 14.1551 23.5509 14.1429 23.5509C14.1307 23.5509 14.1185 23.5509 14.1063 23.5509C14.0941 23.5509 14.082 23.5509 14.0698 23.5509C14.0577 23.5509 14.0455 23.5509 14.0334 23.5509C14.0213 23.5509 14.0092 23.5509 13.9971 23.5509C13.985 23.5509 13.9729 23.5509 13.9608 23.5509C13.9487 23.5509 13.9366 23.5509 13.9246 23.5509C13.9125 23.5509 13.9005 23.5509 13.8885 23.5509C13.8764 23.5509 13.8644 23.5509 13.8524 23.5509C13.8404 23.5509 13.8284 23.5509 13.8164 23.5509C13.8045 23.5509 13.7925 23.5509 13.7805 23.5509C13.7686 23.5509 13.7567 23.5509 13.7447 23.5509C13.7328 23.5509 13.7209 23.5509 13.709 23.5509C13.6971 23.5509 13.6852 23.5509 13.6733 23.5509C13.6615 23.5509 13.6496 23.5509 13.6377 23.5509C13.6259 23.5509 13.6141 23.5509 13.6022 23.5509C13.5904 23.5509 13.5786 23.5509 13.5668 23.5509C13.555 23.5509 13.5433 23.5509 13.5315 23.5509C13.5197 23.5509 13.508 23.5509 13.4962 23.5509C13.4845 23.5509 13.4728 23.5509 13.4611 23.5509C13.4494 23.5509 13.4377 23.5509 13.426 23.5509C13.4143 23.5509 13.4026 23.5509 13.391 23.5509C13.3793 23.5509 13.3677 23.5509 13.3561 23.5509C13.3444 23.5509 13.3328 23.5509 13.3212 23.5509C13.3096 23.5509 13.2981 23.5509 13.2865 23.5509C13.2749 23.5509 13.2634 23.5509 13.2519 23.5509C13.2403 23.5509 13.2288 23.5509 13.2173 23.5509C13.2058 23.5509 13.1943 23.5509 13.1828 23.5509C13.1713 23.5509 13.1599 23.5509 13.1484 23.5509C13.137 23.5509 13.1256 23.5509 13.1141 23.5509C13.1027 23.5509 13.0913 23.5509 13.0799 23.5509C13.0686 23.5509 13.0572 23.5509 13.0458 23.5509C13.0345 23.5509 13.0231 23.5509 13.0118 23.5509C13.0005 23.5509 12.9892 23.5509 12.9779 23.5509C12.9666 23.5509 12.9553 23.5509 12.9441 23.5509C12.9328 23.5509 12.9216 23.5509 12.9104 23.5509C12.8991 23.5509 12.8879 23.5509 12.8767 23.5509C12.8655 23.5509 12.8544 23.5509 12.8432 23.5509C12.832 23.5509 12.8209 23.5509 12.8098 23.5509C12.7986 23.5509 12.7875 23.5509 12.7764 23.5509C12.7653 23.5509 12.7543 23.5509 12.7432 23.5509C12.7321 23.5509 12.7211 23.5509 12.7101 23.5509C12.699 23.5509 12.688 23.5509 12.677 23.5509C12.666 23.5509 12.655 23.5509 12.6441 23.5509C12.6331 23.5509 12.6222 23.5509 12.6113 23.5509C12.6003 23.5509 12.5894 23.5509 12.5785 23.5509C12.5676 23.5509 12.5568 23.5509 12.5459 23.5509C12.535 23.5509 12.5242 23.5509 12.5134 23.5509C12.5026 23.5509 12.4918 23.5509 12.481 23.5509C12.4702 23.5509 12.4594 23.5509 12.4487 23.5509C12.4379 23.5509 12.4272 23.5509 12.4165 23.5509C12.4058 23.5509 12.3951 23.5509 12.3844 23.5509C12.3737 23.5509 12.363 23.5509 12.3524 23.5509C12.3418 23.5509 12.3311 23.5509 12.3205 23.5509C12.3099 23.5509 12.2993 23.5509 12.2888 23.5509C12.2782 23.5509 12.2676 23.5509 12.2571 23.5509C12.2466 23.5509 12.2361 23.5509 12.2256 23.5509C12.2151 23.5509 12.2046 23.5509 12.1941 23.5509C12.1837 23.5509 12.1732 23.5509 12.1628 23.5509C12.1524 23.5509 12.142 23.5509 12.1316 23.5509C12.1212 23.5509 12.1109 23.5509 12.1005 23.5509C12.0902 23.5509 12.0799 23.5509 12.0696 23.5509C12.0593 23.5509 12.049 23.5509 12.0387 23.5509C12.0284 23.5509 12.0182 23.5509 12.008 23.5509C11.9977 23.5509 11.9875 23.5509 11.9774 23.5509C11.9672 23.5509 11.957 23.5509 11.9469 23.5509C11.9367 23.5509 11.9266 23.5509 11.9165 23.5509C11.9064 23.5509 11.8963 23.5509 11.8862 23.5509C11.8761 23.5509 11.8661 23.5509 11.8561 23.5509C11.846 23.5509 11.836 23.5509 11.8261 23.5509C11.8161 23.5509 11.8061 23.5509 11.7962 23.5509C11.7862 23.5509 11.7763 23.5509 11.7664 23.5509C11.7565 23.5509 11.7466 23.5509 11.7367 23.5509C11.7269 23.5509 11.717 23.5509 11.7072 23.5509C11.6974 23.5509 11.6876 23.5509 11.6778 23.5509C11.668 23.5509 11.6583 23.5509 11.6485 23.5509C11.6388 23.5509 11.6291 23.5509 11.6194 23.5509C11.6097 23.5509 11.6 23.5509 11.5904 23.5509C11.5807 23.5509 11.5711 23.5509 11.5615 23.5509C11.5519 23.5509 11.5423 23.5509 11.5327 23.5509C11.5231 23.5509 11.5136 23.5509 11.5041 23.5509C11.4946 23.5509 11.485 23.5509 11.4756 23.5509C11.4661 23.5509 11.4566 23.5509 11.4472 23.5509C11.4378 23.5509 11.4284 23.5509 11.419 23.5509C11.4096 23.5509 11.4002 23.5509 11.3909 23.5509C11.3815 23.5509 11.3722 23.5509 11.3629 23.5509C11.3536 23.5509 11.3443 23.5509 11.335 23.5509C11.3258 23.5509 11.3166 23.5509 11.3073 23.5509C11.2981 23.5509 11.2889 23.5509 11.2798 23.5509C11.2706 23.5509 11.2615 23.5509 11.2523 23.5509C11.2432 23.5509 11.2341 23.5509 11.225 23.5509C11.216 23.5509 11.2069 23.5509 11.1979 23.5509C11.1889 23.5509 11.1799 23.5509 11.1709 23.5509C11.1619 23.5509 11.1529 23.5509 11.144 23.5509C11.1351 23.5509 11.1262 23.5509 11.1173 23.5509C11.1084 23.5509 11.0995 23.5509 11.0907 23.5509C11.0818 23.5509 11.073 23.5509 11.0642 23.5509C11.0554 23.5509 11.0466 23.5509 11.0379 23.5509C11.0292 23.5509 11.0204 23.5509 11.0117 23.5509C11.003 23.5509 10.9944 23.5509 10.9857 23.5509C10.9771 23.5509 10.9684 23.5509 10.9598 23.5509C10.9512 23.5509 10.9427 23.5509 10.9341 23.5509C10.9255 23.5509 10.917 23.5509 10.9085 23.5509C10.9 23.5509 10.8915 23.5509 10.8831 23.5509C10.8746 23.5509 10.8662 23.5509 10.8578 23.5509C10.8494 23.5509 10.841 23.5509 10.8326 23.5509C10.8243 23.5509 10.816 23.5509 10.8076 23.5509C10.7993 23.5509 10.7911 23.5509 10.7828 23.5509C10.7745 23.5509 10.7663 23.5509 10.7581 23.5509C10.7499 23.5509 10.7417 23.5509 10.7336 23.5509C10.7254 23.5509 10.7173 23.5509 10.7092 23.5509C10.7011 23.5509 10.693 23.5509 10.6849 23.5509C10.6769 23.5509 10.6689 23.5509 10.6609 23.5509C10.6529 23.5509 10.6449 23.5509 10.6369 23.5509C10.629 23.5509 10.6211 23.5509 10.6132 23.5509C10.6053 23.5509 10.5974 23.5509 10.5896 23.5509C10.5817 23.5509 10.5739 23.5509 10.5661 23.5509C10.5583 23.5509 10.5505 23.5509 10.5428 23.5509C10.5351 23.5509 10.5273 23.5509 10.5197 23.5509C10.512 23.5509 10.5043 23.5509 10.4967 23.5509C10.489 23.5509 10.4814 23.5509 10.4739 23.5509C10.4663 23.5509 10.4587 23.5509 10.4512 23.5509C10.4437 23.5509 10.4362 23.5509 10.4287 23.5509C10.4212 23.5509 10.4138 23.5509 10.4064 23.5509C10.3989 23.5509 10.3916 23.5509 10.3842 23.5509C10.3768 23.5509 10.3695 23.5509 10.3622 23.5509C10.3549 23.5509 10.3476 23.5509 10.3403 23.5509C10.3331 23.5509 10.3258 23.5509 10.3187 23.5509C10.3115 23.5509 10.3043 23.5509 10.2971 23.5509C10.29 23.5509 10.2829 23.5509 10.2758 23.5509C10.2687 23.5509 10.2616 23.5509 10.2546 23.5509C10.2476 23.5509 10.2406 23.5509 10.2336 23.5509C10.2266 23.5509 10.2197 23.5509 10.2128 23.5509C10.2058 23.5509 10.1989 23.5509 10.1921 23.5509C10.1852 23.5509 10.1784 23.5509 10.1716 23.5509C10.1648 23.5509 10.158 23.5509 10.1512 23.5509C10.1445 23.5509 10.1378 23.5509 10.1311 23.5509C10.1244 23.5509 10.1177 23.5509 10.1111 23.5509C10.1045 23.5509 10.0979 23.5509 10.0913 23.5509C10.0847 23.5509 10.0782 23.5509 10.0717 23.5509C10.0651 23.5509 10.0586 23.5509 10.0522 23.5509C10.0457 23.5509 10.0393 23.5509 10.0329 23.5509C10.0265 23.5509 10.0201 23.5509 10.0138 23.5509C10.0075 23.5509 10.0011 23.5509 9.99486 23.5509C9.98858 23.5509 9.98233 23.5509 9.97611 23.5509C9.96988 23.5509 9.96369 23.5509 9.95753 23.5509C9.95137 23.5509 9.94524 23.5509 9.93913 23.5509C9.93303 23.5509 9.92696 23.5509 9.92092 23.5509C9.91488 23.5509 9.90886 23.5509 9.90288 23.5509C9.8969 23.5509 9.89095 23.5509 9.88503 23.5509C9.87911 23.5509 9.87322 23.5509 9.86736 23.5509C9.8615 23.5509 9.85567 23.5509 9.84987 23.5509C9.84407 23.5509 9.83831 23.5509 9.83257 23.5509C9.82683 23.5509 9.82113 23.5509 9.81545 23.5509C9.80978 23.5509 9.80413 23.5509 9.79852 23.5509C9.79291 23.5509 9.78732 23.5509 9.78177 23.5509C9.77622 23.5509 9.7707 23.5509 9.76522 23.5509C9.75973 23.5509 9.75427 23.5509 9.74885 23.5509C9.74342 23.5509 9.73803 23.5509 9.73266 23.5509C9.7273 23.5509 9.72197 23.5509 9.71667 23.5509C9.71137 23.5509 9.70611 23.5509 9.70087 23.5509C9.69563 23.5509 9.69043 23.5509 9.68526 23.5509C9.68009 23.5509 9.67495 23.5509 9.66984 23.5509C9.66473 23.5509 9.65966 23.5509 9.65461 23.5509C9.64957 23.5509 9.64456 23.5509 9.63958 23.5509C9.6346 23.5509 9.62965 23.5509 9.62474 23.5509C9.61983 23.5509 9.61494 23.5509 9.61009 23.5509C9.60525 23.5509 9.60043 23.5509 9.59565 23.5509C9.59086 23.5509 9.58611 23.5509 9.58139 23.5509C9.57667 23.5509 9.57199 23.5509 9.56734 23.5509C9.56268 23.5509 9.55806 23.5509 9.55348 23.5509C9.54889 23.5509 9.54434 23.5509 9.53982 23.5509C9.5353 23.5509 9.53081 23.5509 9.52636 23.5509C9.5219 23.5509 9.51748 23.5509 9.5131 23.5509C9.50871 23.5509 9.50436 23.5509 9.50004 23.5509C9.49572 23.5509 9.49143 23.5509 9.48718 23.5509C9.48293 23.5509 9.47871 23.5509 9.47452 23.5509C9.47034 23.5509 9.46619 23.5509 9.46207 23.5509C9.45795 23.5509 9.45387 23.5509 9.44982 23.5509C9.44577 23.5509 9.44176 23.5509 9.43777 23.5509C9.43379 23.5509 9.42985 23.5509 9.42594 23.5509C9.42202 23.5509 9.41815 23.5509 9.4143 23.5509C9.41046 23.5509 9.40665 23.5509 9.40288 23.5509C9.3991 23.5509 9.39536 23.5509 9.39166 23.5509C9.38795 23.5509 9.38428 23.5509 9.38065 23.5509C9.37701 23.5509 9.37341 23.5509 9.36985 23.5509C9.36628 23.5509 9.36275 23.5509 9.35925 23.5509C9.35576 23.5509 9.3523 23.5509 9.34887 23.5509C9.34545 23.5509 9.34206 23.5509 9.3387 23.5509C9.33535 23.5509 9.33203 23.5509 9.32875 23.5509C9.32546 23.5509 9.32221 23.5509 9.319 23.5509C9.31579 23.5509 9.31261 23.5509 9.30947 23.5509C9.30633 23.5509 9.30322 23.5509 9.30015 23.5509C9.29708 23.5509 9.29405 23.5509 9.29105 23.5509C9.28806 23.5509 9.28509 23.5509 9.28217 23.5509C9.27924 23.5509 9.27635 23.5509 9.2735 23.5509C9.27065 23.5509 9.26783 23.5509 9.26505 23.5509C9.26227 23.5509 9.25952 23.5509 9.25681 23.5509C9.2541 23.5509 9.25143 23.5509 9.2488 23.5509C9.24616 23.5509 9.24356 23.5509 9.241 23.5509C9.23844 23.5509 9.23592 23.5509 9.23343 23.5509C9.23094 23.5509 9.22849 23.5509 9.22608 23.5509C9.22366 23.5509 9.22128 23.5509 9.21894 23.5509C9.2166 23.5509 9.2143 23.5509 9.21204 23.5509C9.20977 23.5509 9.20754 23.5509 9.20535 23.5509C9.20316 23.5509 9.20101 23.5509 9.19889 23.5509C9.19677 23.5509 9.19469 23.5509 9.19265 23.5509C9.19061 23.5509 9.18861 23.5509 9.18664 23.5509C9.18468 23.5509 9.18275 23.5509 9.18086 23.5509C9.17897 23.5509 9.17712 23.5509 9.1753 23.5509C9.17349 23.5509 9.17171 23.5509 9.16997 23.5509C9.16824 23.5509 9.16654 23.5509 9.16487 23.5509C9.16321 23.5509 9.16159 23.5509 9.16 23.5509C9.15842 23.5509 9.15687 23.5509 9.15536 23.5509C9.15385 23.5509 9.15238 23.5509 9.15095 23.5509C9.14952 23.5509 9.14813 23.5509 9.14678 23.5509C9.14542 23.5509 9.14411 23.5509 9.14283 23.5509C9.14155 23.5509 9.14032 23.5509 9.13912 23.5509C9.13792 23.5509 9.13676 23.5509 9.13564 23.5509C9.13452 23.5509 9.13344 23.5509 9.1324 23.5509C9.13136 23.5509 9.13035 23.5509 9.12939 23.5509C9.12843 23.5509 9.1275 23.5509 9.12662 23.5509C9.12573 23.5509 9.12489 23.5509 9.12408 23.5509C9.12328 23.5509 9.12251 23.5509 9.12179 23.5509C9.12106 23.5509 9.12038 23.5509 9.11973 23.5509C9.11908 23.5509 9.11848 23.5509 9.11791 23.5509C9.11735 23.5509 9.11682 23.5509 9.11633 23.5509C9.11585 23.5509 9.1154 23.5509 9.11499 23.5509C9.11459 23.5509 9.11422 23.5509 9.1139 23.5509C9.11357 23.5509 9.11329 23.5509 9.11304 23.5509C9.1128 23.5509 9.1126 23.5509 9.11243 23.5509C9.11227 23.5509 9.11215 23.5509 9.11207 23.5509C9.11198 23.5509 9.11194 23.5509 9.11194 22.8009ZM24.3779 22.0509C26.4412 22.0509 27.8551 23.411 28.7012 24.6047C29.1325 25.2133 29.4451 25.817 29.6495 26.2659C29.7522 26.4914 29.8289 26.6806 29.8805 26.8154C29.9064 26.8829 29.926 26.937 29.9396 26.9754C29.9464 26.9946 29.9517 27.0099 29.9555 27.0211C29.9574 27.0266 29.959 27.0312 29.9601 27.0346C29.9607 27.0364 29.9612 27.0378 29.9616 27.039C29.9618 27.0396 29.9619 27.0401 29.9621 27.0406C29.9622 27.0408 29.9623 27.0411 29.9623 27.0412C29.9624 27.0415 29.9625 27.0417 29.25 27.276C28.5375 27.5102 28.5376 27.5104 28.5377 27.5106C28.5377 27.5107 28.5377 27.5109 28.5378 27.511C28.5378 27.5112 28.5379 27.5113 28.5379 27.5113C28.5379 27.5114 28.5379 27.5113 28.5377 27.5108C28.5374 27.51 28.5368 27.5081 28.5358 27.5052C28.5338 27.4994 28.5305 27.4896 28.5257 27.4761C28.5161 27.4489 28.5008 27.4069 28.4798 27.352C28.4377 27.2421 28.3728 27.0816 28.2844 26.8876C28.1067 26.4974 27.8389 25.9823 27.4774 25.4721C26.7375 24.4283 25.7154 23.5509 24.3779 23.5509V22.0509ZM28.5 27.276V9.37549H30V27.276H28.5ZM29.25 10.1255H9.11194V8.62549H29.25V10.1255ZM9.86194 9.37549V22.8009H8.36194V9.37549H9.86194Z" fill="#0B6AB7"/>
<path d="M14.4996 14.3588L13.1983 14.9071L12.6593 16.231L13.1983 17.5548L14.4996 18.1031L15.8008 17.5548L16.3398 16.231L15.8008 14.9071L14.4996 14.3588Z" fill="#0B6AB7"/>
<path d="M19.1793 14.3588L17.878 14.9071L17.339 16.231L17.878 17.5548L19.1793 18.1031L20.4805 17.5548L21.0195 16.231L20.4805 14.9071L19.1793 14.3588Z" fill="#0B6AB7"/>
<path d="M23.8609 14.3588L22.5596 14.9071L22.0206 16.231L22.5596 17.5548L23.8609 18.1031L25.1622 17.5548L25.7012 16.231L25.1622 14.9071L23.8609 14.3588Z" fill="#0B6AB7"/>
</svg>
