<svg width="32" height="32" viewBox="0 0 32 32" fill="none"
    xmlns="http://www.w3.org/2000/svg">
    <circle class="circle" cx="16" cy="16" r="15.5" stroke="#F2F2F2"/>
    <circle class="circle" cx="16" cy="16" r="16" fill="#F2F2F2"/>
    <path class="share-design" d="M10.4191 21.1358H13.0291V12.642H10.4191V21.1358Z" fill="#0F0F0F"/>
    <path class="share-design" d="M10.2221 9.92594C10.2221 10.7654 10.9115 11.4568 11.7487 11.4568C12.5859 11.4568 13.2754 10.8148 13.2754 9.97532C13.2754 9.13582 12.5859 8.44446 11.7487 8.44446C10.9115 8.44446 10.2221 9.08643 10.2221 9.92594Z" fill="#0F0F0F"/>
    <path class="share-design" d="M20.3175 21.1358H22.9276V16.4445C22.9276 14.1729 22.4351 12.3951 19.7758 12.3951C18.4954 12.3951 17.609 13.0864 17.2643 13.7778H17.215V12.642H14.7035V21.0864H17.3628V16.8889C17.3628 15.8025 17.5597 14.7161 18.9386 14.7161C20.3175 14.7161 20.3175 16 20.3175 16.9877V21.1358Z" fill="#0F0F0F"/>
</svg>
