<svg width="33" height="33" viewBox="0 0 33 33" fill="none" xmlns="http://www.w3.org/2000/svg">
<path d="M6.5957 9.776V22.776C6.5957 23.0521 6.81956 23.276 7.0957 23.276H25.731C26.0072 23.276 26.231 23.0521 26.231 22.776V9.776C26.231 9.49986 26.0072 9.276 25.731 9.276H7.0957C6.81956 9.276 6.5957 9.49986 6.5957 9.776Z" stroke="#0B6AB7" stroke-width="1.5" stroke-linecap="round" stroke-linejoin="round"/>
<path d="M25.714 9.64314L16.5772 17.524L17.5569 18.6599L26.6937 10.779L25.714 9.64314ZM16.2506 17.524L7.1169 9.64322L6.137 10.7789L15.2707 18.6597L16.2506 17.524ZM16.5772 17.524C16.4834 17.605 16.3444 17.605 16.2506 17.524L15.2707 18.6597C15.9274 19.2263 16.9001 19.2264 17.5569 18.6599L16.5772 17.524Z" fill="#0B6AB7"/>
</svg>
