<svg width="33" height="33" viewBox="0 0 33 33" fill="none"
    xmlns="http://www.w3.org/2000/svg">
    <circle class="color" cx="16.8501" cy="16.1914" r="16" fill="#F2F2F2"/>
    <path class="outline" d="M8.58301 20.4599H7.83301C7.83301 20.8741 8.16879 21.2099 8.58301 21.2099V20.4599ZM8.58301 9.19141V8.44141C8.16879 8.44141 7.83301 8.77719 7.83301 9.19141H8.58301ZM24.3873 9.19141H25.1373C25.1373 8.77719 24.8015 8.44141 24.3873 8.44141V9.19141ZM13.0234 21.2099H13.7734V19.7099H13.0234V21.2099ZM23.6373 16.3265V17.0765H25.1373V16.3265H23.6373ZM9.33301 20.4599V9.19141H7.83301V20.4599H9.33301ZM8.58301 9.94141H24.3873V8.44141H8.58301V9.94141ZM23.6373 9.19141V15.1918H25.1373V9.19141H23.6373ZM13.0234 19.7099H8.58301V21.2099H13.0234V19.7099ZM23.6373 15.1918V16.3265H25.1373V15.1918H23.6373Z" fill="#0F0F0F"/>
    <path class="outline" d="M17.1385 16.1773L17.6283 16.7452L17.1385 16.1773ZM23.8753 9.37605L16.6486 15.6094L17.6283 16.7452L24.855 10.5119L23.8753 9.37605ZM16.322 15.6093L9.09786 9.37613L8.11796 10.5118L15.3421 16.745L16.322 15.6093ZM16.6486 15.6094C16.5548 15.6903 16.4158 15.6903 16.322 15.6093L15.3421 16.745C15.9988 17.3117 16.9715 17.3117 17.6283 16.7452L16.6486 15.6094Z" fill="#0F0F0F"/>
    <circle class="outline-email-innercircle" cx="20.6082" cy="22.6824" r="4.50907" stroke="#0F0F0F" stroke-width="1.25"/>
    <path class="outline-email-innercircle" d="M18.341 22.6824H21.7417" stroke="#0F0F0F" stroke-width="1.25" stroke-linecap="square" stroke-linejoin="round"/>
    <path class="outline-email-innercircle" d="M20.6084 24.9495L22.8755 22.6823L20.6084 20.4152" stroke="#0F0F0F" stroke-linecap="square" stroke-linejoin="round"/>
</svg>
