<svg width="33" height="33" viewBox="0 0 33 33" fill="none" xmlns="http://www.w3.org/2000/svg">
<circle cx="16.8501" cy="16.1914" r="15.5" stroke="#0F0F0F"/>
<circle cx="16.8501" cy="16.1914" r="16" fill="#0F0F0F"/>
<path d="M11.2692 21.3272H13.8793V12.8334H11.2692V21.3272Z" fill="white"/>
<path d="M11.0723 10.1173C11.0723 10.9569 11.7617 11.6482 12.5989 11.6482C13.4361 11.6482 14.1255 11.0062 14.1255 10.1667C14.1255 9.32722 13.4361 8.63586 12.5989 8.63586C11.7617 8.63586 11.0723 9.27784 11.0723 10.1173Z" fill="white"/>
<path d="M21.1677 21.3272H23.7777V16.6359C23.7777 14.3643 23.2853 12.5865 20.626 12.5865C19.3456 12.5865 18.4592 13.2778 18.1144 13.9692H18.0652V12.8334H15.5536V21.2778H18.2129V17.0803C18.2129 15.9939 18.4099 14.9075 19.7888 14.9075C21.1677 14.9075 21.1677 16.1914 21.1677 17.1791V21.3272Z" fill="white"/>
</svg>
