<svg width="33" height="33" viewBox="0 0 33 33" fill="none" xmlns="http://www.w3.org/2000/svg">
<path d="M19.5248 27.8653C16.8575 28.58 14.1158 26.9971 13.4011 24.3298C12.1933 19.8222 10.9855 15.3145 9.77766 10.8068C9.06295 8.13951 10.6459 5.39783 13.3132 4.68312L14.9149 4.25394C15.4484 4.11099 15.9967 4.42758 16.1397 4.96104L17.3466 9.4652C17.6269 10.5113 17.0236 11.5905 15.9856 11.8996L14.0927 12.4634L16.3098 20.7377L18.231 20.2795C19.2844 20.0282 20.3465 20.6611 20.6268 21.7073L21.8337 26.2114C21.9766 26.7449 21.6601 27.2932 21.1266 27.4362L19.5248 27.8653Z" fill="white" stroke="#0B6AB7" stroke-width="1.5" stroke-linecap="round" stroke-linejoin="round"/>
<path d="M22.8262 20.9153L24.0167 25.3585" stroke="#0AA5FF" stroke-width="1.25" stroke-linecap="round" stroke-linejoin="round"/>
<path d="M18.3984 4.39404L19.589 8.83728" stroke="#0AA5FF" stroke-width="1.25" stroke-linecap="round" stroke-linejoin="round"/>
</svg>
