<svg width="33" height="33" viewBox="0 0 33 33" fill="none" xmlns="http://www.w3.org/2000/svg">
<circle cx="16.8501" cy="16.1914" r="16" fill="#0F0F0F"/>
<path d="M17.988 16.1913C17.988 18.98 15.7428 21.2405 12.9746 21.2405C10.2064 21.2405 7.96118 18.9783 7.96118 16.1913C7.96118 13.4044 10.2064 11.1422 12.9746 11.1422C15.7428 11.1422 17.988 13.4027 17.988 16.1913Z" fill="white"/>
<path d="M23.4885 16.1913C23.4885 18.8164 22.3659 20.944 20.9809 20.944C19.596 20.944 18.4734 18.8164 18.4734 16.1913C18.4734 13.5662 19.596 11.4385 20.9809 11.4385C22.3659 11.4385 23.4885 13.5662 23.4885 16.1913Z" fill="white"/>
<path d="M25.7389 16.1911C25.7389 18.542 25.3437 20.4482 24.8565 20.4482C24.3693 20.4482 23.9741 18.542 23.9741 16.1911C23.9741 13.8403 24.3693 11.9341 24.8565 11.9341C25.3437 11.9341 25.7389 13.8386 25.7389 16.1911Z" fill="white"/>
</svg>
