<svg width="33" height="33" viewBox="0 0 33 33" fill="none"
  xmlns="http://www.w3.org/2000/svg">
  <path class="location-icon" fill-rule="evenodd" clip-rule="evenodd" d="M22.5641 21.2112C24.2452 19.239 25.1929 17.2673 25.1929 14.9002C25.1929 9.84235 21.0927 5.74219 16.0349 5.74219C10.9771 5.74219 6.87695 9.84235 6.87695 14.9002C6.87695 17.2673 7.82466 19.239 9.5058 21.2112C11.1037 23.0857 13.2639 24.8505 15.76 26.8898C15.8512 26.9643 15.9428 27.0392 16.0349 27.1144C16.127 27.0392 16.2187 26.9643 16.3098 26.8898C18.806 24.8505 20.9662 23.0857 22.5641 21.2112ZM17.2896 28.0265C22.4154 23.8404 26.6929 20.3472 26.6929 14.9002C26.6929 9.01393 21.9212 4.24219 16.0349 4.24219C10.1487 4.24219 5.37695 9.01393 5.37695 14.9002C5.37695 20.3472 9.65447 23.8405 14.7803 28.0265C14.9849 28.1936 15.1909 28.3618 15.3979 28.5312C15.7681 28.8341 16.3018 28.8341 16.6719 28.5312C16.879 28.3618 17.085 28.1936 17.2896 28.0265Z" fill="#0B6AB7"/>
  <circle class="location-icon" cx="16.0349" cy="14.6345" r="2.92943" stroke="#0B6AB7" stroke-width="1.5"/>
  <path class="location-icon-line" d="M22.8895 24.9463C21.0905 26.7053 18.9402 28.4247 16.6702 30.2832C16.3001 30.5862 15.7672 30.5862 15.3971 30.2832C13.127 28.4247 10.9768 26.7053 9.17773 24.9463" stroke="#0AA5FF" stroke-width="1.25" stroke-linecap="round"/>
</svg>
