<svg width="33" height="33" viewBox="0 0 33 33" fill="none" xmlns="http://www.w3.org/2000/svg">
<circle cx="16.8501" cy="16.1914" r="16" fill="#0F0F0F"/>
<path fill-rule="evenodd" clip-rule="evenodd" d="M16.8501 8.19141C14.6774 8.19141 14.405 8.20061 13.5517 8.23955C12.7002 8.27839 12.1187 8.41363 11.6098 8.61141C11.0837 8.81582 10.6376 9.08937 10.1928 9.53411C9.74807 9.97889 9.47451 10.425 9.2701 10.9511C9.07232 11.46 8.93708 12.0415 8.89824 12.893C8.85931 13.7463 8.8501 14.0187 8.8501 16.1914C8.8501 18.3641 8.85931 18.6365 8.89824 19.4898C8.93708 20.3413 9.07232 20.9229 9.2701 21.4317C9.47451 21.9578 9.74807 22.4039 10.1928 22.8487C10.6376 23.2934 11.0837 23.567 11.6098 23.7714C12.1187 23.9692 12.7002 24.1044 13.5517 24.1433C14.405 24.1822 14.6774 24.1914 16.8501 24.1914C19.0228 24.1914 19.2952 24.1822 20.1485 24.1433C21 24.1044 21.5815 23.9692 22.0904 23.7714C22.6165 23.567 23.0626 23.2934 23.5074 22.8487C23.9521 22.4039 24.2257 21.9578 24.4301 21.4317C24.6279 20.9229 24.7631 20.3413 24.802 19.4898C24.8409 18.6365 24.8501 18.3641 24.8501 16.1914C24.8501 14.0187 24.8409 13.7463 24.802 12.893C24.7631 12.0415 24.6279 11.46 24.4301 10.9511C24.2257 10.425 23.9521 9.97889 23.5074 9.53411C23.0626 9.08937 22.6165 8.81582 22.0904 8.61141C21.5815 8.41363 21 8.27839 20.1485 8.23955C19.2952 8.20061 19.0228 8.19141 16.8501 8.19141ZM16.8501 9.63284C18.9862 9.63284 19.2392 9.64101 20.0828 9.67949C20.8628 9.71506 21.2864 9.84539 21.5683 9.95495C21.9417 10.1001 22.2082 10.2734 22.4881 10.5534C22.7681 10.8333 22.9414 11.0998 23.0865 11.4732C23.1961 11.7551 23.3264 12.1787 23.362 12.9587C23.4005 13.8023 23.4087 14.0553 23.4087 16.1914C23.4087 18.3275 23.4005 18.5805 23.362 19.4241C23.3264 20.2041 23.1961 20.6277 23.0865 20.9096C22.9414 21.283 22.7681 21.5495 22.4881 21.8294C22.2082 22.1094 21.9417 22.2827 21.5683 22.4279C21.2864 22.5374 20.8628 22.6678 20.0828 22.7033C19.2393 22.7418 18.9863 22.75 16.8501 22.75C14.7139 22.75 14.4609 22.7418 13.6174 22.7033C12.8374 22.6678 12.4138 22.5374 12.1319 22.4279C11.7585 22.2827 11.492 22.1094 11.2121 21.8294C10.9321 21.5495 10.7588 21.283 10.6136 20.9096C10.5041 20.6277 10.3738 20.2041 10.3382 19.4241C10.2997 18.5805 10.2915 18.3275 10.2915 16.1914C10.2915 14.0553 10.2997 13.8023 10.3382 12.9587C10.3738 12.1787 10.5041 11.7551 10.6136 11.4732C10.7588 11.0998 10.9321 10.8333 11.2121 10.5534C11.492 10.2734 11.7585 10.1001 12.1319 9.95495C12.4138 9.84539 12.8374 9.71506 13.6174 9.67949C14.461 9.64101 14.714 9.63284 16.8501 9.63284ZM16.8501 12.0833C14.5812 12.0833 12.742 13.9225 12.742 16.1914C12.742 18.4603 14.5812 20.2995 16.8501 20.2995C19.119 20.2995 20.9582 18.4603 20.9582 16.1914C20.9582 13.9225 19.119 12.0833 16.8501 12.0833ZM16.8501 18.8581C15.3773 18.8581 14.1834 17.6642 14.1834 16.1914C14.1834 14.7186 15.3773 13.5247 16.8501 13.5247C18.3229 13.5247 19.5168 14.7186 19.5168 16.1914C19.5168 17.6642 18.3229 18.8581 16.8501 18.8581ZM22.0805 11.921C22.0805 12.4512 21.6507 12.881 21.1205 12.881C20.5903 12.881 20.1605 12.4512 20.1605 11.921C20.1605 11.3908 20.5903 10.961 21.1205 10.961C21.6507 10.961 22.0805 11.3908 22.0805 11.921Z" fill="white"/>
</svg>
