<svg width="33" height="33" viewBox="0 0 33 33" fill="none" xmlns="http://www.w3.org/2000/svg">
<circle cx="16.8501" cy="16.1914" r="15.5" stroke="#0F0F0F"/>
<circle cx="16.8501" cy="16.1914" r="16" fill="#0F0F0F"/>
<path fill-rule="evenodd" clip-rule="evenodd" d="M24.6278 11.2178C24.0562 11.4781 23.4409 11.6541 22.7953 11.7327C23.4546 11.3283 23.9604 10.6869 24.1987 9.92286C23.5815 10.2974 22.8994 10.5698 22.1708 10.7159C21.5901 10.0802 20.7602 9.68317 19.8416 9.68317C18.0804 9.68317 16.6515 11.1485 16.6515 12.9555C16.6515 13.2121 16.6788 13.4612 16.7336 13.7009C14.0812 13.5642 11.7301 12.2627 10.1551 10.2805C9.88031 10.7655 9.72326 11.3283 9.72326 11.9275C9.72326 13.0623 10.2866 14.0641 11.1431 14.6512C10.6208 14.6353 10.1277 14.4864 9.69679 14.243V14.2832C9.69679 15.8693 10.797 17.1923 12.2579 17.4919C11.9904 17.5687 11.7082 17.6071 11.417 17.6071C11.2115 17.6071 11.0107 17.5874 10.8162 17.5491C11.2225 18.8487 12.4003 19.7953 13.7973 19.8205C12.7053 20.6988 11.3284 21.2222 9.83374 21.2222C9.57626 21.2222 9.32153 21.2072 9.07227 21.1772C10.4847 22.1042 12.1629 22.6463 13.9644 22.6463C19.8352 22.6463 23.0446 17.6605 23.0446 13.3357C23.0446 13.1934 23.0419 13.0511 23.0364 12.9115C23.66 12.4499 24.2014 11.8741 24.6278 11.2178Z" fill="white"/>
</svg>
