<svg width="33" height="33" viewBox="0 0 33 33" fill="none"
    xmlns="http://www.w3.org/2000/svg">
    <circle class="color" cx="16.8501" cy="16.1914" r="16" fill="#F2F2F2"/>
    <path class="outline" d="M7.8501 21.3898H7.1001C7.1001 21.804 7.43588 22.1398 7.8501 22.1398V21.3898ZM7.8501 13.2692V12.5192C7.43588 12.5192 7.1001 12.855 7.1001 13.2692H7.8501ZM25.8501 13.2692H26.6001C26.6001 12.855 26.2643 12.5192 25.8501 12.5192V13.2692ZM25.8501 21.3898V22.1398C26.2643 22.1398 26.6001 21.804 26.6001 21.3898H25.8501ZM9.55172 22.1398H10.3017V20.6398H9.55172V22.1398ZM24.1232 20.6398H23.3732V22.1398H24.1232V20.6398ZM8.6001 21.3898V13.2692H7.1001V21.3898H8.6001ZM7.8501 14.0192H25.8501V12.5192H7.8501V14.0192ZM25.1001 13.2692V21.3898H26.6001V13.2692H25.1001ZM9.55172 20.6398H7.8501V22.1398H9.55172V20.6398ZM25.8501 20.6398H24.1232V22.1398H25.8501V20.6398Z" fill="#0F0F0F"/>
    <path class="outline-printer" d="M12.2983 18.9649V25.5104H21.2997V18.9649H12.2983Z" stroke="#0F0F0F" stroke-width="1.25" stroke-linecap="round" stroke-linejoin="round"/>
    <path class="outline-printer" d="M14.3716 21.258H19.2537" stroke="#0F0F0F"/>
    <path class="outline-printer" d="M14.3716 23.0032H17.3617" stroke="#0F0F0F"/>
    <path class="outline-printer" d="M11.481 16.6324H13.1052" stroke="#0F0F0F" stroke-width="1.25"/>
    <path class="outline-printer" d="M10.7139 8.87244V13.283H23.3573V8.87244H10.7139Z" stroke="#0F0F0F" stroke-width="1.5" stroke-linecap="round" stroke-linejoin="round"/>
</svg>

