<svg width="33" height="33" viewBox="0 0 33 33" fill="none" xmlns="http://www.w3.org/2000/svg">
<circle cx="16.8501" cy="16.1914" r="16" fill="#F2F2F2"/>
<path fill-rule="evenodd" clip-rule="evenodd" d="M8.05197 15.9638C8.05412 11.0071 12.0867 6.97607 17.0429 6.97607H17.0433C19.4467 6.9772 21.7065 7.91416 23.403 9.61214C25.0996 11.3102 26.035 13.5706 26.034 15.9708V15.9709C26.0319 20.9272 21.9994 24.9588 17.0433 24.9588H17.0397H17.0395C15.6368 24.9583 14.2565 24.63 13.0114 24.0052L8.92331 25.0771L7.6665 25.4067L8.00972 24.1536L9.09833 20.1788C8.54106 19.1289 8.19914 17.98 8.09017 16.7957L8.05161 16.7999L8.05197 15.9638ZM9.55219 15.9091L9.55217 15.9643C9.5517 17.2848 9.89662 18.5727 10.5518 19.7077L10.7083 19.9789L10.6256 20.2808L9.79965 23.2966L12.9115 22.4807L13.1993 22.4052L13.4606 22.5476C14.554 23.1435 15.7858 23.4583 17.0397 23.4588C17.0398 23.4588 17.0399 23.4588 17.04 23.4588H17.0431V23.4587H17.0431H17.0431H17.0431H17.0431H17.0431H17.0431H17.0431H17.0431H17.0431H17.0432H17.0432H17.0432H17.0433V23.4588H17.0433C21.171 23.4588 24.5322 20.0986 24.534 15.9702L25.284 15.9705L24.534 15.9702C24.5348 13.9678 23.7573 12.089 22.3419 10.6723L22.8689 10.1458L22.3419 10.6723C20.927 9.25614 19.0488 8.47711 17.0429 8.47607M9.55219 15.9091C9.58383 11.806 12.9332 8.47626 17.0426 8.47607L9.55219 15.9091ZM14.9113 12.3936C14.7514 12.0384 14.5833 12.0313 14.4313 12.0251C14.3069 12.0198 14.1646 12.0201 14.0225 12.0201C13.8803 12.0201 13.6492 12.0735 13.4538 12.287C13.2582 12.5004 12.7072 13.0164 12.7072 14.0658C12.7072 15.1153 13.4716 16.1293 13.5781 16.2718C13.6848 16.414 15.0537 18.6364 17.2216 19.4913C19.0234 20.2018 19.3901 20.0605 19.7811 20.0249C20.1722 19.9894 21.0431 19.5091 21.2208 19.011C21.3986 18.513 21.3986 18.0861 21.3453 17.9969C21.292 17.9081 21.1497 17.8547 20.9364 17.7481C20.7231 17.6414 19.6744 17.1253 19.479 17.0541C19.2834 16.9831 19.1412 16.9475 18.9989 17.1611C18.8567 17.3744 18.4482 17.8547 18.3237 17.9969C18.1994 18.1395 18.0749 18.1573 17.8616 18.0506C17.6482 17.9436 16.9612 17.7186 16.1463 16.992C15.5122 16.4266 15.0841 15.7285 14.9596 15.5149C14.8353 15.3016 14.9464 15.1861 15.0533 15.0797C15.1491 14.9842 15.2667 14.8307 15.3734 14.7062C15.4798 14.5816 15.5153 14.4927 15.5864 14.3505C15.6576 14.2081 15.622 14.0835 15.5687 13.9768C15.5153 13.8702 15.1008 12.8154 14.9111 12.3936" fill="#0F0F0F"/>
</svg>
