<svg width="33" height="33" viewBox="0 0 33 33" fill="none" xmlns="http://www.w3.org/2000/svg">
<rect x="10.8501" y="10.1914" width="11.625" height="11.625" fill="white"/>
<circle cx="16.8501" cy="16.1914" r="16" fill="#0F0F0F"/>
<path fill-rule="evenodd" clip-rule="evenodd" d="M10.0112 20.0831C9.31704 18.8806 8.95198 17.5165 8.95248 16.1194L8.95228 16.1194C8.95418 11.7478 12.512 8.19141 16.8831 8.19141C19.0049 8.1924 20.9961 9.01812 22.4933 10.5166C23.9908 12.0154 24.815 14.0071 24.8141 16.1256C24.8122 20.4971 21.2545 24.0539 16.8835 24.0539H16.8801C15.5528 24.0535 14.2486 23.7202 13.0902 23.089L8.88599 24.1914L10.0112 20.0831ZM14.3696 12.3286C14.5159 12.3347 14.6777 12.3415 14.8315 12.6833L14.8314 12.6833C14.9363 12.9167 15.1128 13.3516 15.2537 13.6985C15.3578 13.9549 15.4424 14.1633 15.4642 14.207C15.5155 14.3096 15.5497 14.4295 15.4812 14.5665C15.471 14.5871 15.4614 14.6065 15.4524 14.625C15.401 14.7299 15.3633 14.807 15.2762 14.9089C15.2419 14.9489 15.2065 14.992 15.1711 15.0351C15.1003 15.1211 15.0296 15.2071 14.9682 15.2684C14.8653 15.3707 14.7584 15.4819 14.8781 15.6871C14.9979 15.8927 15.4098 16.5646 16.0201 17.1087C16.6755 17.693 17.245 17.9403 17.5342 18.0659C17.5911 18.0905 17.6371 18.1105 17.6708 18.1274C17.8761 18.2301 17.9959 18.213 18.1156 18.0758C18.2354 17.9389 18.6285 17.4767 18.7654 17.2714C18.9023 17.0659 19.0391 17.1001 19.2273 17.1685C19.4155 17.237 20.4246 17.7336 20.63 17.8363C20.6699 17.8563 20.7072 17.8743 20.7419 17.891C20.8853 17.9602 20.9821 18.0069 21.0234 18.0758C21.0747 18.1616 21.0747 18.5724 20.9036 19.0517C20.7326 19.531 19.8945 19.9933 19.5181 20.0274C19.482 20.0307 19.446 20.035 19.409 20.0393C19.0612 20.0803 18.6222 20.132 17.0549 19.5139C15.127 18.7536 13.8556 16.8695 13.5927 16.4799C13.5711 16.4479 13.5563 16.4259 13.5485 16.4156L13.5461 16.4123C13.435 16.2637 12.7103 15.2949 12.7103 14.2926C12.7103 13.3472 13.175 12.8517 13.3888 12.6237C13.4034 12.6081 13.4168 12.5938 13.4289 12.5807C13.6169 12.3753 13.8393 12.3239 13.9762 12.3239C13.9841 12.3239 13.992 12.3239 13.9999 12.3239C14.1287 12.3239 14.2568 12.3238 14.3696 12.3286Z" fill="white"/>
</svg>
