<svg width="32" height="32" viewBox="0 0 32 32" fill="none"
    xmlns="http://www.w3.org/2000/svg">
    <circle cx="16" cy="16" r="15.5" stroke="#F2F2F2"/>
    <circle class="color" cx="16" cy="16" r="16" fill="#F2F2F2"/>
    <path class="outline" fill-rule="evenodd" clip-rule="evenodd" d="M23.7778 11.0263C23.2062 11.2866 22.5908 11.4626 21.9453 11.5413C22.6045 11.1368 23.1103 10.4954 23.3486 9.7314C22.7314 10.1059 22.0494 10.3784 21.3208 10.5244C20.7401 9.88869 19.9101 9.4917 18.9916 9.4917C17.2303 9.4917 15.8014 10.957 15.8014 12.7641C15.8014 13.0206 15.8288 13.2697 15.8836 13.5094C13.2312 13.3727 10.8801 12.0712 9.3051 10.0891C9.03027 10.5741 8.87323 11.1368 8.87323 11.736C8.87323 12.8708 9.43658 13.8727 10.293 14.4597C9.77076 14.4438 9.27771 14.2949 8.84675 14.0515V14.0918C8.84675 15.6779 9.94697 17.0009 11.4078 17.3005C11.1403 17.3773 10.8582 17.4156 10.5669 17.4156C10.3615 17.4156 10.1606 17.396 9.96614 17.3576C10.3724 18.6572 11.5503 19.6038 12.9472 19.6291C11.8552 20.5073 10.4784 21.0307 8.98371 21.0307C8.72623 21.0307 8.47149 21.0157 8.22223 20.9858C9.63471 21.9127 11.3129 22.4548 13.1143 22.4548C18.9852 22.4548 22.1946 17.469 22.1946 13.1442C22.1946 13.0019 22.1918 12.8596 22.1863 12.7201C22.8099 12.2585 23.3514 11.6827 23.7778 11.0263Z" fill="#0F0F0F"/>
</svg>
