<svg width="25" height="24" viewBox="0 0 25 24" fill="none" xmlns="http://www.w3.org/2000/svg">
<path d="M17.4735 15.7912L16.9135 15.2529L15.8369 16.3729L16.3969 16.9113L17.4735 15.7912ZM22.6897 22.9599L23.2497 23.4982L24.3263 22.3781L23.7663 21.8398L22.6897 22.9599ZM14.2994 18.9712C19.3982 16.8887 21.8119 11.1996 19.6233 6.25046L18.2025 6.87877C20.0201 10.9891 18.0397 15.7654 13.712 17.533L14.2994 18.9712ZM19.6233 6.25046C17.4425 1.31871 11.5425 -0.947305 6.45813 1.12937L7.04556 2.56761C11.3877 0.794104 16.3771 2.75105 18.2025 6.87877L19.6233 6.25046ZM6.45813 1.12937C1.35928 3.21195 -1.05437 8.90096 1.13421 13.8501L2.55506 13.2218C0.737458 9.11155 2.71787 4.33522 7.04556 2.56761L6.45813 1.12937ZM1.13421 13.8501C3.31507 18.7819 9.215 21.0479 14.2994 18.9712L13.712 17.533C9.36982 19.3065 4.38038 17.3496 2.55506 13.2218L1.13421 13.8501ZM16.3969 16.9113L22.6897 22.9599L23.7663 21.8398L17.4735 15.7912L16.3969 16.9113Z" fill="#0B6AB7"/>
</svg>
