<svg width="201" height="161" viewBox="0 0 201 161" fill="none" xmlns="http://www.w3.org/2000/svg">
<path d="M99.0878 5.23389L99.8144 5.04805C99.7295 4.71609 99.4304 4.48388 99.0878 4.48389C98.7451 4.4839 98.446 4.71612 98.3612 5.04809L99.0878 5.23389ZM98.3612 5.41973L132.553 139.106L134.006 138.734L99.8144 5.04805L98.3612 5.41973ZM132.558 139.125L137.187 155.439L138.63 155.029L134.001 138.715L132.558 139.125ZM98.3612 5.04809L64.1767 138.734L65.6299 139.106L99.8144 5.41969L98.3612 5.04809ZM64.1818 138.716L59.5539 155.029L60.9969 155.439L65.6248 139.125L64.1818 138.716ZM133.279 138.17H64.9033V139.67H133.279V138.17Z" fill="#0B6AB7"/>
<rect x="92.248" y="16.4915" width="13.6887" height="8.52157" fill="white"/>
<rect x="16.0293" y="24.6787" width="168.77" height="101.715" rx="1.25" fill="white" stroke="#0B6AB7" stroke-width="1.5"/>
<rect x="16.0293" y="17.0891" width="168.77" height="7.17405" rx="1.25" stroke="#0B6AB7" stroke-width="1.5"/>
<rect x="19.2343" y="20.0153" width="162.503" height="1.35532" rx="0.67766" stroke="#0AA5FF" stroke-width="1.35532"/>
<path d="M118.651 50.7115H121.133C122.042 50.7115 122.779 51.4486 122.779 52.3578V99.8256C122.779 100.735 122.042 101.472 121.133 101.472H117.313H82.9517C82.9517 101.472 78.0427 101.472 78.043 96.0611M118.651 50.7115V90.4273C118.651 90.4273 90.8167 90.4273 82.9517 90.4273C82.9517 90.4273 78.0432 90.6504 78.043 96.0611M118.651 50.7115V46.5837H86.2743C81.7283 46.5837 78.043 50.269 78.043 54.8151V96.0611" stroke="#0B6AB7" stroke-width="1.25"/>
<path d="M99.162 58.5486L106.701 61.6714L109.824 69.2106L106.701 76.7498L99.162 79.8726L91.6228 76.7498L88.5 69.2106L91.6228 61.6714L99.162 58.5486Z" stroke="#FFD600" stroke-width="1.25"/>
<path d="M85.0645 96.7886L106.795 96.7886" stroke="#00E0E0" stroke-width="1.25"/>
<path d="M108.604 96.7886L112.555 96.7886" stroke="#00E0E0" stroke-width="1.25"/>
<path d="M114.199 96.7886L115.516 96.7886" stroke="#00E0E0" stroke-width="1.25"/>
<path d="M94.755 101.868L99.0347 104.782C99.059 104.799 99.092 104.781 99.092 104.752V96.1472H90.418V104.752C90.418 104.781 90.4509 104.799 90.4753 104.782L94.755 101.868Z" fill="#0AA5FF"/>
</svg>
