<svg width="201" height="161" viewBox="0 0 201 161" fill="none" xmlns="http://www.w3.org/2000/svg">
<path d="M49.7344 108.798V51.5019C49.7344 51.5005 49.7345 51.4985 49.7347 51.496C49.7354 51.484 49.7372 51.4593 49.7415 51.4227C49.7503 51.3498 49.7693 51.2294 49.8106 51.0681C49.893 50.7464 50.0651 50.2577 50.4256 49.6545C51.1446 48.4516 52.6343 46.7587 55.7295 45.0324C61.9426 41.5673 74.5488 38.0112 100.023 38.0112C125.497 38.0112 138.103 41.5673 144.316 45.0324C147.412 46.7587 148.901 48.4516 149.62 49.6545C149.981 50.2577 150.153 50.7464 150.235 51.0681C150.276 51.2294 150.296 51.3498 150.304 51.4227C150.309 51.4593 150.31 51.484 150.311 51.496C150.311 51.4985 150.311 51.5004 150.311 51.5019V108.798C150.31 108.801 150.309 108.803 150.308 108.806C150.274 108.888 150.216 109.018 150.123 109.19C149.938 109.535 149.615 110.049 149.081 110.677C148.014 111.933 146.093 113.659 142.709 115.403C135.932 118.897 123.305 122.457 100.023 122.457C76.7408 122.457 64.1139 118.897 57.3371 115.403C53.9532 113.659 52.0313 111.933 50.9644 110.677C50.4304 110.049 50.108 109.535 49.9227 109.19C49.83 109.018 49.7714 108.888 49.7377 108.806C49.7365 108.803 49.7354 108.801 49.7344 108.798Z" fill="white" stroke="#0B6AB7" stroke-width="1.5"/>
<path d="M90.3738 89.0479L92.7773 90.0434L93.7729 92.447L92.7773 94.8506L90.3738 95.8462L87.9702 94.8506L86.9746 92.447L87.9702 90.0434L90.3738 89.0479Z" fill="#0AA5FF"/>
<path d="M100.022 89.0479L103.027 90.2923L104.271 93.2968L103.027 96.3013L100.022 97.5458L97.0179 96.3013L95.7734 93.2968L97.0179 90.2923L100.022 89.0479Z" fill="#0AA5FF"/>
<path d="M109.671 89.0479L112.074 90.0434L113.07 92.447L112.074 94.8506L109.671 95.8462L107.267 94.8506L106.271 92.447L107.267 90.0434L109.671 89.0479Z" fill="#0AA5FF"/>
<path d="M150.34 70.9389C146.242 77.6576 125.275 82.7729 100.026 82.7729C74.761 82.7729 53.7836 77.6512 49.7051 70.9263" stroke="#00E0E0" stroke-width="1.5" stroke-linecap="round" stroke-linejoin="round"/>
<path d="M150.338 53.1879C146.241 59.9066 125.274 65.0219 100.024 65.0219C74.7591 65.0219 53.7817 59.9002 49.7031 53.1753" stroke="#0B6AB7" stroke-width="1.5" stroke-linecap="round" stroke-linejoin="round"/>
<path d="M150.34 91.4601C146.242 98.1788 125.275 103.294 100.026 103.294C74.761 103.294 53.7836 98.1724 49.7051 91.4475" stroke="#00E0E0" stroke-width="1.5" stroke-linecap="round" stroke-linejoin="round"/>
<path d="M49.7344 108.798V51.5019C49.7344 51.5005 49.7345 51.4985 49.7347 51.496C49.7354 51.484 49.7372 51.4593 49.7415 51.4227C49.7503 51.3498 49.7693 51.2294 49.8106 51.0681C49.893 50.7464 50.0651 50.2577 50.4256 49.6545C51.1446 48.4516 52.6343 46.7587 55.7295 45.0324C61.9426 41.5673 74.5488 38.0112 100.023 38.0112C125.497 38.0112 138.103 41.5673 144.316 45.0324C147.412 46.7587 148.901 48.4516 149.62 49.6545C149.981 50.2577 150.153 50.7464 150.235 51.0681C150.276 51.2294 150.296 51.3498 150.304 51.4227C150.309 51.4593 150.31 51.484 150.311 51.496C150.311 51.4985 150.311 51.5004 150.311 51.5019V108.798C150.31 108.801 150.309 108.803 150.308 108.806C150.274 108.888 150.216 109.018 150.123 109.19C149.938 109.535 149.615 110.049 149.081 110.677C148.014 111.933 146.093 113.659 142.709 115.403C135.932 118.897 123.305 122.457 100.023 122.457C76.7408 122.457 64.1139 118.897 57.3371 115.403C53.9532 113.659 52.0313 111.933 50.9644 110.677C50.4304 110.049 50.108 109.535 49.9227 109.19C49.83 109.018 49.7714 108.888 49.7377 108.806C49.7365 108.803 49.7354 108.801 49.7344 108.798Z" stroke="#0B6AB7" stroke-width="1.5"/>
<path d="M100.023 5.23389V18.1833" stroke="#FFD600" stroke-width="1.5"/>
<path d="M100.023 5.23389V18.1833" stroke="#FFD600" stroke-width="1.5"/>
<path d="M175.025 80.2332L162.076 80.2332" stroke="#FFD600" stroke-width="1.5"/>
<path d="M153.057 133.267L143.9 124.11" stroke="#FFD600" stroke-width="1.5"/>
<path d="M153.057 27.2031L143.9 36.3597" stroke="#FFD600" stroke-width="1.5"/>
<path d="M100.023 142.284V155.234" stroke="#FFD600" stroke-width="1.5"/>
<path d="M37.9727 80.2332L25.0233 80.2332" stroke="#FFD600" stroke-width="1.5"/>
<path d="M56.1445 36.3572L46.9879 27.2006" stroke="#FFD600" stroke-width="1.5"/>
<path d="M56.1465 124.111L46.9899 133.267" stroke="#FFD600" stroke-width="1.5"/>
</svg>
