<svg width="201" height="160" viewBox="0 0 201 160" fill="none" xmlns="http://www.w3.org/2000/svg">
<path d="M126.861 139.413C116.236 139.413 108.254 142.502 107.303 152.118C107.195 153.217 106.313 154.115 105.208 154.115H96.241C95.1365 154.115 94.2519 153.215 94.1685 152.114C93.3762 141.652 86.1374 139.413 74.5882 139.413C58.0631 139.413 34.4231 139.413 25.4967 139.413M126.861 139.413C143.308 139.413 167.095 139.413 176.117 139.413H126.861ZM179.51 133.852L177.748 41.4198C177.706 39.2408 175.928 37.4961 173.748 37.4961H27.6933C25.5152 37.4961 23.7375 39.2387 23.6941 41.4164L21.8516 133.852" stroke="#0B6AB7" stroke-width="1.5"/>
<path d="M126.862 134.164V133.414V134.164ZM74.589 134.164L74.589 134.914L74.589 134.164ZM97.6917 147.816V148.566H99.1917V147.816H97.6917ZM102.259 147.816V148.566H103.759V147.816H102.259ZM126.862 134.914H187.101V133.414H126.862V134.914ZM14.3457 134.164C14.3457 134.914 14.3458 134.914 14.3461 134.914C14.3464 134.914 14.3469 134.914 14.3475 134.914C14.3487 134.914 14.3505 134.914 14.353 134.914C14.3578 134.914 14.3651 134.914 14.3747 134.914C14.394 134.914 14.4229 134.914 14.461 134.914C14.5373 134.914 14.6508 134.914 14.7997 134.914C15.0975 134.914 15.537 134.914 16.1035 134.914C17.2365 134.914 18.8776 134.914 20.9103 134.914C24.9757 134.914 30.6072 134.914 36.8717 134.915C49.4007 134.915 64.4615 134.915 74.589 134.914L74.5889 133.414C64.4615 133.415 49.4007 133.415 36.8718 133.415C30.6073 133.414 24.9758 133.414 20.9104 133.414C18.8777 133.414 17.2365 133.414 16.1035 133.414C15.5371 133.414 15.0976 133.414 14.7998 133.414C14.6509 133.414 14.5374 133.414 14.4611 133.414C14.4229 133.414 14.3941 133.414 14.3748 133.414C14.3652 133.414 14.3579 133.414 14.353 133.414C14.3506 133.414 14.3488 133.414 14.3476 133.414C14.347 133.414 14.3465 133.414 14.3462 133.414C14.3459 133.414 14.3457 133.414 14.3457 134.164ZM99.1917 147.816C99.1917 144.215 97.9679 141.47 96.0204 139.408C94.0897 137.364 91.4866 136.032 88.7737 135.156C83.3593 133.409 77.2837 133.414 74.5889 133.414L74.589 134.914C77.3022 134.914 83.1529 134.918 88.3129 136.584C90.8873 137.415 93.2333 138.642 94.93 140.438C96.6099 142.216 97.6917 144.591 97.6917 147.816H99.1917ZM103.759 147.816C103.759 141.998 107.954 138.772 113.12 136.972C118.276 135.176 124.138 134.914 126.862 134.914V133.414C124.086 133.414 118.022 133.676 112.627 135.556C107.241 137.432 102.259 141.031 102.259 147.816H103.759Z" fill="#0B6AB7"/>
<path d="M27.9527 134.164C27.9527 134.164 30.291 134.894 30.291 137.148C30.291 138.211 29.7698 138.936 29.2195 139.404" stroke="#0B6AB7" stroke-width="1.5"/>
<path d="M173.752 134.164C173.752 134.164 171.414 134.894 171.414 137.148C171.414 138.211 171.935 138.936 172.486 139.404" stroke="#0B6AB7" stroke-width="1.5"/>
<mask id="path-5-inside-1" fill="white">
<path d="M33.8066 9.02269L31.8791 98.4435C31.8308 100.686 33.6188 102.53 35.8616 102.53H84.9836C96.7872 102.53 95.2736 105.286 98.6317 116.418C98.8829 117.251 99.6566 117.817 100.526 117.817H100.721H101.095C101.965 117.817 102.739 117.251 102.985 116.417C106.02 106.125 104.352 102.53 116.463 102.53H165.583C167.826 102.53 169.612 100.686 169.564 98.4435L167.636 9.02269C167.589 6.84764 165.813 5.10889 163.637 5.10889H110.578C108.291 5.10889 106.114 6.08715 104.596 7.79668L100.721 12.1598L96.8467 7.79669C95.3285 6.08715 93.1513 5.10889 90.865 5.10889H37.8057C35.6301 5.10889 33.8535 6.84765 33.8066 9.02269Z"/>
</mask>
<path d="M33.8066 9.02269L31.8791 98.4435C31.8308 100.686 33.6188 102.53 35.8616 102.53H84.9836C96.7872 102.53 95.2736 105.286 98.6317 116.418C98.8829 117.251 99.6566 117.817 100.526 117.817H100.721H101.095C101.965 117.817 102.739 117.251 102.985 116.417C106.02 106.125 104.352 102.53 116.463 102.53H165.583C167.826 102.53 169.612 100.686 169.564 98.4435L167.636 9.02269C167.589 6.84764 165.813 5.10889 163.637 5.10889H110.578C108.291 5.10889 106.114 6.08715 104.596 7.79668L100.721 12.1598L96.8467 7.79669C95.3285 6.08715 93.1513 5.10889 90.865 5.10889H37.8057C35.6301 5.10889 33.8535 6.84765 33.8066 9.02269Z" fill="white"/>
<path d="M101.471 12.1598C101.471 11.7455 101.136 11.4098 100.721 11.4098C100.307 11.4098 99.9714 11.7455 99.9714 12.1598H101.471ZM99.9714 12.1598V64.9886H101.471V12.1598H99.9714ZM99.9714 64.9886V91.403H101.471V64.9886H99.9714ZM99.9714 91.403V104.61H101.471V91.403H99.9714ZM31.8791 98.4435L30.3794 98.4112L31.8791 98.4435ZM33.8066 9.02269L35.3063 9.05502L33.8066 9.02269ZM167.636 9.02269L169.136 8.99036V8.99036L167.636 9.02269ZM169.564 98.4435L171.063 98.4112V98.4112L169.564 98.4435ZM98.6317 116.418L100.068 115.985V115.985L98.6317 116.418ZM102.985 116.417L104.424 116.841V116.841L102.985 116.417ZM100.721 12.1598L99.5998 13.1558C99.8845 13.4763 100.293 13.6598 100.721 13.6598C101.15 13.6598 101.558 13.4763 101.843 13.1558L100.721 12.1598ZM104.596 7.79668L105.718 8.79272V8.79272L104.596 7.79668ZM96.8467 7.79669L95.7251 8.79272V8.79272L96.8467 7.79669ZM33.3787 98.4758L35.3063 9.05502L32.307 8.99037L30.3794 98.4112L33.3787 98.4758ZM166.137 9.05501L168.064 98.4758L171.063 98.4112L169.136 8.99036L166.137 9.05501ZM116.463 104.03H165.583V101.03H116.463V104.03ZM35.8616 104.03H84.9836V101.03H35.8616V104.03ZM100.068 115.985C99.2257 113.194 98.7296 111.07 98.1859 109.144C97.6698 107.316 97.1182 105.693 96.1868 104.416C94.1755 101.657 90.8255 101.03 84.9836 101.03V104.03C90.9453 104.03 92.7403 104.781 93.7626 106.183C94.348 106.986 94.7853 108.14 95.2987 109.959C95.7847 111.681 96.3586 114.077 97.1956 116.851L100.068 115.985ZM104.424 116.841C105.191 114.24 105.68 111.99 106.121 110.279C106.58 108.497 106.984 107.311 107.563 106.454C108.568 104.967 110.414 104.03 116.463 104.03V101.03C110.4 101.03 107.025 101.89 105.077 104.774C104.18 106.102 103.676 107.744 103.216 109.531C102.737 111.389 102.297 113.448 101.547 115.993L104.424 116.841ZM101.095 116.317H100.721V119.317H101.095V116.317ZM100.721 116.317H100.526V119.317H100.721V116.317ZM101.843 13.1558L105.718 8.79272L103.475 6.80064L99.5998 11.1637L101.843 13.1558ZM110.578 6.60889H163.637V3.60889H110.578V6.60889ZM37.8057 6.60889H90.865V3.60889H37.8057V6.60889ZM95.7251 8.79272L99.5998 13.1558L101.843 11.1637L97.9682 6.80065L95.7251 8.79272ZM105.718 8.79272C106.951 7.40372 108.72 6.60889 110.578 6.60889V3.60889C107.863 3.60889 105.277 4.77057 103.475 6.80064L105.718 8.79272ZM97.1956 116.851C97.6406 118.327 99.0049 119.317 100.526 119.317V116.317C100.308 116.317 100.125 116.175 100.068 115.985L97.1956 116.851ZM101.547 115.993C101.493 116.174 101.315 116.317 101.095 116.317V119.317C102.615 119.317 103.986 118.328 104.424 116.841L101.547 115.993ZM30.3794 98.4112C30.3132 101.486 32.7695 104.03 35.8616 104.03V101.03C34.468 101.03 33.3484 99.8855 33.3787 98.4758L30.3794 98.4112ZM168.064 98.4758C168.094 99.8863 166.976 101.03 165.583 101.03V104.03C168.676 104.03 171.13 101.485 171.063 98.4112L168.064 98.4758ZM169.136 8.99036C169.071 5.99968 166.629 3.60889 163.637 3.60889V6.60889C164.997 6.60889 166.107 7.69561 166.137 9.05502L169.136 8.99036ZM90.865 6.60889C92.7226 6.60889 94.4916 7.40372 95.7251 8.79272L97.9682 6.80065C96.1654 4.77057 93.58 3.60889 90.865 3.60889V6.60889ZM35.3063 9.05502C35.3356 7.69561 36.446 6.60889 37.8057 6.60889V3.60889C34.8143 3.60889 32.3714 5.99969 32.307 8.99037L35.3063 9.05502Z" fill="#0B6AB7" mask="url(#path-5-inside-1)"/>
<path d="M156.508 105.622V119.154" stroke="#00E0E0" stroke-width="1.25" stroke-linecap="round" stroke-linejoin="round" stroke-dasharray="0.13 4"/>
<path d="M45.8047 105.771L45.8047 119.005" stroke="#00E0E0" stroke-width="1.25" stroke-linecap="round" stroke-linejoin="round" stroke-dasharray="0.13 4"/>
<path d="M122.908 105.347L122.908 122.706" stroke="#00E0E0" stroke-width="1.25" stroke-linecap="round" stroke-linejoin="round" stroke-dasharray="0.13 4"/>
<path d="M79.5273 105.347L79.5273 122.706" stroke="#00E0E0" stroke-width="1.25" stroke-linecap="round" stroke-linejoin="round" stroke-dasharray="0.13 4"/>
<path d="M56.1296 18.0571L63.4305 21.0812L66.4546 28.3821L63.4305 35.6829L56.1296 38.707L48.8288 35.6829L45.8047 28.3821L48.8288 21.0812L56.1296 18.0571Z" stroke="#FFD600" stroke-width="1.25"/>
<path d="M71.8438 28.3816H89.3081" stroke="#0AA5FF" stroke-width="1.25"/>
<path d="M71.8438 34.6646H89.3081" stroke="#0AA5FF" stroke-width="1.25"/>
<path d="M71.8438 40.9465H89.3081" stroke="#0AA5FF" stroke-width="1.25"/>
<path d="M45.8047 47.2305L89.3083 47.2305" stroke="#0AA5FF" stroke-width="1.25"/>
<path d="M45.8047 53.5811L89.3083 53.5811" stroke="#0AA5FF" stroke-width="1.25"/>
<path d="M45.8047 59.864L89.3083 59.864" stroke="#0AA5FF" stroke-width="1.25"/>
<path d="M45.8047 66.1807L89.3083 66.1807" stroke="#0AA5FF" stroke-width="1.25"/>
<path d="M45.8047 72.4646L89.3083 72.4646" stroke="#0AA5FF" stroke-width="1.25"/>
<path d="M45.8047 78.7805L71.8439 78.7805" stroke="#0AA5FF" stroke-width="1.25"/>
<path d="M112.592 28.302H156.095" stroke="#0AA5FF" stroke-width="1.25"/>
<path d="M112.592 34.585H156.095" stroke="#0AA5FF" stroke-width="1.25"/>
<path d="M112.592 40.8679H156.095" stroke="#0AA5FF" stroke-width="1.25"/>
<path d="M112.592 47.1509L156.095 47.1509" stroke="#0AA5FF" stroke-width="1.25"/>
<path d="M112.592 53.5015L156.095 53.5015" stroke="#0AA5FF" stroke-width="1.25"/>
<path d="M112.592 59.7844L156.095 59.7844" stroke="#0AA5FF" stroke-width="1.25"/>
<path d="M112.592 66.1011L156.095 66.1011" stroke="#0AA5FF" stroke-width="1.25"/>
<path d="M112.592 72.385L156.095 72.385" stroke="#0AA5FF" stroke-width="1.25"/>
<path d="M112.592 78.7009L150.269 78.7009" stroke="#0AA5FF" stroke-width="1.25"/>
<path d="M152.695 118.699L156.508 122.512L160.32 118.699" stroke="#00E0E0"/>
<path d="M49.8145 118.699L46.0016 122.512L42.1893 118.699" stroke="#00E0E0"/>
<path d="M119.096 122.899L122.909 126.711L126.721 122.899" stroke="#00E0E0"/>
<path d="M83.4141 122.899L79.6012 126.711L75.7889 122.899" stroke="#00E0E0"/>
</svg>
