<svg width="201" height="161" viewBox="0 0 201 161" fill="none" xmlns="http://www.w3.org/2000/svg">
  <path d="M158.356 82.117H44.382a2 2 0 0 0-1.897 1.367l-23.02 69.118a2 2 0 0 0 1.897 2.632h158.174a2 2 0 0 0 1.912-2.586l-21.179-69.117a2.001 2.001 0 0 0-1.913-1.415z" stroke="#0B6AB7" stroke-width="1.5"/>
  <path d="m101.572 87.778 36.498 8.563 15.118 20.672-15.118 20.672-36.498 8.563-36.499-8.563-15.118-20.672 15.118-20.672 36.499-8.563z" stroke="#0B6AB7" stroke-width="1.5"/>
  <path d="m101.571 91.098 32.355 7.59 13.402 18.326-13.402 18.325-32.355 7.591-32.355-7.591-13.401-18.325 13.401-18.325 32.355-7.59z" stroke="#00E0E0" stroke-width="1.5"/>
  <path d="M137.54 40.24c0 19.332-15.99 43.756-35.005 59.071C83.52 83.996 67.529 59.572 67.529 40.24c0-19.333 15.673-35.005 35.006-35.005S137.54 20.907 137.54 40.24z"/>
  <path d="M137.54 40.24c0 19.332-15.99 43.756-35.005 59.071C83.52 83.996 67.529 59.572 67.529 40.24c0-19.333 15.673-35.005 35.006-35.005S137.54 20.907 137.54 40.24z" fill="#fff"/>
  <path d="m102.535 99.311-.941 1.169.941.757.941-.757-.941-1.169zM136.04 40.24c0 9.287-3.855 19.952-10.152 30.261-6.284 10.289-14.92 20.093-24.294 27.643l1.882 2.337c9.64-7.765 18.507-17.83 24.972-28.416C134.901 61.5 139.04 50.286 139.04 40.24h-3zm-32.564 57.904c-9.374-7.55-18.01-17.354-24.294-27.643-6.297-10.31-10.153-20.974-10.153-30.26h-3c0 10.046 4.14 21.26 10.592 31.824 6.466 10.586 15.332 20.65 24.973 28.416l1.882-2.337zM69.029 40.24c0-18.504 15.001-33.505 33.506-33.505v-3c-20.162 0-36.506 16.344-36.506 36.505h3zm33.506-33.505c18.505 0 33.505 15 33.505 33.505h3c0-20.161-16.344-36.505-36.505-36.505v3z" fill="#0B6AB7"/>
  <circle cx="102.535" cy="40.911" fill="#0AA5FF" r="13.953"/>
  <path d="m140.509 94.424 13.092-6.273m-6.273 49.369 21.82 11.728M56.501 137.52l-27.003 13.91m31.367-57.006L47.5 88.151m109.1 28.639h6.819m-115.92 0H37.135" stroke="#FFD600" stroke-width="1.5"/>
</svg>
