<svg width="201" height="160" viewBox="0 0 201 160" fill="none" xmlns="http://www.w3.org/2000/svg">
<path d="M100.287 26.3755V35.4818" stroke="#FFD600" stroke-width="1.5"/>
<path d="M100.287 26.3755V35.4818" stroke="#FFD600" stroke-width="1.5"/>
<path d="M153.029 79.1162L143.923 79.1162" stroke="#FFD600" stroke-width="1.5"/>
<path d="M137.58 116.409L131.141 109.97" stroke="#FFD600" stroke-width="1.5"/>
<path d="M137.58 41.8242L131.141 48.2634" stroke="#FFD600" stroke-width="1.5"/>
<path d="M100.287 122.751V131.858" stroke="#FFD600" stroke-width="1.5"/>
<path d="M56.6504 79.1162L47.5441 79.1162" stroke="#FFD600" stroke-width="1.5"/>
<path d="M69.4316 48.2615L62.9925 41.8223" stroke="#FFD600" stroke-width="1.5"/>
<path d="M69.4316 109.971L62.9925 116.41" stroke="#FFD600" stroke-width="1.5"/>
<circle cx="100.288" cy="79.8754" r="39.4697" stroke="#0B6AB7" stroke-width="1.5"/>
<path d="M119.269 79.8752C119.269 90.8923 117.077 100.829 113.567 107.984C110.033 115.188 105.293 119.345 100.289 119.345C95.2852 119.345 90.5449 115.188 87.0108 107.984C83.5008 100.829 81.3086 90.8923 81.3086 79.8752C81.3086 68.858 83.5008 58.9209 87.0108 51.7659C90.5449 44.5619 95.2852 40.4055 100.289 40.4055C105.293 40.4055 110.033 44.5619 113.567 51.7659C117.077 58.9209 119.269 68.858 119.269 79.8752Z" stroke="#0B6AB7" stroke-width="1.5"/>
<path d="M100.287 40.4143V117.059" stroke="#00E0E0" stroke-width="1.5"/>
<path d="M138.611 78.7368L61.9663 78.7368" stroke="#00E0E0" stroke-width="1.5"/>
<path d="M100.264 16.1611L145.385 34.8505L164.074 79.9705L145.385 125.091L100.264 143.78L55.1444 125.091L36.4551 79.9705L55.1444 34.8505L100.264 16.1611Z" stroke="#0B6AB7" stroke-width="1.5"/>
<path d="M100.264 16.1611L145.385 34.8505L164.074 79.9705L145.385 125.091L100.264 143.78L55.1444 125.091L36.4551 79.9705L55.1444 34.8505L100.264 16.1611Z" stroke="#0B6AB7" stroke-width="1.5"/>
<path d="M100.292 22.9517C104.982 22.9517 108.784 19.15 108.784 14.4603C108.784 9.7707 104.982 5.96899 100.292 5.96899C95.6025 5.96899 91.8008 9.7707 91.8008 14.4603C91.8008 19.15 95.6025 22.9517 100.292 22.9517Z" fill="#0AA5FF" stroke="white" stroke-width="1.5"/>
<ellipse cx="146.471" cy="33.589" rx="7.74135" ry="7.74136" transform="rotate(45 146.471 33.589)" fill="#0AA5FF" stroke="white" stroke-width="1.5"/>
<path d="M157.111 79.7687C157.111 84.4584 160.913 88.2601 165.602 88.2601C170.292 88.2601 174.094 84.4584 174.094 79.7687C174.094 75.0791 170.292 71.2773 165.602 71.2773C160.913 71.2773 157.111 75.0791 157.111 79.7687Z" fill="#0AA5FF" stroke="white" stroke-width="1.5"/>
<ellipse cx="146.474" cy="125.95" rx="7.74136" ry="7.74136" transform="rotate(135 146.474 125.95)" fill="#0AA5FF" stroke="white" stroke-width="1.5"/>
<path d="M100.292 153.573C104.982 153.573 108.784 149.771 108.784 145.081C108.784 140.392 104.982 136.59 100.292 136.59C95.6025 136.59 91.8008 140.392 91.8008 145.081C91.8008 149.771 95.6025 153.573 100.292 153.573Z" fill="#0AA5FF" stroke="white" stroke-width="1.5"/>
<ellipse cx="54.1113" cy="125.952" rx="7.74135" ry="7.74135" transform="rotate(45 54.1113 125.952)" fill="#0AA5FF" stroke="white" stroke-width="1.5"/>
<path d="M26.4899 79.7714C26.4899 84.461 30.2917 88.2627 34.9813 88.2627C39.6709 88.2627 43.4727 84.461 43.4727 79.7714C43.4727 75.0817 39.6709 71.28 34.9813 71.28C30.2917 71.28 26.4899 75.0817 26.4899 79.7714Z" fill="#0AA5FF" stroke="white" stroke-width="1.5"/>
<ellipse cx="54.1107" cy="33.5898" rx="7.74136" ry="7.74135" transform="rotate(135 54.1107 33.5898)" fill="#0AA5FF" stroke="white" stroke-width="1.5"/>
</svg>
