<svg xmlns="http://www.w3.org/2000/svg" height="81.852" width="250" viewBox="0 0 250 81.851547">
  <path fill="#2774ae" d="M1.074 57.591c-.306-2.604-.158-6.398-.158-8.3L4.89 4.509h14.607l-3.975 45.178c-.849 9.806 2.978 16.747 12.761 16.747 9.93 0 15.207-7.02 16.045-15.716l4.212-46.21h14.675l-4.053 45.587C57.487 67.702 45.869 80.814 27.06 80.814c-14.675 0-24.153-9.466-25.986-23.223M69.17 42.429c1.914-21.48 16.442-39.336 41.43-39.336 6.646 0 12.988 1.506 19.272 5.616l-1.688 17.766c-5.73-7.666-12.614-8.843-18.955-8.843-15.592 0-24.152 10.825-25.375 24.492-1.155 13.418 5.73 24.242 20.87 24.242 6.578 0 13.53-1.902 20.868-9.24l-1.608 18.241c-7.11 3.873-13.758 5.605-20.405 5.605-24.854 0-36.233-18.41-34.412-38.544m72.47-37.92h14.595l-5.355 60.816h20.948c1.528 0 6.499-.068 7.87-.068-.069.714-1.37 13.973-1.37 13.973H134.98l6.658-74.722m79.953-3.385h-1.064l-40.05 78.118h15.592l5.57-11.855h28.286l3.521 11.855h15.433L221.616 1.12m-3.736 31.275c.464-1.03.837-2.367 1.064-3.08h.238c.068.95.226 2.06.532 3.159.759 3.397 6.5 22.283 6.5 22.283H207.7s9.942-21.809 10.18-22.364z"/>
</svg>
