<svg width="741" height="247" viewBox="0 0 741 247" fill="none" xmlns="http://www.w3.org/2000/svg">
<g filter="url(#filter0_dd)">
<g filter="url(#filter1_dd)">
<path d="M54.3752 36.24L49.0552 57.72L43.4952 36.24H40.9352L47.3752 60H50.6552L55.7752 39.08L60.8952 60H64.1752L70.6152 36.24H68.1752L62.5752 57.72L57.2952 36.24H54.3752ZM88.098 51.4V49.76C88.098 44.8 85.178 42.16 80.778 42.16C76.098 42.16 72.498 46.04 72.498 51.28C72.498 56.96 76.338 60.4 81.378 60.4C83.538 60.4 85.778 59.88 87.338 58.72V56.32C85.578 57.64 83.858 58.28 81.378 58.28C77.978 58.28 74.898 55.76 74.898 51.48V51.4H88.098ZM75.058 49.4C75.738 46.12 77.938 44.28 80.658 44.28C83.578 44.28 85.538 45.76 85.698 49.4H75.058ZM95.4852 32.8H93.0852V60H95.4852V32.8ZM114.604 43.48C113.044 42.6 111.524 42.16 109.604 42.16C104.884 42.16 100.564 45.44 100.564 51.28C100.564 57 104.764 60.4 109.644 60.4C111.484 60.4 113.164 59.96 114.884 59.08V56.56C113.284 57.6 111.724 58.2 109.884 58.2C106.084 58.2 103.004 55.72 103.004 51.32C103.004 46.76 106.124 44.36 109.724 44.36C111.364 44.36 113.124 44.96 114.604 46V43.48ZM118.581 51.28C118.581 56.68 122.141 60.4 127.341 60.4C132.541 60.4 136.101 56.68 136.101 51.28C136.101 45.88 132.541 42.16 127.341 42.16C122.141 42.16 118.581 45.88 118.581 51.28ZM133.661 51.28C133.661 55.52 131.021 58.32 127.341 58.32C123.661 58.32 121.021 55.52 121.021 51.28C121.021 47.04 123.661 44.24 127.341 44.24C131.021 44.24 133.661 47.04 133.661 51.28ZM163.399 60H165.799V48.24C165.799 43.88 163.519 42.16 159.319 42.16C157.199 42.16 154.959 42.72 152.879 43.52C151.799 42.6 150.239 42.16 148.199 42.16C145.879 42.16 143.479 42.76 141.199 43.68V60H143.599V45.12C144.679 44.72 146.239 44.32 148.199 44.32C150.199 44.32 152.319 45.08 152.319 48.32V60H154.719V48.2C154.719 47.04 154.519 46.08 154.199 45.32C155.239 44.84 157.239 44.32 159.319 44.32C161.199 44.32 163.399 45.08 163.399 48.32V60ZM186.27 51.4V49.76C186.27 44.8 183.35 42.16 178.95 42.16C174.27 42.16 170.67 46.04 170.67 51.28C170.67 56.96 174.51 60.4 179.55 60.4C181.71 60.4 183.95 59.88 185.51 58.72V56.32C183.75 57.64 182.03 58.28 179.55 58.28C176.15 58.28 173.07 55.76 173.07 51.48V51.4H186.27ZM173.23 49.4C173.91 46.12 176.11 44.28 178.83 44.28C181.75 44.28 183.71 45.76 183.87 49.4H173.23ZM196.874 44.6H199.554V55.48C199.554 59.08 201.434 60.4 203.954 60.4C205.474 60.4 206.674 60.04 207.714 59.52V57.4C206.514 58 205.594 58.36 204.474 58.36C202.834 58.36 201.954 57.48 201.954 55.24V44.6H206.874V42.56H201.954V38.32H199.554V42.56H196.874V44.6ZM210.62 51.28C210.62 56.68 214.18 60.4 219.38 60.4C224.58 60.4 228.14 56.68 228.14 51.28C228.14 45.88 224.58 42.16 219.38 42.16C214.18 42.16 210.62 45.88 210.62 51.28ZM225.7 51.28C225.7 55.52 223.06 58.32 219.38 58.32C215.7 58.32 213.06 55.52 213.06 51.28C213.06 47.04 215.7 44.24 219.38 44.24C223.06 44.24 225.7 47.04 225.7 51.28ZM238.855 44.6H241.535V55.48C241.535 59.08 243.415 60.4 245.935 60.4C247.455 60.4 248.655 60.04 249.695 59.52V57.4C248.495 58 247.575 58.36 246.455 58.36C244.815 58.36 243.935 57.48 243.935 55.24V44.6H248.855V42.56H243.935V38.32H241.535V42.56H238.855V44.6ZM254.312 60H256.712V45.2C257.912 44.8 259.592 44.4 261.432 44.4C263.792 44.4 266.312 45.16 266.312 48.72V60H268.712V48.24C268.712 43.88 266.032 42.16 261.832 42.16C259.992 42.16 258.032 42.6 256.712 43.08V32.8H254.312V60ZM289.187 51.4V49.76C289.187 44.8 286.267 42.16 281.867 42.16C277.187 42.16 273.587 46.04 273.587 51.28C273.587 56.96 277.427 60.4 282.467 60.4C284.627 60.4 286.867 59.88 288.427 58.72V56.32C286.667 57.64 284.947 58.28 282.467 58.28C279.067 58.28 275.987 55.76 275.987 51.48V51.4H289.187ZM276.147 49.4C276.827 46.12 279.027 44.28 281.747 44.28C284.667 44.28 286.627 45.76 286.787 49.4H276.147Z" fill="white"/>
</g>
<path d="M47.1836 197.245H655.201" stroke="#FFE800" stroke-width="4"/>
<g filter="url(#filter2_dd)">
<path d="M45.064 150.016C45.064 171.136 59.784 177.28 77.064 177.28C86.152 177.28 98.056 175.744 105.096 173.824V99.968H92.04V164.864C87.56 165.632 82.952 166.144 77.064 166.144C65.8 166.144 58.12 162.304 58.12 147.712V99.968H45.064V150.016ZM181.057 104.064C174.913 100.352 167.873 98.688 160.065 98.688C137.409 98.688 120.897 114.688 120.897 137.984C120.897 161.152 136.641 177.28 160.065 177.28C167.873 177.28 175.297 175.616 181.953 171.648V157.696C175.937 162.944 169.025 165.504 160.449 165.504C145.601 165.504 134.337 154.752 134.337 137.984C134.337 121.472 145.089 110.464 160.065 110.464C168.513 110.464 175.809 113.408 181.057 118.4V104.064ZM197.657 176H241.689V164.48H210.713V99.968H197.657V176ZM303.13 158.08L309.786 176H323.994L294.298 99.968H278.298L248.73 176H262.554L269.21 158.08H303.13ZM299.162 147.328H273.178L286.234 112.256L299.162 147.328ZM362.53 176H403.234V169.088H370.466V99.968H362.53V176ZM424.335 120.192H416.655V176H424.335V120.192ZM420.495 108.544C423.695 108.544 426.255 105.856 426.255 102.784C426.255 99.584 423.695 97.024 420.495 97.024C417.423 97.024 414.735 99.584 414.735 102.784C414.735 105.856 417.423 108.544 420.495 108.544ZM444.81 174.464C450.57 176.256 457.098 177.28 462.986 177.28C482.314 177.28 495.114 165.888 495.114 147.84C495.114 128.64 482.57 118.912 465.802 118.912C460.426 118.912 454.922 120.32 452.49 121.728V88.96H444.81V174.464ZM452.49 128.384C455.69 126.848 460.042 125.824 465.802 125.824C477.45 125.824 487.306 133.504 487.306 147.84C487.306 162.048 477.834 170.496 462.986 170.496C459.402 170.496 455.69 170.112 452.49 169.216V128.384ZM519.02 129.408C521.964 127.744 526.06 126.592 531.564 126.592C534.124 126.592 538.092 126.848 541.42 128V120.448C538.22 119.68 535.148 119.296 532.076 119.296C524.396 119.296 517.228 121.6 511.34 125.312V176H519.02V129.408ZM582.548 143.744H576.276C559.252 143.744 549.14 149.504 549.14 160.512C549.14 172.288 559.252 177.024 574.356 177.024C579.092 177.024 585.108 176.384 590.228 174.976V136.448C590.228 123.904 582.932 118.912 571.668 118.912C565.14 118.912 559.124 120.704 554.388 123.264V130.56C559.508 127.872 564.372 126.08 570.772 126.08C577.94 126.08 582.548 129.792 582.548 136.96V143.744ZM582.548 169.856C579.86 170.368 577.044 170.624 574.74 170.624C564.5 170.624 556.82 167.936 556.82 160.512C556.82 153.088 565.268 150.016 576.788 150.016H582.548V169.856ZM617.455 129.408C620.399 127.744 624.495 126.592 629.999 126.592C632.559 126.592 636.527 126.848 639.855 128V120.448C636.655 119.68 633.583 119.296 630.511 119.296C622.831 119.296 615.663 121.6 609.775 125.312V176H617.455V129.408ZM655.293 120.192H646.845L670.141 179.712L662.589 199.04H670.141L700.349 120.192H692.413L673.981 171.008L655.293 120.192Z" fill="white"/>
</g>
</g>
<defs>
<filter id="filter0_dd" x="8.93359" y="6.7998" width="723.414" height="230.445" filterUnits="userSpaceOnUse" color-interpolation-filters="sRGB">
<feFlood flood-opacity="0" result="BackgroundImageFix"/>
<feColorMatrix in="SourceAlpha" type="matrix" values="0 0 0 0 0 0 0 0 0 0 0 0 0 0 0 0 0 0 127 0"/>
<feOffset dy="6"/>
<feGaussianBlur stdDeviation="16"/>
<feColorMatrix type="matrix" values="0 0 0 0 0 0 0 0 0 0 0 0 0 0 0 0 0 0 0.08 0"/>
<feBlend mode="normal" in2="BackgroundImageFix" result="effect1_dropShadow"/>
<feColorMatrix in="SourceAlpha" type="matrix" values="0 0 0 0 0 0 0 0 0 0 0 0 0 0 0 0 0 0 127 0"/>
<feOffset dy="1"/>
<feGaussianBlur stdDeviation="1"/>
<feColorMatrix type="matrix" values="0 0 0 0 0 0 0 0 0 0 0 0 0 0 0 0 0 0 0.04 0"/>
<feBlend mode="normal" in2="effect1_dropShadow" result="effect2_dropShadow"/>
<feBlend mode="normal" in="SourceGraphic" in2="effect2_dropShadow" result="shape"/>
</filter>
<filter id="filter1_dd" x="0.889614" y="0.264071" width="328.34" height="107.688" filterUnits="userSpaceOnUse" color-interpolation-filters="sRGB">
<feFlood flood-opacity="0" result="BackgroundImageFix"/>
<feColorMatrix in="SourceAlpha" type="matrix" values="0 0 0 0 0 0 0 0 0 0 0 0 0 0 0 0 0 0 127 0"/>
<feOffset dy="7.50825"/>
<feGaussianBlur stdDeviation="20.022"/>
<feColorMatrix type="matrix" values="0 0 0 0 0 0 0 0 0 0 0 0 0 0 0 0 0 0 0.08 0"/>
<feBlend mode="normal" in2="BackgroundImageFix" result="effect1_dropShadow"/>
<feColorMatrix in="SourceAlpha" type="matrix" values="0 0 0 0 0 0 0 0 0 0 0 0 0 0 0 0 0 0 127 0"/>
<feOffset dy="1.25137"/>
<feGaussianBlur stdDeviation="1.25137"/>
<feColorMatrix type="matrix" values="0 0 0 0 0 0 0 0 0 0 0 0 0 0 0 0 0 0 0.04 0"/>
<feBlend mode="normal" in2="effect1_dropShadow" result="effect2_dropShadow"/>
<feBlend mode="normal" in="SourceGraphic" in2="effect2_dropShadow" result="shape"/>
</filter>
<filter id="filter2_dd" x="5.01852" y="56.4242" width="735.373" height="190.168" filterUnits="userSpaceOnUse" color-interpolation-filters="sRGB">
<feFlood flood-opacity="0" result="BackgroundImageFix"/>
<feColorMatrix in="SourceAlpha" type="matrix" values="0 0 0 0 0 0 0 0 0 0 0 0 0 0 0 0 0 0 127 0"/>
<feOffset dy="7.50825"/>
<feGaussianBlur stdDeviation="20.022"/>
<feColorMatrix type="matrix" values="0 0 0 0 0 0 0 0 0 0 0 0 0 0 0 0 0 0 0.08 0"/>
<feBlend mode="normal" in2="BackgroundImageFix" result="effect1_dropShadow"/>
<feColorMatrix in="SourceAlpha" type="matrix" values="0 0 0 0 0 0 0 0 0 0 0 0 0 0 0 0 0 0 127 0"/>
<feOffset dy="1.25137"/>
<feGaussianBlur stdDeviation="1.25137"/>
<feColorMatrix type="matrix" values="0 0 0 0 0 0 0 0 0 0 0 0 0 0 0 0 0 0 0.04 0"/>
<feBlend mode="normal" in2="effect1_dropShadow" result="effect2_dropShadow"/>
<feBlend mode="normal" in="SourceGraphic" in2="effect2_dropShadow" result="shape"/>
</filter>
</defs>
</svg>
