<svg baseProfile="basic" viewBox="0 0 114 21.15" xmlns="http://www.w3.org/2000/svg" width="114" height="21.15" xml:space="preserve">
  <path fill="#0F0F0F" d="M63.77 6.35h2.43v9.95h5.63v2.03h-8.06V6.35zM72.69 6.35h2.28V8.4h-2.28V6.35zm0 3.39h2.28v8.59h-2.28V9.74zM78.63 17.26h-.03v1.07h-2.2V6.35h2.28v4.42h.05c.25-.41.6-.74 1.03-.96.42-.22.89-.33 1.37-.31 2.16 0 3.7 1.86 3.7 4.54 0 2.78-1.47 4.54-3.64 4.54a2.833 2.833 0 0 1-2.56-1.32zm3.88-3.22c0-1.59-.64-2.7-1.91-2.7-1.44 0-1.98 1.16-1.98 2.75 0 1.58.79 2.58 2.06 2.58 1.18.01 1.83-.96 1.83-2.63M88.1 11.11h.05c.52-.97 1.11-1.48 2.11-1.48.18-.01.36.01.54.07v1.99h-.05c-1.49-.15-2.56.64-2.56 2.45v4.19h-2.28v-8.6h2.19v1.38zM96.69 17.38h-.03c-.44.65-1.06 1.16-2.53 1.16-1.76 0-3-.92-3-2.63 0-1.89 1.54-2.5 3.46-2.76 1.42-.2 2.08-.32 2.08-.97 0-.62-.48-1.02-1.44-1.02-1.07 0-1.59.39-1.66 1.21h-2.03c.07-1.51 1.19-2.83 3.7-2.83 2.58 0 3.62 1.16 3.62 3.17v4.37c0 .65.1 1.04.3 1.19v.08h-2.19c-.16-.31-.25-.63-.28-.97zm.03-2.08v-1.29a6 6 0 0 1-1.59.5c-1.19.27-1.78.54-1.78 1.34s.54 1.09 1.34 1.09c1.31.01 2.03-.8 2.03-1.64M102.46 11.11h.05c.52-.97 1.11-1.48 2.11-1.48.18-.01.36.01.54.07v1.99h-.05c-1.49-.15-2.56.64-2.56 2.45v4.19h-2.28v-8.6h2.19v1.38zM106.46 19.36h.81c.91 0 1.27-.47 1.27-1.18-.09-.81-.31-1.59-.65-2.33l-2.31-6.12h2.4l1.27 3.87c.27.79.55 1.88.55 1.88h.03s.24-1.09.5-1.88l1.21-3.87h2.3l-3 8.82c-.65 1.91-1.29 2.6-3.03 2.6h-1.34v-1.79z"/>
  <path fill="#0B6AB7" d="M.22 13.26c-.05-.65-.07-1.3-.04-1.94L1.1.8h3.44L3.6 11.4c-.2 2.3.7 3.93 2.99 3.93 2.34 0 3.58-1.66 3.78-3.7L11.35.8h3.44l-.95 10.7c-.38 4.12-3.12 7.2-7.53 7.2-3.45 0-5.68-2.22-6.09-5.44M15.58 9.7c.45-5.05 3.85-9.23 9.73-9.23 1.6-.02 3.18.43 4.52 1.31l-.39 4.17a5.11 5.11 0 0 0-1.96-1.61 5.1 5.1 0 0 0-2.49-.46c-3.66 0-5.67 2.54-5.95 5.76-.28 3.13 1.34 5.68 4.88 5.68.92 0 1.84-.19 2.68-.56.85-.37 1.6-.92 2.22-1.6l-.38 4.28a9.86 9.86 0 0 1-4.8 1.32c-5.82-.02-8.49-4.34-8.06-9.06M32.58.8h3.43l-1.25 14.27h4.92c.35 0 1.52-.02 1.84-.04-.02.17-.31 3.3-.31 3.3H31.02L32.58.8zM50.45 7.35c.11-.24.19-.48.25-.74h.06c.02.25.06.5.13.74.19.8 1.52 5.24 1.52 5.24h-4.33s2.33-5.13 2.37-5.24zM51.33 0h-.24l-9.4 18.34h3.65l1.32-2.78h6.62l.83 2.78h3.64L51.33 0z"/>
</svg>
