<svg width="141" height="51" viewBox="0 0 141 51" fill="none" xmlns="http://www.w3.org/2000/svg">
<path d="M77.9966 21.593H80.4268V31.5474H86.0571V33.5753H77.9966V21.593Z" fill="#0F0F0F"/>
<path d="M86.9136 21.593H89.1945V23.6375H86.9136V21.593ZM86.9136 24.9798H89.1945V33.5746H86.9136V24.9798Z" fill="#0F0F0F"/>
<path d="M92.8498 32.5026H92.8159V33.5753H90.6187V21.593H92.8995V26.0166H92.9507C93.201 25.6107 93.5548 25.2789 93.9758 25.0551C94.3969 24.8313 94.8699 24.7238 95.3463 24.7434C97.5083 24.7434 99.0503 26.6027 99.0503 29.2845C99.0503 32.0658 97.5754 33.8255 95.4141 33.8255C94.9077 33.8521 94.4033 33.7435 93.9527 33.5109C93.5021 33.2783 93.1214 32.9301 92.8498 32.5019V32.5026ZM96.7377 29.2845C96.7377 27.6947 96.1004 26.5889 94.8272 26.5889C93.3854 26.5889 92.8498 27.7452 92.8498 29.3363C92.8498 30.9122 93.6377 31.9179 94.9109 31.9179C96.0859 31.9179 96.7377 30.9454 96.7377 29.2865" fill="#0F0F0F"/>
<path d="M102.328 26.3535H102.379C102.898 25.3817 103.484 24.8785 104.49 24.8785C104.671 24.8684 104.853 24.8918 105.026 24.9476V26.9417H104.976C103.484 26.791 102.412 27.5789 102.412 29.3884V33.5777H100.131V24.9794H102.326L102.328 26.3535Z" fill="#0F0F0F"/>
<path d="M110.919 32.6225H110.886C110.45 33.2756 109.83 33.7788 108.355 33.7788C106.596 33.7788 105.355 32.8568 105.355 31.1475C105.355 29.2537 106.897 28.6509 108.811 28.3828C110.235 28.1816 110.889 28.0648 110.889 27.411C110.889 26.7889 110.405 26.3887 109.448 26.3887C108.375 26.3887 107.858 26.7744 107.789 27.5948H105.761C105.831 26.0874 106.951 24.761 109.465 24.761C112.046 24.761 113.085 25.918 113.085 27.9287V32.3024C113.085 32.9556 113.185 33.3392 113.386 33.4927V33.5763H111.191C111.035 33.2807 110.943 32.955 110.923 32.6211L110.919 32.6225ZM110.94 30.5427V29.2537C110.434 29.4907 109.9 29.6596 109.35 29.7561C108.16 30.0243 107.574 30.2932 107.574 31.097C107.574 31.9009 108.109 32.1863 108.914 32.1863C110.222 32.1863 110.942 31.3825 110.942 30.5441" fill="#0F0F0F"/>
<path d="M116.687 26.3535H116.738C117.257 25.3817 117.844 24.8785 118.85 24.8785C119.031 24.8684 119.212 24.8918 119.385 24.9476V26.9417H119.335C117.844 26.791 116.771 27.5789 116.771 29.3884V33.5777H114.49V24.9794H116.685L116.687 26.3535Z" fill="#0F0F0F"/>
<path d="M120.687 34.5987H121.492C122.397 34.5987 122.766 34.1287 122.766 33.4237C122.677 32.6166 122.456 31.8296 122.113 31.0937L119.799 24.9768H122.196L123.469 28.8474C123.738 29.6347 124.022 30.724 124.022 30.724H124.056C124.056 30.724 124.291 29.6347 124.559 28.8474L125.766 24.9768H128.062L125.061 33.7921C124.408 35.7025 123.772 36.3896 122.028 36.3896H120.687V34.5987Z" fill="#0F0F0F"/>
<path d="M14.44 28.497C14.388 27.8503 14.3744 27.201 14.3992 26.5527L15.3247 16.0413H18.7668L17.8226 26.6446C17.6201 28.94 18.52 30.5761 20.8113 30.5761C23.1523 30.5761 24.3902 28.9117 24.5941 26.8755L25.5707 16.0413H29.0101L28.0597 26.74C27.6754 30.8588 24.9425 33.9442 20.5258 33.9442C17.0803 33.9442 14.8582 31.7172 14.4435 28.497" fill="#0B6AB7"/>
<path d="M29.8025 24.9367C30.2511 19.8911 33.6558 15.7081 39.5357 15.7081C41.1383 15.6852 42.7113 16.1405 44.0539 17.0158L43.6593 21.1836C43.1526 20.4898 42.4783 19.9357 41.6994 19.5731C40.9205 19.2105 40.0624 19.0512 39.2053 19.1101C35.5462 19.1101 33.5376 21.6509 33.2522 24.8683C32.9757 28.0007 34.5917 30.547 38.136 30.547C39.06 30.5514 39.9746 30.3611 40.8201 29.9885C41.6657 29.6159 42.4232 29.0693 43.0434 28.3843L42.6584 32.6648C41.1986 33.5062 39.5478 33.9604 37.863 33.9843C32.044 33.9843 29.3795 29.6616 29.7976 24.9367" fill="#0B6AB7"/>
<path d="M46.8007 16.0413H50.2324L48.9793 30.3141H53.897C54.2426 30.3141 55.4176 30.2961 55.7328 30.2775C55.7148 30.4496 55.4204 33.5751 55.4204 33.5751H45.2441L46.8007 16.0413Z" fill="#0B6AB7"/>
<path d="M64.6766 22.5879C64.784 22.351 64.8689 22.1046 64.9303 21.8518C64.9487 21.8505 64.9672 21.8505 64.9856 21.8518C65.0062 22.1026 65.0501 22.3509 65.1169 22.5934C65.3035 23.3931 66.6375 27.8319 66.6375 27.8319H62.3087C62.3087 27.8319 64.6303 22.704 64.6766 22.5907V22.5879ZM65.5572 15.24H65.3194L55.9229 33.5756H59.5695L60.8904 30.7915H67.5098L68.3392 33.5728H71.9776L65.5572 15.24Z" fill="#0B6AB7"/>
</svg>
