<svg width="140" height="51" viewBox="0 0 140 51" fill="none" xmlns="http://www.w3.org/2000/svg">
<path d="M77.2231 21.593H79.6533V31.5474H85.2837V33.5753H77.2231V21.593Z" fill="#0F0F0F"/>
<path d="M86.1401 21.593H88.421V23.6375H86.1401V21.593ZM86.1401 24.9798H88.421V33.5746H86.1401V24.9798Z" fill="#0F0F0F"/>
<path d="M92.0763 32.5026H92.0425V33.5753H89.8452V21.593H92.1261V26.0166H92.1772C92.4275 25.6107 92.7814 25.2789 93.2024 25.0551C93.6234 24.8313 94.0965 24.7238 94.5729 24.7434C96.7349 24.7434 98.2769 26.6027 98.2769 29.2845C98.2769 32.0658 96.8019 33.8255 94.6406 33.8255C94.1342 33.8521 93.6299 33.7435 93.1793 33.5109C92.7287 33.2783 92.348 32.9301 92.0763 32.5019V32.5026ZM95.9642 29.2845C95.9642 27.6947 95.327 26.5889 94.0538 26.5889C92.612 26.5889 92.0763 27.7452 92.0763 29.3363C92.0763 30.9122 92.8643 31.9179 94.1374 31.9179C95.3124 31.9179 95.9642 30.9454 95.9642 29.2865" fill="#0F0F0F"/>
<path d="M101.555 26.3535H101.605C102.124 25.3817 102.711 24.8785 103.717 24.8785C103.898 24.8684 104.08 24.8918 104.253 24.9476V26.9417H104.203C102.711 26.791 101.639 27.5789 101.639 29.3884V33.5777H99.3577V24.9794H101.553L101.555 26.3535Z" fill="#0F0F0F"/>
<path d="M110.146 32.6225H110.112C109.676 33.2756 109.056 33.7788 107.582 33.7788C105.822 33.7788 104.582 32.8568 104.582 31.1475C104.582 29.2537 106.124 28.6509 108.037 28.3828C109.461 28.1816 110.116 28.0648 110.116 27.411C110.116 26.7889 109.632 26.3887 108.675 26.3887C107.602 26.3887 107.085 26.7744 107.016 27.5948H104.988C105.057 26.0874 106.177 24.761 108.691 24.761C111.273 24.761 112.312 25.918 112.312 27.9287V32.3024C112.312 32.9556 112.412 33.3392 112.613 33.4927V33.5763H110.418C110.261 33.2807 110.17 32.955 110.15 32.6211L110.146 32.6225ZM110.166 30.5427V29.2537C109.661 29.4907 109.126 29.6596 108.577 29.7561C107.387 30.0243 106.8 30.2932 106.8 31.097C106.8 31.9009 107.336 32.1863 108.14 32.1863C109.448 32.1863 110.168 31.3825 110.168 30.5441" fill="#0F0F0F"/>
<path d="M115.914 26.3535H115.965C116.484 25.3817 117.071 24.8785 118.076 24.8785C118.258 24.8684 118.439 24.8918 118.612 24.9476V26.9417H118.562C117.071 26.791 115.998 27.5789 115.998 29.3884V33.5777H113.717V24.9794H115.912L115.914 26.3535Z" fill="#0F0F0F"/>
<path d="M119.914 34.5987H120.719C121.624 34.5987 121.992 34.1287 121.992 33.4237C121.903 32.6166 121.683 31.8296 121.339 31.0937L119.026 24.9768H121.423L122.696 28.8474C122.964 29.6347 123.249 30.724 123.249 30.724H123.283C123.283 30.724 123.517 29.6347 123.786 28.8474L124.992 24.9768H127.288L124.288 33.7921C123.635 35.7025 122.998 36.3896 121.255 36.3896H119.914V34.5987Z" fill="#0F0F0F"/>
<path d="M13.6666 28.497C13.6146 27.8503 13.601 27.201 13.6258 26.5527L14.5513 16.0413H17.9933L17.0492 26.6446C16.8467 28.94 17.7466 30.5761 20.0378 30.5761C22.3789 30.5761 23.6168 28.9117 23.8207 26.8755L24.7973 16.0413H28.2366L27.2862 26.74C26.902 30.8588 24.169 33.9442 19.7524 33.9442C16.3069 33.9442 14.0847 31.7172 13.67 28.497" fill="#0F0F0F"/>
<path d="M29.029 24.9367C29.4776 19.8911 32.8824 15.7081 38.7622 15.7081C40.3648 15.6852 41.9379 16.1405 43.2805 17.0158L42.8858 21.1836C42.3791 20.4898 41.7048 19.9357 40.926 19.5731C40.1471 19.2105 39.289 19.0512 38.4319 19.1101C34.7727 19.1101 32.7642 21.6509 32.4787 24.8683C32.2023 28.0007 33.8182 30.547 37.3626 30.547C38.2866 30.5514 39.2012 30.3611 40.0467 29.9885C40.8922 29.6159 41.6498 29.0693 42.27 28.3843L41.885 32.6648C40.4251 33.5062 38.7744 33.9604 37.0896 33.9843C31.2705 33.9843 28.606 29.6616 29.0242 24.9367" fill="#0F0F0F"/>
<path d="M46.0275 16.0413H49.4592L48.2061 30.3141H53.1238C53.4694 30.3141 54.6444 30.2961 54.9596 30.2775C54.9416 30.4496 54.6472 33.5751 54.6472 33.5751H44.4709L46.0275 16.0413Z" fill="#0F0F0F"/>
<path d="M63.9032 22.5879C64.0106 22.351 64.0955 22.1046 64.1569 21.8518C64.1753 21.8505 64.1937 21.8505 64.2122 21.8518C64.2327 22.1026 64.2767 22.3509 64.3435 22.5934C64.5301 23.3931 65.8641 27.8319 65.8641 27.8319H61.5352C61.5352 27.8319 63.8569 22.704 63.9032 22.5907V22.5879ZM64.7838 15.24H64.546L55.1494 33.5756H58.7961L60.1169 30.7915H66.7363L67.5658 33.5728H71.2041L64.7838 15.24Z" fill="#0F0F0F"/>
</svg>
