<svg xmlns="http://www.w3.org/2000/svg" width="2208.51" viewBox="0 0 2208.51 1171.24" height="1171.24" xml:space="preserve">
  <path fill="none" stroke="#FF94DB" stroke-width="1.5" d="m1578.81 1170.54 217.69-89 .36-.84m-218.05 89.84-223.7-89m223.7 89 168.38-139.51m-168.38 139.51-171.98-139.51m485.89-176.8-96.22-217.69m96.22 217.69-95.86 226.46m95.86-226.46-313.91-173.19m313.91 173.19-145.53 176.8m49.31-394.49-217.69-102.23m217.69 102.23-217.69 44.5m0-146.73-223.7 102.23m223.7-102.23v146.73m-223.7-44.5-92.61 217.69m92.61-217.69 223.7 44.5M1262.5 854.23l92.61 227.31m-92.61-227.31 144.32 176.8m-144.32-176.8 316.3-173.19m-223.69 400.5 51.72-50.51m0 0h340.36m-340.36 0 171.98-349.99m168.38 349.99 49.67 49.67m-49.67-49.67-168.38-349.99"/>
  <path fill="none" stroke="#C099FF" stroke-width="1.5" d="m947.91 1170.54 217.69-89 .36-.84m-218.05 89.84-223.7-89m223.7 89 168.38-139.51m-168.38 139.51-171.99-139.51m485.89-176.8-96.22-217.69m96.22 217.69-95.86 226.46m95.86-226.46-313.9-173.19m313.9 173.19-145.53 176.8m49.31-394.49L947.91 534.31m217.68 102.23-217.69 44.5m.01-146.73L724.2 636.54m223.71-102.23v146.73m-223.71-44.5-92.6 217.69m92.6-217.69 223.7 44.5M631.6 854.23l92.61 227.31M631.6 854.23l144.32 176.8M631.6 854.23l316.31-173.19m-223.71 400.5 51.72-50.51m0 0h340.36m-340.36 0 171.99-349.99m168.37 349.99 49.67 49.67m-49.67-49.67L947.91 681.04"/>
  <path fill="none" stroke="#FF94DB" stroke-width="1.5" d="m317 1170.54 217.69-89 .36-.84M317 1170.54l-223.7-89m223.7 89 168.38-139.51M317 1170.54l-171.99-139.51m485.9-176.8-96.22-217.69m96.22 217.69-95.86 226.46m95.86-226.46L317 681.04m313.91 173.19-145.53 176.8m49.31-394.49L317 534.31m217.69 102.23L317 681.04m0-146.73L93.3 636.54M317 534.31v146.73m-223.7-44.5L.69 854.23M93.3 636.54l223.7 44.5M.69 854.23l92.61 227.31M.69 854.23l144.32 176.8M.69 854.23 317 681.04m-223.7 400.5 51.72-50.51m0 0h340.36m-340.36 0L317 681.04m168.38 349.99 49.67 49.67m-49.67-49.67L317 681.04"/>
  <path fill="none" stroke="#00E0E0" stroke-width="1.5" d="m1263.01 636.91 217.69-89 .36-.85m-218.05 89.85-223.7-89m223.7 89 168.38-139.51m-168.38 139.51L1091.03 497.4m485.89-176.8-96.22-217.69m96.22 217.69-95.86 226.47m95.86-226.47-313.91-173.19m313.91 173.19-145.53 176.8m49.31-394.49L1263.01.68m217.69 102.23-217.69 44.5m0-146.73-223.7 102.23M1263.01.68v146.73m-223.7-44.5L946.7 320.6m92.61-217.69 223.7 44.5M946.7 320.6l92.61 227.31M946.7 320.6l144.32 176.8M946.7 320.6l316.31-173.19m-223.7 400.5 51.72-50.51m0 0h340.36m-340.36 0 171.99-349.98m168.37 349.98 49.67 49.67m-49.67-49.67-168.38-349.98"/>
  <path fill="none" stroke="#0AA5FF" stroke-width="1.5" d="m1893.92 636.91 217.69-89 .36-.85m-218.05 89.85-223.7-89m223.7 89L2062.3 497.4m-168.38 139.51L1721.93 497.4m485.89-176.8-96.21-217.69m96.21 217.69-95.85 226.47m95.85-226.47-313.9-173.19m313.9 173.19L2062.3 497.4m49.31-394.49L1893.92.68m217.69 102.23-217.69 44.5m0-146.73-223.7 102.23M1893.92.68v146.73m-223.7-44.5-92.61 217.69m92.61-217.69 223.7 44.5M1577.61 320.6l92.61 227.31m-92.61-227.31 144.32 176.8m-144.32-176.8 316.31-173.19m-223.7 400.5 51.71-50.51m0 0h340.37m-340.37 0 171.99-349.99M2062.3 497.4l49.67 49.67m-49.67-49.67-168.38-349.99M632.11 636.91l217.69-89 .36-.85m-218.05 89.85-223.7-89m223.7 89L800.49 497.4M632.11 636.91 460.12 497.4m485.89-176.8L849.8 102.91m96.21 217.69-95.86 226.47m95.86-226.47-313.9-173.19m313.9 173.19L800.49 497.4m49.31-394.49L632.11.68M849.8 102.91l-217.69 44.5m0-146.73-223.7 102.23M632.11.68v146.73m-223.7-44.5L315.8 320.6m92.61-217.69 223.7 44.5M315.8 320.6l92.61 227.31M315.8 320.6l144.32 176.8M315.8 320.6l316.31-173.19m-223.7 400.5 51.72-50.51m-.01 0h340.36m-340.36 0 171.99-349.99M800.49 497.4l49.67 49.67m-49.67-49.67L632.11 147.41"/>
  <path fill="none" stroke="#FF94DB" stroke-width="1.5" d="m2209.72 1175.11 217.69-89 .36-.84m-218.05 89.84-223.7-89m223.7 89 168.38-139.51m-168.38 139.51-171.99-139.51m485.89-176.8-96.21-217.69m96.21 217.69-95.86 226.46m95.86-226.46-313.9-173.19m313.9 173.19-145.53 176.8m49.32-394.49-217.69-102.23m217.69 102.23-217.69 44.5m0-146.73-223.7 102.23m223.7-102.23v146.73m-223.7-44.5-92.61 217.69m92.61-217.69 223.7 44.5M1893.41 858.8l92.61 227.31m-92.61-227.31 144.32 176.8m-144.32-176.8 316.31-173.19m-223.7 400.5 51.72-50.51m0 0h340.36m-340.36 0 171.99-349.98m168.37 349.98 49.67 49.67m-49.67-49.67-168.38-349.98"/>
  <path fill="none" stroke="#0AA5FF" stroke-width="1.5" d="m1.21 640.52 217.69-89 .36-.84M1.21 640.52l-223.7-89m223.7 89 168.38-139.51M1.21 640.52l-171.99-139.51m485.88-176.8-96.2-217.69m96.2 217.69-95.85 226.47m95.85-226.47L1.21 151.02M315.1 324.21l-145.52 176.8m49.32-394.49L1.21 4.29M218.9 106.52 1.21 151.02m0-146.73-223.7 102.23M1.21 4.29v146.73m-223.7-44.5-92.61 217.69m92.61-217.69 223.7 44.5M-315.1 324.21l92.61 227.31m-92.61-227.31 144.32 176.8m-144.32-176.8L1.21 151.02m-223.7 400.5 51.71-50.51m-.01 0h340.37m-340.37 0 172-349.99m168.37 349.99 49.67 49.67m-49.67-49.67L1.21 151.02"/>
</svg>
