<svg width="24" height="24" viewBox="0 0 24 24" fill="none"
  xmlns="http://www.w3.org/2000/svg">
  <path d="M7.42578 20.2504L6.67578 20.2504L6.67578 18.7504L7.42578 18.7504L7.42578 20.2504ZM16.4258 18.7504L17.1758 18.7504L17.1758 20.2504L16.4258 20.2504L16.4258 18.7504ZM11.1758 15.9004C11.1758 15.4862 11.5116 15.1504 11.9258 15.1504C12.34 15.1504 12.6758 15.4862 12.6758 15.9004L11.1758 15.9004ZM7.42578 18.7504L11.9258 18.7504L11.9258 20.2504L7.42578 20.2504L7.42578 18.7504ZM11.9258 18.7504L16.4258 18.7504L16.4258 20.2504L11.9258 20.2504L11.9258 18.7504ZM11.1758 19.5004L11.1758 15.9004L12.6758 15.9004L12.6758 19.5004L11.1758 19.5004Z" fill="#0B6AB7"/>
  <path d="M4.05078 15.25C4.05078 15.5261 4.27464 15.75 4.55078 15.75L11.9258 15.75L19.3008 15.75C19.5769 15.75 19.8008 15.5261 19.8008 15.25L19.8008 5.75C19.8008 5.47386 19.5769 5.25 19.3008 5.25L11.9258 5.25L4.55078 5.25C4.27464 5.25 4.05078 5.47386 4.05078 5.75L4.05078 15.25Z" stroke="#0B6AB7" stroke-width="1.5" stroke-linecap="round" stroke-linejoin="round"/>
  <path d="M11.9252 7.65332L9.94709 8.48689L9.12774 10.4993L9.94709 12.5117L11.9252 13.3453L13.9033 12.5117L14.7227 10.4993L13.9033 8.48689L11.9252 7.65332Z" stroke="#0AA5FF" stroke-width="1.25"/>
</svg>
