<svg width="201" height="160" viewBox="0 0 201 160" fill="none" xmlns="http://www.w3.org/2000/svg">
<path d="M47.4727 126.249L113.655 126.249" stroke="#00E0E0" stroke-width="1.5"/>
<path d="M119.172 126.249L131.205 126.249" stroke="#00E0E0" stroke-width="1.5"/>
<path d="M136.217 126.249L140.228 126.249" stroke="#00E0E0" stroke-width="1.5"/>
<path d="M84.9552 144.674L86.0505 145.243V144.009V127V126.25H85.3005H68.5156H67.7656V127V144.009V145.243L68.861 144.674L76.9081 140.5L84.9552 144.674Z" fill="#0AA5FF" stroke="#0AA5FF" stroke-width="1.5" stroke-linecap="square"/>
<path fill-rule="evenodd" clip-rule="evenodd" d="M180.159 154.844C180.275 154.888 180.336 154.91 180.336 154.91H176.813H44.9657C33.6111 154.91 24.4062 145.705 24.4062 134.35C24.4062 122.996 33.611 113.791 44.9657 113.791H176.813H180.336C180.336 113.791 179.033 114.242 177.207 115.291C172.934 117.745 165.796 123.473 165.796 134.35C165.796 145.132 172.809 150.854 177.094 153.344H186.857V154.844H180.159ZM172.075 151.578C172.865 152.273 173.655 152.882 174.411 153.41H44.9657C34.4395 153.41 25.9062 144.876 25.9062 134.35C25.9062 123.824 34.4395 115.291 44.9657 115.291H174.411C173.655 115.819 172.865 116.427 172.075 117.123C168.203 120.531 164.296 126.054 164.296 134.35C164.296 142.647 168.203 148.17 172.075 151.578Z" fill="#0B6AB7"/>
<path d="M174.604 13.8899L145.107 26.1078L132.889 55.6044L145.107 85.101L174.604 97.3189" stroke="#FFD600" stroke-width="1.5"/>
<path d="M30.2441 13.9053C30.2441 9.90121 33.4901 6.65527 37.4941 6.65527H172.569C176.573 6.65527 179.819 9.90121 179.819 13.9053V104.554H30.2441V13.9053Z" stroke="#0B6AB7" stroke-width="1.5"/>
<path d="M35.2148 14.4578C35.2148 12.6628 36.6699 11.2078 38.4648 11.2078H171.606C173.401 11.2078 174.856 12.6628 174.856 14.4578V100H35.2148V14.4578Z" stroke="#0AA5FF" stroke-width="1.5"/>
<path d="M11.709 104.671H197.529V107.303C197.529 111.307 194.284 114.553 190.279 114.553H18.959C14.9549 114.553 11.709 111.307 11.709 107.303V104.671Z" stroke="#0B6AB7" stroke-width="1.5"/>
<path d="M44.5762 35.6443L59.9924 20.2281" stroke="#00E0E0" stroke-width="1.5"/>
<path d="M45.3555 28.7056L53.0636 20.9975" stroke="#00E0E0" stroke-width="1.5"/>
<path d="M44.832 23.053L47.4014 20.4836" stroke="#00E0E0" stroke-width="1.5"/>
</svg>
