<svg width="201" height="160" viewBox="0 0 201 160" fill="none" xmlns="http://www.w3.org/2000/svg">
<path d="M9.50391 113.223H191.324V131.489C191.324 135.493 188.078 138.739 184.074 138.739H116.37H84.2582H16.7539C12.7498 138.739 9.50391 135.493 9.50391 131.489V113.223Z" stroke="#0B6AB7" stroke-width="1.5"/>
<path d="M84.2051 139.489V155M116.416 139.489V155M116.416 155H135.48M116.416 155H84.2051M84.2051 155H65.7988" stroke="#0B6AB7" stroke-width="1.5"/>
<path d="M9.50391 11C9.50391 8.10051 11.8544 5.75 14.7539 5.75H186.074C188.974 5.75 191.324 8.10051 191.324 11V113.253H9.50391V11Z" stroke="#0B6AB7" stroke-width="1.5"/>
<path d="M185.59 19.3555L157.499 30.991L145.864 59.0816L157.499 87.1723L185.59 98.8078" stroke="#FFD600" stroke-width="1.5"/>
<path d="M14.9492 14.1907C14.9492 12.3957 16.4043 10.9407 18.1992 10.9407H182.627C184.422 10.9407 185.877 12.3957 185.877 14.1907V103.971C185.877 105.766 184.422 107.221 182.627 107.221H18.1992C16.4043 107.221 14.9492 105.766 14.9492 103.971V14.1907Z" stroke="#0AA5FF" stroke-width="1.5"/>
<path d="M100.415 131.954L104.64 130.204L106.39 125.979L104.64 121.753L100.415 120.003L96.1896 121.753L94.4395 125.979L96.1896 130.204L100.415 131.954Z" fill="#0AA5FF"/>
<path d="M44.8594 35.502H84.8594" stroke="#00E0E0" stroke-width="1.5"/>
<path d="M44.8594 41.502H84.8594" stroke="#00E0E0" stroke-width="1.5"/>
<path d="M44.8594 47.502L84.8594 47.5019" stroke="#00E0E0" stroke-width="1.5"/>
<path d="M44.8594 53.502L84.8594 53.5019" stroke="#00E0E0" stroke-width="1.5"/>
<path d="M44.8594 59.502L75.8541 59.502" stroke="#00E0E0" stroke-width="1.5"/>
<path d="M44.8594 71.502L84.8594 71.5019" stroke="#00E0E0" stroke-width="1.5"/>
<path d="M44.8594 77.502L84.8594 77.5019" stroke="#00E0E0" stroke-width="1.5"/>
<path d="M44.8594 83.502L68.8015 83.502" stroke="#00E0E0" stroke-width="1.5"/>
<path d="M92.8594 41.502H116.859" stroke="#00E0E0" stroke-width="1.5"/>
<path d="M92.8594 35.502H116.859" stroke="#00E0E0" stroke-width="1.5"/>
<path d="M92.8594 47.502H105.778" stroke="#00E0E0" stroke-width="1.5"/>
<path d="M92.8594 59.502L116.859 59.502" stroke="#00E0E0" stroke-width="1.5"/>
<path d="M92.8594 65.502L116.859 65.502" stroke="#00E0E0" stroke-width="1.5"/>
<path d="M92.8594 71.502L116.859 71.502" stroke="#00E0E0" stroke-width="1.5"/>
<path d="M92.8594 77.502L116.859 77.502" stroke="#00E0E0" stroke-width="1.5"/>
<path d="M92.8594 83.502L113.203 83.502" stroke="#00E0E0" stroke-width="1.5"/>
</svg>
