<svg width="201" height="161" viewBox="0 0 201 161" fill="none" xmlns="http://www.w3.org/2000/svg">
<path d="M42.2285 125.99L108.309 125.99" stroke="#00E0E0" stroke-width="1.5"/>
<path d="M113.816 125.99L125.831 125.99" stroke="#00E0E0" stroke-width="1.5"/>
<path d="M130.836 125.99L134.841 125.99" stroke="#00E0E0" stroke-width="1.5"/>
<path d="M79.654 144.388L80.7493 144.957V143.723V126.741V125.991H79.9993H63.2402H62.4902V126.741V143.723V144.957L63.5856 144.388L71.6198 140.221L79.654 144.388Z" fill="#0AA5FF" stroke="#0AA5FF" stroke-width="1.5" stroke-linecap="square"/>
<path fill-rule="evenodd" clip-rule="evenodd" d="M172.973 153.043H181.398V154.543H174.785C174.852 154.586 174.887 154.607 174.887 154.607H172.446H39.7251C28.3879 154.607 19.1973 145.416 19.1973 134.079C19.1973 122.742 28.3879 113.551 39.7251 113.551H172.446H174.887C174.887 113.551 174.849 113.574 174.777 113.621H181.398V115.121H172.968C170.438 117.611 166.307 123.323 166.307 134.079C166.307 144.842 170.444 150.556 172.973 153.043ZM170.918 153.043C170.412 152.461 169.881 151.78 169.352 150.992C167.04 147.548 164.807 142.125 164.807 134.079C164.807 126.033 167.04 120.61 169.352 117.166C169.88 116.381 170.409 115.702 170.913 115.121H170.823V115.051H39.7251C29.2163 115.051 20.6973 123.57 20.6973 134.079C20.6973 144.588 29.2163 153.107 39.7251 153.107H170.823V153.043H170.918Z" fill="#0B6AB7"/>
<path d="M132.607 95.6326L87.5381 95.6326" stroke="#00E0E0" stroke-width="1.5"/>
<path d="M84.0332 95.6326L80.0283 95.6326" stroke="#00E0E0" stroke-width="1.5"/>
<path d="M96.8524 105.377L95.8884 105.664V104.658V96.3831V95.6331H96.6384H111.221H111.971V96.3831V104.658V105.664L111.007 105.377L103.93 103.27L96.8524 105.377Z" fill="#0AA5FF" stroke="#0AA5FF" stroke-width="1.5" stroke-linecap="square"/>
<path fill-rule="evenodd" clip-rule="evenodd" d="M23.4581 113.616H19.1945V115.116H21.0832C21.0032 115.153 20.9602 115.171 20.9602 115.171H23.8839H161.92C170.055 115.171 176.65 108.576 176.65 100.441C176.65 92.3057 170.055 85.7107 161.92 85.7107H23.8839H20.9602C20.9602 85.7107 21.0073 85.7305 21.0945 85.7717H19.1945V87.2717H23.465C25.9975 89.2496 29.5403 93.2937 29.5403 100.441C29.5403 107.595 25.9911 111.64 23.4581 113.616ZM25.7417 113.616C25.942 113.422 26.1438 113.218 26.3455 113.002C28.7144 110.471 31.0403 106.433 31.0403 100.441C31.0403 94.449 28.7144 90.4113 26.3455 87.8798C26.1456 87.6663 25.9457 87.4637 25.7472 87.2717H29.7699V87.2107H161.92C169.227 87.2107 175.15 93.1341 175.15 100.441C175.15 107.748 169.227 113.671 161.92 113.671H29.7699V113.616H25.7417Z" fill="#0B6AB7"/>
<path d="M100.297 6.58081L123.386 16.1445L132.949 39.2332L123.386 62.3219L100.297 71.8856L77.2082 62.3219L67.6445 39.2332L77.2082 16.1445L100.297 6.58081Z" stroke="#0B6AB7" stroke-width="1.5"/>
<path d="M100.297 11.0151L120.25 19.2801L128.515 39.2335M100.297 67.452L80.3431 59.187L72.0781 39.2335" stroke="#FFD600" stroke-width="1.5"/>
<path d="M105.492 43.0204L104.785 42.3133L103.371 43.7274L104.078 44.4345L105.492 43.0204ZM110.008 50.365L110.715 51.0722L112.129 49.6581L111.422 48.9509L110.008 50.365ZM102.416 46.5116C107.366 44.4081 109.673 38.6904 107.569 33.7408L105.729 34.5231C107.4 38.4561 105.567 42.9994 101.634 44.6709L102.416 46.5116ZM107.569 33.7408C105.466 28.7913 99.748 26.4841 94.7984 28.5876L95.5807 30.4283C99.5137 28.7568 104.057 30.5901 105.729 34.5231L107.569 33.7408ZM94.7984 28.5876C89.8489 30.6911 87.5417 36.4088 89.6452 41.3584L91.4859 40.5761C89.8144 36.6431 91.6477 32.0997 95.5807 30.4283L94.7984 28.5876ZM89.6452 41.3584C91.7487 46.3079 97.4664 48.6151 102.416 46.5116L101.634 44.6709C97.7007 46.3424 93.1574 44.5091 91.4859 40.5761L89.6452 41.3584ZM104.078 44.4345L110.008 50.365L111.422 48.9509L105.492 43.0204L104.078 44.4345Z" fill="#0AA5FF"/>
</svg>
