<svg width="150" height="150" viewBox="0 0 150 150" fill="none" xmlns="http://www.w3.org/2000/svg" class="svg__icon-ucla-favicon">
<g clip-path="url(#clip0_6485_47076)">
<rect width="150" height="150" fill="#0B6AB7" class="svg__fill--primary-blue-03"/>
<path d="M10.0797 83.7412C9.96274 82.2861 9.9321 80.8253 9.9879 79.3666L12.0702 55.7158H19.8149L17.6906 79.5734C17.2349 84.7381 19.2597 88.4191 24.4151 88.4191C29.6824 88.4191 32.4676 84.6743 32.9264 80.0929L35.1238 55.7158H42.8623L40.724 79.788C39.8593 89.0552 33.7102 95.9974 23.7728 95.9974C16.0203 95.9974 11.0205 90.9867 10.0874 83.7412" fill="white" class="svg__fill-white"/>
<path d="M44.6453 75.7306C45.6545 64.378 53.3152 54.9662 66.5449 54.9662C70.1507 54.9147 73.6901 55.9391 76.711 57.9086L75.823 67.2861C74.6829 65.725 73.1658 64.4783 71.4133 63.6624C69.6608 62.8465 67.7301 62.4881 65.8016 62.6207C57.5686 62.6207 53.0493 68.3374 52.407 75.5767C51.785 82.6246 55.4209 88.3538 63.3957 88.3538C65.4747 88.3637 67.5325 87.9355 69.4349 87.0971C71.3374 86.2587 73.0419 85.0288 74.4373 83.4877L73.5711 93.1188C70.2864 95.0119 66.5723 96.0338 62.7815 96.0876C49.6886 96.0876 43.6935 86.3616 44.6344 75.7306" fill="white" class="svg__fill-white"/>
<path d="M82.8917 55.7158H90.6131L87.7936 87.8297H98.8585C99.6361 87.8297 102.28 87.7893 102.989 87.7473C102.949 88.1346 102.286 95.167 102.286 95.167H79.3895L82.8917 55.7158Z" fill="white" class="svg__fill-white"/>
<path d="M123.112 70.4457C123.354 69.9126 123.545 69.3581 123.683 68.7894C123.724 68.7864 123.766 68.7864 123.807 68.7894C123.854 69.3537 123.952 69.9123 124.103 70.4581C124.523 72.2574 127.524 82.2446 127.524 82.2446H117.784C117.784 82.2446 123.008 70.7069 123.112 70.4519V70.4457ZM125.093 53.9128H124.558L103.416 95.168H111.621L114.593 88.9038H129.487L131.353 95.1617H139.539L125.093 53.9128Z" fill="white" class="svg__fill-white"/>
</g>
<defs>
<clipPath id="clip0_6485_47076">
<rect width="150" height="150" fill="white"/>
</clipPath>
</defs>
</svg>
